<svg width="294" height="77" viewBox="0 0 294 77" fill="none" xmlns="http://www.w3.org/2000/svg">
<mask id="mask0_1381_4217" style="mask-type:luminance" maskUnits="userSpaceOnUse" x="21" y="0" width="44" height="49">
<path d="M21.6943 0.210449H35C42.3183 0.210449 48.3058 6.23655 48.3058 13.6018V22.0443C47.4818 36.5709 52.7155 45.4984 64.0066 48.827C53.0912 48.1012 42.7245 43.4226 34.8944 35.5419C27.0642 27.6615 22.4154 17.228 21.6943 6.24219V0.210449Z" fill="white"/>
</mask>
<g mask="url(#mask0_1381_4217)">
<path d="M64.0066 0.210449H21.6943V48.8271H64.0066V0.210449Z" fill="url(#paint0_linear_1381_4217)"/>
</g>
<mask id="mask1_1381_4217" style="mask-type:luminance" maskUnits="userSpaceOnUse" x="22" y="1" width="34" height="46">
<path d="M22.9121 1.43555V6.20121C23.6267 16.9393 28.189 27.0599 35.7554 34.675C41.3829 40.3384 48.387 44.3298 55.9964 46.2994C40.4802 37.1284 32.1441 19.3158 35.0002 1.43555H22.9121Z" fill="white"/>
</mask>
<g mask="url(#mask1_1381_4217)">
<path d="M55.9965 1.43555H22.9121V46.2994H55.9965V1.43555Z" fill="url(#paint1_linear_1381_4217)"/>
</g>
<mask id="mask2_1381_4217" style="mask-type:luminance" maskUnits="userSpaceOnUse" x="48" y="22" width="22" height="27">
<path d="M48.3057 22.0444C47.4817 36.571 52.7155 45.4986 64.0066 48.8272H70V35.4357C70 28.0704 64.0124 22.0444 56.6942 22.0444H48.3057Z" fill="white"/>
</mask>
<g mask="url(#mask2_1381_4217)">
<path d="M69.9997 22.0444H47.4814V48.8272H69.9997V22.0444Z" fill="url(#paint2_linear_1381_4217)"/>
</g>
<mask id="mask3_1381_4217" style="mask-type:luminance" maskUnits="userSpaceOnUse" x="48" y="22" width="17" height="27">
<path d="M48.3057 22.0444C47.4817 36.571 52.7155 45.4986 64.0066 48.8272C54.4035 43.7213 49.6183 32.5832 52.5 22.0444H48.3057Z" fill="white"/>
</mask>
<g mask="url(#mask3_1381_4217)">
<path d="M64.0063 22.0444H47.4814V48.8272H64.0063V22.0444Z" fill="url(#paint3_linear_1381_4217)"/>
</g>
<mask id="mask4_1381_4217" style="mask-type:luminance" maskUnits="userSpaceOnUse" x="5" y="27" width="44" height="50">
<path d="M48.3056 76.2103H34.9998C27.6817 76.2103 21.6941 70.1842 21.6941 62.819V54.3765C22.518 39.8499 17.2843 30.9224 5.99316 27.5938C16.9087 28.3196 27.2753 32.9982 35.1056 40.8788C42.9357 48.7593 47.5845 59.1927 48.3056 70.1786V76.2103Z" fill="white"/>
</mask>
<g mask="url(#mask4_1381_4217)">
<path d="M48.3031 27.6021H5.99072V76.2188H48.3031V27.6021Z" fill="url(#paint4_linear_1381_4217)"/>
</g>
<mask id="mask5_1381_4217" style="mask-type:luminance" maskUnits="userSpaceOnUse" x="14" y="30" width="34" height="45">
<path d="M47.0883 74.9855V70.2197C46.3739 59.4816 41.8114 49.3611 34.245 41.746C28.6177 36.0825 21.6135 32.0911 14.0039 30.1216C29.5201 39.2926 37.8564 57.1051 35.0002 74.9854H47.0883V74.9855Z" fill="white"/>
</mask>
<g mask="url(#mask5_1381_4217)">
<path d="M47.0883 30.1216H14.0039V74.9854H47.0883V30.1216Z" fill="url(#paint5_linear_1381_4217)"/>
</g>
<mask id="mask6_1381_4217" style="mask-type:luminance" maskUnits="userSpaceOnUse" x="0" y="27" width="22" height="28">
<path d="M21.6943 54.3765C22.5182 39.8499 17.2845 30.9224 5.99339 27.5938H0V40.9852C0 48.3505 5.98757 54.3765 13.3058 54.3765H21.6943Z" fill="white"/>
</mask>
<g mask="url(#mask6_1381_4217)">
<path d="M22.5182 27.6021H0V54.3848H22.5182V27.6021Z" fill="url(#paint6_linear_1381_4217)"/>
</g>
<mask id="mask7_1381_4217" style="mask-type:luminance" maskUnits="userSpaceOnUse" x="5" y="27" width="17" height="28">
<path d="M21.6941 54.3765C22.518 39.8499 17.2843 30.9224 5.99316 27.5938C15.5962 32.6996 20.3815 43.8377 17.5 54.3765H21.6941Z" fill="white"/>
</mask>
<g mask="url(#mask7_1381_4217)">
<path d="M22.5155 27.6021H5.99072V54.3848H22.5155V27.6021Z" fill="url(#paint7_linear_1381_4217)"/>
</g>
<mask id="mask8_1381_4217" style="mask-type:luminance" maskUnits="userSpaceOnUse" x="3" y="9" width="15" height="15">
<path d="M10.7744 9.31689C14.5698 9.31689 17.6464 12.4134 17.6464 16.2332C17.6464 20.053 14.5697 23.1494 10.7744 23.1494C6.97898 23.1494 3.90234 20.0529 3.90234 16.2332C3.90234 12.4133 6.97898 9.31689 10.7744 9.31689Z" fill="white"/>
</mask>
<g mask="url(#mask8_1381_4217)">
<path d="M17.6464 9.31689H3.90234V23.1495H17.6464V9.31689Z" fill="url(#paint8_linear_1381_4217)"/>
</g>
<mask id="mask9_1381_4217" style="mask-type:luminance" maskUnits="userSpaceOnUse" x="4" y="10" width="13" height="13">
<path d="M10.7743 10.0083C14.1901 10.0083 16.9592 12.7951 16.9592 16.233C16.9592 19.6709 14.1901 22.4578 10.7743 22.4578C7.35834 22.4578 4.58936 19.6709 4.58936 16.233C4.58936 12.7952 7.35845 10.0083 10.7743 10.0083Z" fill="white"/>
</mask>
<g mask="url(#mask9_1381_4217)">
<path d="M16.9592 10.0083H4.58936V22.4578H16.9592V10.0083Z" fill="url(#paint9_linear_1381_4217)"/>
</g>
<path d="M98.8418 9.9917V24.2104H95.9121L90.1992 14.6792V24.2104H87.2695V9.9917H90.1992L95.9219 19.5327V9.9917H98.8418ZM110.873 15.7827V18.0679H103.451V15.7827H110.873ZM104.32 9.9917V24.2104H101.391V9.9917H104.32ZM112.963 9.9917V24.2104H110.043V9.9917H112.963ZM121.469 12.4233L117.602 24.2104H114.486L119.77 9.9917H121.752L121.469 12.4233ZM124.682 24.2104L120.805 12.4233L120.492 9.9917H122.494L127.807 24.2104H124.682ZM124.506 18.9175V21.2124H116.996V18.9175H124.506ZM120.619 6.18311L122.543 9.19092H120.238L117.562 6.18311H120.619ZM139.936 9.9917V24.2104H137.016V9.9917H139.936ZM144.311 9.9917V12.2866H132.709V9.9917H144.311ZM155.463 15.7827V18.0679H148.041V15.7827H155.463ZM148.91 9.9917V24.2104H145.98V9.9917H148.91ZM157.553 9.9917V24.2104H154.633V9.9917H157.553ZM167.953 9.9917H170.873V19.3862C170.873 20.48 170.639 21.4012 170.17 22.1499C169.708 22.8986 169.066 23.4618 168.246 23.8394C167.432 24.217 166.495 24.4058 165.434 24.4058C164.372 24.4058 163.428 24.217 162.602 23.8394C161.781 23.4618 161.137 22.8986 160.668 22.1499C160.206 21.4012 159.975 20.48 159.975 19.3862V9.9917H162.904V19.3862C162.904 20.0243 163.005 20.5451 163.207 20.9487C163.409 21.3524 163.699 21.6486 164.076 21.8374C164.46 22.0262 164.913 22.1206 165.434 22.1206C165.967 22.1206 166.42 22.0262 166.791 21.8374C167.169 21.6486 167.455 21.3524 167.65 20.9487C167.852 20.5451 167.953 20.0243 167.953 19.3862V9.9917ZM184.965 16.769V17.4429C184.965 18.5236 184.818 19.4937 184.525 20.353C184.232 21.2124 183.819 21.9448 183.285 22.5503C182.751 23.1493 182.113 23.6082 181.371 23.9272C180.635 24.2463 179.818 24.4058 178.92 24.4058C178.028 24.4058 177.211 24.2463 176.469 23.9272C175.733 23.6082 175.095 23.1493 174.555 22.5503C174.014 21.9448 173.594 21.2124 173.295 20.353C173.002 19.4937 172.855 18.5236 172.855 17.4429V16.769C172.855 15.6818 173.002 14.7118 173.295 13.8589C173.588 12.9995 174.001 12.2671 174.535 11.6616C175.076 11.0562 175.714 10.5939 176.449 10.2749C177.191 9.95589 178.008 9.79639 178.9 9.79639C179.799 9.79639 180.616 9.95589 181.352 10.2749C182.094 10.5939 182.732 11.0562 183.266 11.6616C183.806 12.2671 184.223 12.9995 184.516 13.8589C184.815 14.7118 184.965 15.6818 184.965 16.769ZM182.006 17.4429V16.7495C182.006 15.9943 181.938 15.3302 181.801 14.7573C181.664 14.1844 181.462 13.7026 181.195 13.312C180.928 12.9214 180.603 12.6284 180.219 12.4331C179.835 12.2313 179.395 12.1304 178.9 12.1304C178.406 12.1304 177.966 12.2313 177.582 12.4331C177.204 12.6284 176.882 12.9214 176.615 13.312C176.355 13.7026 176.156 14.1844 176.02 14.7573C175.883 15.3302 175.814 15.9943 175.814 16.7495V17.4429C175.814 18.1916 175.883 18.8556 176.02 19.4351C176.156 20.008 176.358 20.493 176.625 20.8901C176.892 21.2808 177.217 21.577 177.602 21.7788C177.986 21.9806 178.425 22.0815 178.92 22.0815C179.415 22.0815 179.854 21.9806 180.238 21.7788C180.622 21.577 180.945 21.2808 181.205 20.8901C181.465 20.493 181.664 20.008 181.801 19.4351C181.938 18.8556 182.006 18.1916 182.006 17.4429ZM175.336 9.20068L178.1 6.93506H179.662L182.436 9.20068H180.365L178.881 7.94092L177.396 9.20068H175.336ZM181.723 7.86279L183.324 5.23584H185.541L183.324 7.86279H181.723ZM195.316 19.4937H198.236C198.178 20.4507 197.914 21.3003 197.445 22.0425C196.983 22.7847 196.335 23.3641 195.502 23.7808C194.675 24.1974 193.679 24.4058 192.514 24.4058C191.602 24.4058 190.785 24.2495 190.062 23.937C189.34 23.618 188.721 23.1623 188.207 22.5698C187.699 21.9774 187.312 21.2612 187.045 20.4214C186.778 19.5815 186.645 18.6408 186.645 17.5991V16.6128C186.645 15.5711 186.781 14.6304 187.055 13.7905C187.335 12.9442 187.732 12.2248 188.246 11.6323C188.767 11.0399 189.389 10.5841 190.111 10.2651C190.834 9.94613 191.641 9.78662 192.533 9.78662C193.718 9.78662 194.717 10.0015 195.531 10.4312C196.352 10.8608 196.986 11.4533 197.436 12.2085C197.891 12.9637 198.165 13.8231 198.256 14.7866H195.326C195.294 14.2137 195.18 13.7287 194.984 13.3315C194.789 12.9279 194.493 12.6252 194.096 12.4233C193.705 12.215 193.184 12.1108 192.533 12.1108C192.045 12.1108 191.618 12.202 191.254 12.3843C190.889 12.5666 190.583 12.8433 190.336 13.2144C190.089 13.5854 189.903 14.0542 189.779 14.6206C189.662 15.1805 189.604 15.8381 189.604 16.5933V17.5991C189.604 18.3348 189.659 18.9826 189.77 19.5425C189.88 20.0959 190.049 20.5646 190.277 20.9487C190.512 21.3263 190.811 21.6128 191.176 21.8081C191.547 21.9969 191.993 22.0913 192.514 22.0913C193.126 22.0913 193.63 21.9937 194.027 21.7983C194.424 21.603 194.727 21.3133 194.936 20.9292C195.15 20.5451 195.277 20.0666 195.316 19.4937Z" fill="#0071AB"/>
<path d="M98.9297 59.5112L104.848 37.7729H112.523L102.934 66.2104H97.9727L98.9297 59.5112ZM93.5586 37.7729L99.4766 59.5112L100.473 66.2104H95.4531L85.9219 37.7729H93.5586ZM121.898 37.7729V66.2104H115.062V37.7729H121.898ZM146.293 60.937V66.2104H131.137V60.937H146.293ZM133.578 37.7729V66.2104H126.723V37.7729H133.578ZM144.34 49.062V54.1597H131.137V49.062H144.34ZM146.352 37.7729V43.0659H131.137V37.7729H146.352ZM139.027 30.1558L145.434 35.644V35.8979H140.258L137.133 33.2417L134.047 35.8979H128.969V35.5659L135.258 30.1558H139.027ZM133.598 70.5073C133.598 69.674 133.936 68.9774 134.613 68.4175C135.29 67.8706 136.169 67.5972 137.25 67.5972C138.331 67.5972 139.21 67.8706 139.887 68.4175C140.564 68.9774 140.902 69.674 140.902 70.5073C140.902 71.3407 140.564 72.0308 139.887 72.5776C139.21 73.1375 138.331 73.4175 137.25 73.4175C136.169 73.4175 135.29 73.1375 134.613 72.5776C133.936 72.0308 133.598 71.3407 133.598 70.5073ZM163.266 37.7729V66.2104H156.41V37.7729H163.266ZM171.82 37.7729V43.0659H148.051V37.7729H171.82ZM202.68 49.062V54.3354H188.09V49.062H202.68ZM190.375 37.7729V66.2104H183.52V37.7729H190.375ZM207.289 37.7729V66.2104H200.453V37.7729H207.289ZM237.602 36.1909H241.605C241.605 38.1571 241.365 39.8368 240.883 41.23C240.414 42.6232 239.574 43.6909 238.363 44.4331C237.152 45.1623 235.447 45.5269 233.246 45.5269V42.3237C234.665 42.3237 235.674 42.0763 236.273 41.5815C236.885 41.0868 237.257 40.3836 237.387 39.4722C237.53 38.5477 237.602 37.4539 237.602 36.1909ZM227.074 37.7729H233.93V56.3472C233.93 58.5607 233.467 60.4357 232.543 61.9722C231.618 63.4956 230.323 64.6479 228.656 65.4292C226.99 66.2104 225.03 66.6011 222.777 66.6011C220.551 66.6011 218.591 66.2104 216.898 65.4292C215.219 64.6479 213.904 63.4956 212.953 61.9722C212.016 60.4357 211.547 58.5607 211.547 56.3472V37.7729H218.422V56.3472C218.422 57.519 218.591 58.4761 218.93 59.2183C219.268 59.9474 219.763 60.4813 220.414 60.8198C221.065 61.1584 221.853 61.3276 222.777 61.3276C223.715 61.3276 224.503 61.1584 225.141 60.8198C225.779 60.4813 226.26 59.9474 226.586 59.2183C226.911 58.4761 227.074 57.519 227.074 56.3472V37.7729ZM264.223 37.7729V66.2104H257.387L247.328 48.5151V66.2104H240.473V37.7729H247.328L257.387 55.4683V37.7729H264.223ZM291.82 51.0151V62.6948C291.339 63.2287 290.596 63.8016 289.594 64.4136C288.604 65.0125 287.354 65.5269 285.844 65.9565C284.333 66.3862 282.556 66.6011 280.512 66.6011C278.624 66.6011 276.911 66.3016 275.375 65.7026C273.839 65.0907 272.517 64.1987 271.41 63.0269C270.316 61.842 269.47 60.3966 268.871 58.6909C268.285 56.9722 267.992 55.006 267.992 52.7925V51.2104C267.992 48.9969 268.292 47.0308 268.891 45.312C269.49 43.5933 270.329 42.1479 271.41 40.9761C272.504 39.7912 273.786 38.8927 275.258 38.2808C276.742 37.6688 278.37 37.3628 280.141 37.3628C282.758 37.3628 284.887 37.7795 286.527 38.6128C288.168 39.4331 289.411 40.5724 290.258 42.0308C291.104 43.4761 291.618 45.1493 291.801 47.0503H285.219C285.089 46.1128 284.841 45.3185 284.477 44.6675C284.125 44.0034 283.617 43.5021 282.953 43.1636C282.289 42.812 281.43 42.6362 280.375 42.6362C279.555 42.6362 278.806 42.812 278.129 43.1636C277.465 43.5151 276.898 44.049 276.43 44.7651C275.961 45.4683 275.596 46.3537 275.336 47.4214C275.089 48.4891 274.965 49.7391 274.965 51.1714V52.7925C274.965 54.2118 275.082 55.4552 275.316 56.5229C275.564 57.5907 275.928 58.4826 276.41 59.1987C276.905 59.9019 277.53 60.4357 278.285 60.8003C279.053 61.1519 279.958 61.3276 281 61.3276C281.729 61.3276 282.354 61.269 282.875 61.1519C283.396 61.0216 283.826 60.8654 284.164 60.6831C284.516 60.4878 284.783 60.3055 284.965 60.1362V55.7222H280.199V51.0151H291.82Z" fill="url(#paint10_linear_1381_4217)"/>
<defs>
<linearGradient id="paint0_linear_1381_4217" x1="64.5679" y1="55.244" x2="8.78873" y2="-22.6653" gradientUnits="userSpaceOnUse">
<stop stop-color="#045304"/>
<stop offset="0.2428" stop-color="#1B6B06"/>
<stop offset="0.7517" stop-color="#55A70D"/>
<stop offset="1" stop-color="#73C710"/>
</linearGradient>
<linearGradient id="paint1_linear_1381_4217" x1="62.6184" y1="56.6395" x2="6.83904" y2="-21.2699" gradientUnits="userSpaceOnUse">
<stop stop-color="#045304"/>
<stop offset="0.2483" stop-color="#227307"/>
<stop offset="0.7572" stop-color="#5CAF0E"/>
<stop offset="1" stop-color="#73C710"/>
</linearGradient>
<linearGradient id="paint2_linear_1381_4217" x1="28.2257" y1="27.1323" x2="98.7264" y2="46.0719" gradientUnits="userSpaceOnUse">
<stop stop-color="#0131B8"/>
<stop offset="0.2837" stop-color="#0651C8"/>
<stop offset="0.9035" stop-color="#13A2F0"/>
<stop offset="1" stop-color="#15AFF7"/>
</linearGradient>
<linearGradient id="paint3_linear_1381_4217" x1="28.0216" y1="27.8922" x2="98.5223" y2="46.8319" gradientUnits="userSpaceOnUse">
<stop stop-color="#0131B8"/>
<stop offset="0.1738" stop-color="#0235BA"/>
<stop offset="0.3531" stop-color="#0442C0"/>
<stop offset="0.5349" stop-color="#0756CB"/>
<stop offset="0.7184" stop-color="#0B73D9"/>
<stop offset="0.9015" stop-color="#1198EB"/>
<stop offset="1" stop-color="#15AFF7"/>
</linearGradient>
<linearGradient id="paint4_linear_1381_4217" x1="5.4313" y1="21.1875" x2="61.2106" y2="99.0969" gradientUnits="userSpaceOnUse">
<stop stop-color="#0131B8"/>
<stop offset="0.2262" stop-color="#0549C4"/>
<stop offset="0.7006" stop-color="#0E86E2"/>
<stop offset="1" stop-color="#15AFF7"/>
</linearGradient>
<linearGradient id="paint5_linear_1381_4217" x1="7.38373" y1="19.7839" x2="63.163" y2="97.6934" gradientUnits="userSpaceOnUse">
<stop stop-color="#0131B8"/>
<stop offset="0.2685" stop-color="#0756CB"/>
<stop offset="0.7651" stop-color="#1196EA"/>
<stop offset="1" stop-color="#15AFF7"/>
</linearGradient>
<linearGradient id="paint6_linear_1381_4217" x1="41.775" y1="49.2967" x2="-28.7303" y2="30.3571" gradientUnits="userSpaceOnUse">
<stop stop-color="#045304"/>
<stop offset="0.3079" stop-color="#237307"/>
<stop offset="0.9813" stop-color="#71C510"/>
<stop offset="1" stop-color="#73C710"/>
</linearGradient>
<linearGradient id="paint7_linear_1381_4217" x1="41.9765" y1="48.5369" x2="-28.5288" y2="29.5972" gradientUnits="userSpaceOnUse">
<stop stop-color="#045304"/>
<stop offset="0.1804" stop-color="#085704"/>
<stop offset="0.3677" stop-color="#146406"/>
<stop offset="0.5581" stop-color="#287808"/>
<stop offset="0.7506" stop-color="#44950B"/>
<stop offset="0.9431" stop-color="#67BB0F"/>
<stop offset="1" stop-color="#73C710"/>
</linearGradient>
<linearGradient id="paint8_linear_1381_4217" x1="26.3877" y1="29.8637" x2="-4.01612" y2="3.65929" gradientUnits="userSpaceOnUse">
<stop stop-color="#045304"/>
<stop offset="0.413" stop-color="#2F8009"/>
<stop offset="1" stop-color="#73C710"/>
</linearGradient>
<linearGradient id="paint9_linear_1381_4217" x1="26.4976" y1="29.7417" x2="-1.83048" y2="5.7139" gradientUnits="userSpaceOnUse">
<stop stop-color="#045304"/>
<stop offset="0.5871" stop-color="#489A0B"/>
<stop offset="1" stop-color="#73C710"/>
</linearGradient>
<linearGradient id="paint10_linear_1381_4217" x1="190" y1="38.2104" x2="190" y2="66.2104" gradientUnits="userSpaceOnUse">
<stop stop-color="#008ED4"/>
<stop offset="1" stop-color="#04324D"/>
</linearGradient>
</defs>
</svg>
