<?xml version="1.0" encoding="UTF-8" standalone="no"?>
<svg
   xmlns:dc="http://purl.org/dc/elements/1.1/"
   xmlns:cc="http://creativecommons.org/ns#"
   xmlns:rdf="http://www.w3.org/1999/02/22-rdf-syntax-ns#"
   xmlns:svg="http://www.w3.org/2000/svg"
   xmlns="http://www.w3.org/2000/svg"
   viewBox="0 0 190.66667 102.58667"
   height="102.58667"
   width="190.66667"
   xml:space="preserve"
   id="svg2"
   version="1.1"><metadata
     id="metadata8"><rdf:RDF><cc:Work
         rdf:about=""><dc:format>image/svg+xml</dc:format><dc:type
           rdf:resource="http://purl.org/dc/dcmitype/StillImage" /></cc:Work></rdf:RDF></metadata><defs
     id="defs6"><clipPath
       id="clipPath20"
       clipPathUnits="userSpaceOnUse"><path
         id="path18"
         d="m 0,0 v 0 765.652 h 922.051 c -4.77,-1.453 -9.207,-4.172 -11.946,-8.355 -2.007,-3.09 -2,-6.281 -0.808,-9.094 -0.27,0.012 -0.539,0.02 -0.809,0.02 -1.402,0 -2.804,-0.172 -4.125,-0.5 -3.789,-0.953 -7.261,-3.414 -8.484,-7.246 l -0.078,-0.36 c -4.258,2.586 -9.039,4.117 -14.16,4.117 -1.411,0 -2.848,-0.113 -4.305,-0.359 -8.789,-1.453 -19.777,-11.102 -15.832,-20.703 3.105,-7.574 13.789,-11.668 21.316,-12.363 0.899,-0.082 1.821,-0.121 2.758,-0.121 5.145,0 10.887,1.203 16.375,3.218 4.192,-7.75 15.117,-10.976 24.262,-10.976 1.015,0 2.012,0.039 2.973,0.117 6.574,0.547 16.378,4.051 23.175,9.617 4.758,-4.043 10.457,-6.519 16.629,-6.519 3.203,0 6.531,0.664 9.926,2.128 3.77,1.641 6.465,4.168 7.781,7.579 2.028,-0.606 4.223,-0.883 6.418,-0.887 3.801,0 7.603,0.836 10.563,2.25 3.98,1.906 11.09,7.902 5.77,12.453 -2.21,1.883 -5.35,2.367 -8.52,2.367 -0.58,0 -1.164,-0.015 -1.742,-0.043 1.672,3.438 1.562,7.305 -1.551,11.055 -4.168,5 -10.942,6.441 -17.426,6.441 -2.141,0 -4.25,-0.16 -6.227,-0.398 -5.488,-0.652 -10.39,-2.887 -14.589,-6.121 -0.184,1.492 -0.547,2.949 -1.192,4.297 -2.164,4.589 -6.312,6.355 -10.867,6.355 -0.195,0 -0.391,0 -0.59,-0.008 -0.215,1.543 -0.613,3.047 -1.308,4.426 -1.883,3.75 -4.868,6.25 -8.395,7.613 H 1430 v -25.558 c -4.68,6.226 -12.21,8.383 -19.7,8.383 -2.04,0 -4.08,-0.161 -6.05,-0.442 -9.76,-1.394 -19.76,-6.902 -25.47,-14.988 -1.27,-1.789 -2.06,-3.758 -2.42,-5.762 -5.35,3.871 -12.8,5.274 -19.15,5.274 -0.08,0 -0.17,0 -0.26,0 -10.09,-0.047 -22.8,-3.575 -27.53,-13.36 -1.31,-2.722 -1.49,-5.683 -0.83,-8.379 -2.15,1.375 -4.6,2.02 -7.07,2.02 -3.31,0 -6.64,-1.16 -9.3,-3.262 -0.61,1.418 -1.39,2.836 -2.36,4.223 -5.07,7.285 -14.95,9.094 -23.73,9.094 -2.13,0 -4.19,-0.106 -6.11,-0.266 -11.13,-0.91 -38,-10.063 -41.08,-23.566 -0.97,0.8 -2.05,1.453 -3.24,1.894 -0.9,0.328 -1.82,0.481 -2.74,0.481 -4.47,0 -8.77,-3.629 -9.55,-8.125 l -0.06,-0.508 c -4.2,0.609 -8.44,0.953 -12.65,0.953 -13.56,0 -26.75,-3.598 -37.05,-13.57 -9.19,-8.926 -4.74,-18.77 5.27,-24.165 11.92,-6.425 26.88,-8.511 40.22,-9.304 1.29,-0.074 2.58,-0.11 3.87,-0.11 9.74,0 19.61,2.02 28.98,4.211 1.19,0.274 2.41,0.567 3.65,0.868 5.59,-8.047 21.33,-9.989 30.14,-10.067 0.43,-0.004 0.86,-0.008 1.3,-0.008 10.87,0 24.99,1.547 36.47,6.512 7.61,-7.652 19.09,-11.152 30.05,-11.152 0.05,0 0.09,0 0.14,0 7.96,0.019 17.72,2.879 25,8.23 7.12,-4.156 16.14,-5.894 24.41,-5.894 2.95,0 5.8,0.222 8.44,0.632 6.45,1.004 12.64,2.879 18.41,5.762 V 402.016 c -0.3,0.023 -0.59,0.035 -0.89,0.035 -2.14,0 -4.19,-0.602 -6.01,-1.629 1.12,6.746 -6.31,10.711 -11.81,11.519 -1.1,0.161 -2.28,0.247 -3.5,0.247 -4.51,0 -9.5,-1.184 -12.61,-4.161 -1.84,-1.757 -2.41,-3.691 -2.11,-5.468 -0.44,0.07 -0.87,0.105 -1.29,0.105 -1.86,0 -3.64,-0.648 -5.18,-1.695 -0.64,1.121 -1.42,2.136 -2.32,2.918 -2.88,2.519 -6.13,3.84 -9.47,4.179 -1.31,4.485 -5.01,8.008 -8.97,10.586 -4.79,3.106 -10.59,4.621 -16.4,4.621 -3.4,0 -6.81,-0.519 -10.03,-1.543 -0.59,1.208 -1.34,2.372 -2.26,3.438 -3.42,3.906 -8.46,5.566 -13.51,5.566 -2.31,0 -4.63,-0.347 -6.79,-0.988 -2.05,-0.605 -3.92,-1.516 -5.7,-2.629 -17.26,-2.937 -29.01,-17.207 -28.56,-35.359 0.23,-9.59 4.71,-20.235 13.9,-24.297 1.35,-0.602 2.77,-0.863 4.21,-0.863 1.07,0 2.17,0.144 3.26,0.406 l 0.13,-0.039 c 1.96,-1.551 4.46,-2.453 7.04,-2.453 0.91,0 1.83,0.113 2.74,0.351 2.66,0.696 4.7,2.508 5.91,4.793 7.3,-5.187 17.76,-6.758 26.62,-6.758 1.32,0 2.62,0.036 3.85,0.098 6.6,0.356 12.64,2.348 18.09,6.067 l 1.18,0.871 c 4.22,-2.496 9.7,-3.571 14.47,-3.571 1.12,0 2.19,0.059 3.21,0.168 3.01,0.332 6.17,1.535 8.27,3.789 4.21,-2.859 10.21,-3.945 15.35,-3.945 1.65,0 3.22,0.113 4.61,0.313 5.29,0.781 10.85,3.679 14.57,7.835 v -30.793 -5.097 c -6.44,1.98 -13.62,3.168 -21.67,3.168 -5.68,0 -11.8,-0.59 -18.41,-1.918 -49.06,-9.863 -52.5,-61.668 -52.5,-61.668 0,0 -9.44,13.168 -27.8,13.168 -3.79,0 -7.96,-0.563 -12.51,-1.918 -31.04,-9.25 -28.44,-37.285 -28.44,-37.285 0,0 -5.94,27.183 -30.94,29.683 -2.17,0.219 -4.21,0.321 -6.11,0.321 -20.03,0 -25.76,-10.946 -25.76,-10.946 13.97,29.895 -5.11,50.567 -24.1,50.567 -5.22,0 -10.44,-1.567 -14.96,-4.942 -17.91,-13.355 -11.59,-38.203 -10.73,-41.25 l 0.1,-0.308 c 0,0 -14.94,23.816 -42,23.816 -4.25,0 -8.79,-0.586 -13.62,-1.941 -35.63,-10 -35.63,-39.067 -35.63,-39.067 0,0 -0.08,0.825 -0.33,2.18 -1.09,5.859 -5.59,21.672 -22.17,23.445 -1.28,0.141 -2.51,0.203 -3.69,0.203 -0.65,0 -1.29,-0.019 -1.91,-0.054 -11.38,-0.625 -17.8,-6.934 -18.67,-7.848 5.6,6.02 8.91,13 10.38,20.238 6.88,27.102 -8.51,58.043 -39.296,58.043 -1.675,0 -3.386,-0.09 -5.152,-0.277 -34.98,-3.328 -38.32,-39.93 -38.34,-39.988 -0.058,0.086 -18.476,20.593 -46.621,20.965 -0.266,0.003 -0.531,0.003 -0.797,0.003 -7.691,0 -16.074,-1.511 -25.004,-5.343 -29.023,-12.461 -35.996,-39.2 -37.519,-54.7 -0.684,-7.042 -0.254,-11.765 -0.254,-11.765 -3.34,15.308 -13.75,31.59 -30.547,35.137 -2.203,0.464 -4.504,0.707 -6.918,0.707 -0.219,0 -0.437,0 -0.66,-0.004 -20.606,-0.41 -33.32,-14.153 -33.34,-14.172 v 0.012 c -0.035,0.152 -14.809,58.945 -65.246,58.945 -7.223,0 -15.168,-1.203 -23.914,-3.957 -46.668,-14.695 -50.625,-76.77 -50.625,-76.77 0,0 -10,31.25 -44.375,32.297 -0.676,0.02 -1.348,0.031 -2.004,0.031 -36.898,0 -43.836,-31.703 -43.836,-31.703 -10.832,30.336 -45.445,58.789 -79.441,58.789 -5.231,0 -10.446,-0.672 -15.559,-2.117 -38.34,-10.832 -42.5,-48.34 -42.5,-48.34 -8.394,2.797 -16.004,3.887 -22.742,3.887 -23.375,0 -36.418,-13.047 -36.418,-13.047 16.066,36.727 -9.317,77.668 -45.832,77.668 -3.254,0 -6.598,-0.324 -10.008,-1.008 -41.672,-8.34 -42.5,-64.16 -42.5,-64.16 0,0 -19.547,34.742 -57.949,34.742 -2.805,0 -5.707,-0.183 -8.711,-0.582 -44.168,-5.84 -51.875,-46.355 -51.875,-46.355 -3.352,15.308 -13.762,31.59 -30.547,35.137 -2.2031,0.464 -4.5039,0.707 -6.918,0.707 -0.2187,0 -0.4375,0 -0.6601,-0.004 -20.6055,-0.41 -33.3203,-14.153 -33.3399,-14.172 v 0.012 C 49.0508,285.027 38.418,326.785 0,338.633 V 0 m 31.7188,380.496 c 3.0273,-1.324 6.3281,-2.262 9.1992,-3.133 5.5976,-1.718 11.5234,-2.55 17.3437,-3.097 3.3164,-0.313 6.6602,-0.446 10.0078,-0.446 2.4688,0 4.9375,0.075 7.3946,0.196 4.5429,0.203 9.0625,0.144 12.957,2.742 1.2539,0.84 1.6797,2.988 0.6367,4.148 -3.6015,4.004 -9.1758,5.071 -14.9805,5.071 -1.1796,0 -2.371,-0.043 -3.5546,-0.118 C 69.6758,394.59 44.7266,399.922 30,400.93 c -1.7266,0.117 -3.3203,0.179 -4.7148,0.179 -1.5782,0 -2.9102,-0.078 -3.8985,-0.242 -5.5273,-0.91 -9.8554,-3.375 -10.2851,-3.375 -0.0118,0 -0.0235,0.004 -0.0274,0.008 -3.00779,2.297 -6.83592,3.84 -10.01951,4.387 C 0.703125,401.945 0.351563,401.988 0,402.016 v -27.493 c 1.26172,1.411 2.31641,2.965 3.07422,4.629 5.52734,-2.73 12.13668,-4.211 17.81638,-4.211 0.0742,0 0.1485,0 0.2227,0 3.25,0.02 6.6094,0.829 8.8867,3.184 l 1.0078,1.055 0.711,1.316 m 241.8672,79.301 c 4.973,-9.199 17.945,-13.031 28.797,-13.031 1.211,0 2.39,0.047 3.535,0.136 7.805,0.649 19.441,4.809 27.512,11.418 5.648,-4.8 12.414,-7.742 19.738,-7.742 3.801,0 7.754,0.793 11.781,2.527 4.485,1.946 7.68,4.954 9.25,8.993 2.406,-0.715 5.008,-1.047 7.61,-1.047 4.515,0 9.039,0.992 12.554,2.672 4.719,2.261 13.164,9.382 6.86,14.785 -2.629,2.234 -6.375,2.812 -10.137,2.812 -0.688,0 -1.371,-0.019 -2.055,-0.05 1.977,4.082 1.86,8.671 -1.843,13.125 -4.958,5.933 -13,7.644 -20.704,7.644 -2.539,0 -5.039,-0.187 -7.382,-0.469 -6.512,-0.781 -12.336,-3.433 -17.317,-7.273 -0.23,1.777 -0.652,3.508 -1.426,5.105 -2.562,5.453 -7.48,7.551 -12.89,7.551 -0.235,0 -0.465,-0.004 -0.703,-0.012 -0.25,1.829 -0.731,3.618 -1.563,5.247 -3.617,7.222 -10.687,10.542 -18.348,10.542 -1.062,0 -2.136,-0.066 -3.21,-0.191 -7.805,-0.93 -15.969,-4.473 -20.391,-11.23 -2.387,-3.661 -2.363,-7.45 -0.957,-10.793 -0.313,0.015 -0.621,0.023 -0.93,0.023 -1.676,0 -3.347,-0.199 -4.929,-0.59 -4.497,-1.14 -8.625,-4.058 -10.071,-8.601 l -0.09,-0.43 c -5.058,3.07 -10.746,4.887 -16.828,4.887 -1.672,0 -3.375,-0.137 -5.101,-0.422 -10.434,-1.731 -23.481,-13.188 -18.789,-24.582 3.679,-9.004 16.367,-13.86 25.308,-14.688 1.063,-0.097 2.153,-0.144 3.262,-0.144 6.109,0 12.93,1.429 19.457,3.828 m 758.264,2.93 c 0.94,-2.192 2.69,-3.997 5.12,-4.836 1.06,-0.36 2.15,-0.532 3.23,-0.532 2.12,0 4.21,0.653 5.91,1.813 l 0.13,0.016 c 1.24,-0.395 2.49,-0.618 3.73,-0.618 1.07,0 2.14,0.168 3.18,0.539 8.75,3.118 13.62,12.629 14.48,21.438 1.66,16.719 -8.2,30.676 -23.9,34.551 -1.57,1.152 -3.25,2.121 -5.08,2.812 -2.42,0.914 -5.09,1.434 -7.74,1.434 -4.15,0 -8.26,-1.27 -11.3,-4.278 -0.91,-0.914 -1.68,-1.921 -2.32,-3.003 -3.59,1.441 -7.51,2.191 -11.4,2.191 -4.6,0 -9.179,-1.047 -13.156,-3.231 -3.847,-2.109 -7.492,-5.093 -8.996,-9.128 -3.113,-0.086 -6.187,-1.082 -9.031,-3.211 -0.859,-0.664 -1.66,-1.536 -2.324,-2.551 -1.477,1.191 -3.238,1.941 -5.137,1.941 -0.234,0 -0.473,-0.011 -0.715,-0.039 0.383,1.633 0,3.457 -1.57,5.195 -3.055,3.379 -8.488,4.774 -13.07,4.774 -0.52,0 -1.028,-0.02 -1.52,-0.055 -5.117,-0.371 -12.266,-3.508 -11.68,-9.812 -1.816,1.222 -3.945,1.941 -6.211,1.941 -0.335,0 -0.679,-0.015 -1.027,-0.051 -2.969,-0.281 -6.601,-1.441 -9.527,-3.355 -0.004,-0.004 -0.012,-0.008 -0.02,-0.008 -0.336,0 -4.191,2.59 -9.25,3.813 -1.777,0.425 -4.769,0.652 -8.398,0.652 -13.707,0 -36.574,-3.223 -38.125,-11.117 -2,0.269 -4.024,0.457 -5.988,0.457 -4.352,0 -8.434,-0.906 -11.415,-3.75 -1.054,-0.996 -0.792,-3.02 0.301,-3.86 3.399,-2.664 7.571,-2.937 11.75,-3.445 4.762,-0.574 9.563,-0.965 14.352,-0.965 0.574,0 1.148,0.004 1.722,0.02 5.403,0.125 10.911,0.476 16.2,1.679 2.707,0.606 5.785,1.258 8.691,2.274 l 0.559,-1.277 c 1.789,-3.176 5.379,-4.297 8.816,-4.59 0.844,-0.071 1.711,-0.106 2.594,-0.106 4.668,0 9.84,0.946 14.32,2.762 2.348,-6.262 8.957,-11.242 15.434,-12.688 1.949,-0.433 4.301,-0.699 6.761,-0.699 4.106,0 8.512,0.742 11.887,2.684 1.77,-2.219 4.602,-3.559 7.336,-4.055 1.598,-0.297 3.375,-0.461 5.215,-0.461 3.832,0 7.941,0.707 11.328,2.387 l 1.035,-0.883 c 4.754,-3.805 10.196,-6.055 16.269,-6.812 2.63,-0.34 5.53,-0.555 8.52,-0.555 6.92,0 14.33,1.152 20.03,4.598 M 491.887,618.672 c 1.265,-7.266 17.926,-11.602 23.316,-12.41 4.742,-0.707 10.598,-1.262 16.735,-1.262 11.507,0 24.019,1.945 32.093,8.469 7.055,-2.75 15,-3.965 22.582,-3.965 2.875,0 5.696,0.172 8.399,0.508 4.707,0.574 10.758,2.449 15.957,5.484 3.097,-1.43 6.449,-2.183 9.804,-2.183 4.243,0 8.5,1.199 12.301,3.746 1.821,1.234 3.614,2.968 5.156,5.031 6.602,-0.988 13.153,-1.414 19.708,-1.414 9.191,0 18.398,0.84 27.792,2.156 8.555,1.199 39.614,4.211 37.305,15.731 -2.183,10.957 -22.265,13.593 -31.363,14.484 l -2.207,0.176 c 11.953,2.863 13.047,15.461 -1.684,19.668 -14.765,4.218 -24.082,5.175 -35.664,5.605 -4.418,0.168 -8.562,0.285 -12.676,0.285 -11.117,0 -21.992,-0.867 -37.363,-3.996 -1.598,2.695 -4.297,4.953 -8.238,6.348 -2.969,1.043 -6.258,1.539 -9.641,1.539 -6.199,0 -12.715,-1.668 -18.136,-4.715 0.136,6.621 -2.77,12.309 -9.333,14.848 -1.742,0.672 -3.527,0.98 -5.296,0.98 -6.036,0 -11.918,-3.578 -15.407,-8.441 -1.269,-1.77 -2.265,-4.211 -2.675,-6.672 -1.68,0.574 -3.407,0.844 -5.118,0.844 -5.129,0 -10.074,-2.442 -12.875,-6.461 -1.035,2.797 -2.871,5.316 -5.742,7.363 -5.644,4.062 -13.683,4.992 -20.996,4.992 -2.144,0 -4.226,-0.082 -6.172,-0.183 -8.008,-0.434 -34.746,-7.016 -31.304,-18.274 -1.465,0.344 -2.911,0.567 -4.321,0.567 -0.039,0 -0.082,0 -0.121,0 -5.156,0 -7.91,-2.997 -8.551,-6.551 -2.793,0.285 -5.617,0.429 -8.441,0.429 -12.336,0 -24.734,-2.761 -35.285,-8.625 -13.078,-7.277 -12.563,-20.019 -0.942,-28.3 6.426,-4.578 14.789,-6.524 22.356,-8.223 10.633,-2.391 21.301,-4.043 32.207,-4.23 0.57,-0.008 1.148,-0.012 1.723,-0.012 13.867,0 28.16,2.793 42.117,6.664 M 0,740.094 v -94.391 c 2.21094,1.106 4.36328,2.36 6.44531,3.77 1.11328,0.769 2.34375,1.687 3.55469,2.668 l 0.3594,0.269 c 10.3711,-2.586 21.082,-3.621 31.8515,-3.625 12.8516,0 25.7891,1.481 38.3477,3.57 16.375,2.715 33.9644,6.793 48.0744,15.907 13.008,8.418 15.676,24.551 1.562,33.644 -8.3,5.352 -19.863,5.692 -29.386,5.848 l -1.1996,0.031 c -8.7227,11.09 -26.8008,17.117 -43.586,17.117 -13.9921,0 -27.082,-4.187 -33.1132,-13.113 -1.7969,4.344 -4.9024,8.106 -9.2774,10.379 -1.1797,0.625 -2.4023,0.988 -3.6328,1.328 -1.64062,0.438 -3.30078,0.727 -4.96094,0.727 -0.19531,0 -0.39062,-0.004 -0.58593,-0.012 0.41015,5.191 -0.89844,10.652 -3.855474,15.047 C 0.402344,739.547 0.203125,739.824 0,740.094" /></clipPath><linearGradient
       id="linearGradient28"
       spreadMethod="pad"
       gradientTransform="matrix(-3.97e-5,908.652,908.652,3.97e-5,715,-159.238)"
       gradientUnits="userSpaceOnUse"
       y2="0"
       x2="1"
       y1="0"
       x1="0"><stop
         id="stop22"
         offset="0"
         style="stop-opacity:1;stop-color:#effafd" /><stop
         id="stop24"
         offset="0.673788"
         style="stop-opacity:1;stop-color:#5acaf2" /><stop
         id="stop26"
         offset="1"
         style="stop-opacity:1;stop-color:#5197d8" /></linearGradient><clipPath
       id="clipPath38"
       clipPathUnits="userSpaceOnUse"><path
         id="path36"
         d="m 0,0 v 0 338.633 c 38.418,-11.848 49.0508,-53.606 49.082,-53.738 v -0.012 c 0.0196,0.019 12.7344,13.762 33.3399,14.172 0.2226,0.004 0.4414,0.004 0.6601,0.004 2.4141,0 4.7149,-0.243 6.918,-0.707 16.785,-3.547 27.195,-19.829 30.547,-35.137 0,0 7.707,40.515 51.875,46.355 3.004,0.399 5.906,0.582 8.711,0.582 38.402,0 57.949,-34.742 57.949,-34.742 0,0 0.828,55.82 42.5,64.16 3.41,0.684 6.754,1.008 10.008,1.008 36.515,0 61.898,-40.941 45.832,-77.668 0,0 13.043,13.047 36.418,13.047 6.738,0 14.348,-1.09 22.742,-3.887 0,0 4.16,37.508 42.5,48.34 5.113,1.445 10.328,2.117 15.559,2.117 33.996,0 68.609,-28.453 79.441,-58.789 0,0 6.938,31.703 43.836,31.703 0.656,0 1.328,-0.011 2.004,-0.031 34.375,-1.047 44.375,-32.297 44.375,-32.297 0,0 3.957,62.075 50.625,76.77 8.746,2.754 16.691,3.957 23.914,3.957 50.437,0 65.211,-58.793 65.246,-58.945 v -0.012 c 0.02,0.019 12.734,13.762 33.34,14.172 0.223,0.004 0.441,0.004 0.66,0.004 2.414,0 4.715,-0.243 6.918,-0.707 16.797,-3.547 27.207,-19.829 30.547,-35.137 0,0 -0.43,4.723 0.254,11.765 1.523,15.5 8.496,42.239 37.519,54.7 8.93,3.832 17.313,5.343 25.004,5.343 0.266,0 0.531,0 0.797,-0.003 28.145,-0.372 46.563,-20.879 46.621,-20.965 0.02,0.058 3.36,36.66 38.34,39.988 1.766,0.187 3.477,0.277 5.152,0.277 30.786,0 46.176,-30.941 39.296,-58.043 -1.47,-7.238 -4.78,-14.218 -10.38,-20.238 0.87,0.914 7.29,7.223 18.67,7.848 0.62,0.035 1.26,0.054 1.91,0.054 1.18,0 2.41,-0.062 3.69,-0.203 16.58,-1.773 21.08,-17.586 22.17,-23.445 0.25,-1.355 0.33,-2.18 0.33,-2.18 0,0 0,29.067 35.63,39.067 4.83,1.355 9.37,1.941 13.62,1.941 27.06,0 42,-23.816 42,-23.816 l -0.1,0.308 c -0.86,3.047 -7.18,27.895 10.73,41.25 4.52,3.375 9.74,4.942 14.96,4.942 18.99,0 38.07,-20.672 24.1,-50.567 0,0 5.73,10.946 25.76,10.946 1.9,0 3.94,-0.102 6.11,-0.321 25,-2.5 30.94,-29.683 30.94,-29.683 0,0 -2.6,28.035 28.44,37.285 4.55,1.355 8.72,1.918 12.51,1.918 18.36,0 27.8,-13.168 27.8,-13.168 0,0 3.44,51.805 52.5,61.668 6.61,1.328 12.73,1.918 18.41,1.918 8.05,0 15.23,-1.188 21.67,-3.168 V 212.52 c -2.2,0.464 -4.5,0.71 -6.91,0.71 -0.22,0 -0.45,-0.003 -0.67,-0.007 -20.6,-0.41 -33.32,-14.153 -33.34,-14.168 v 0.008 c -0.03,0.16 -14.27,56.968 -70.27,56.968 -5.83,0 -12.12,-0.617 -18.89,-1.976 -49.06,-9.867 -52.5,-61.672 -52.5,-61.672 0,0 -9.45,13.168 -27.8,13.168 -3.79,0 -7.96,-0.563 -12.51,-1.918 -31.04,-9.246 -28.44,-37.285 -28.44,-37.285 0,0 -5.94,27.187 -30.94,29.687 -2.17,0.219 -4.21,0.317 -6.11,0.317 -20.03,0 -25.76,-10.942 -25.76,-10.942 13.97,29.891 -5.11,50.567 -24.1,50.567 -5.22,0 -10.44,-1.567 -14.96,-4.942 -17.91,-13.359 -11.59,-38.203 -10.73,-41.25 l 0.1,-0.312 c 0,0 -14.94,23.816 -42,23.816 -4.25,0 -8.79,-0.586 -13.62,-1.941 -35.628,-10 -35.628,-39.063 -35.628,-39.063 0,0 -0.078,0.82 -0.332,2.18 -1.094,5.855 -5.586,21.668 -22.168,23.445 -1.285,0.141 -2.512,0.199 -3.695,0.199 -0.649,0 -1.286,-0.019 -1.911,-0.05 -11.375,-0.625 -17.793,-6.938 -18.668,-7.852 5.602,6.02 8.911,13.004 10.387,20.242 6.871,27.102 -8.519,58.043 -39.301,58.043 -1.675,0 -3.386,-0.09 -5.152,-0.277 -34.98,-3.332 -38.32,-39.934 -38.34,-39.992 -0.058,0.09 -18.476,20.593 -46.621,20.968 -0.266,0 -0.527,0.004 -0.793,0.004 -7.695,0 -16.078,-1.515 -25.008,-5.347 -29.023,-12.461 -35.996,-39.2 -37.519,-54.7 -0.684,-7.039 -0.254,-11.765 -0.254,-11.765 -3.34,15.312 -13.75,31.59 -30.547,35.137 -2.199,0.464 -4.5,0.71 -6.914,0.71 -0.219,0 -0.441,-0.003 -0.664,-0.007 -20.606,-0.41 -33.32,-14.153 -33.34,-14.168 v 0.008 c -0.035,0.152 -14.809,58.949 -65.246,58.949 -7.223,0 -15.168,-1.203 -23.914,-3.957 -46.668,-14.7 -50.625,-76.77 -50.625,-76.77 0,0 -10,31.25 -44.375,32.293 -0.676,0.024 -1.344,0.031 -2.004,0.031 -36.898,0 -43.836,-31.699 -43.836,-31.699 -10.832,30.332 -45.445,58.789 -79.441,58.789 -5.231,0 -10.446,-0.676 -15.559,-2.121 -38.34,-10.828 -42.5,-48.34 -42.5,-48.34 -8.394,2.801 -16.004,3.887 -22.742,3.887 -23.375,0 -36.418,-13.047 -36.418,-13.047 16.066,36.727 -9.317,77.668 -45.832,77.668 -3.254,0 -6.598,-0.324 -10.008,-1.008 -41.672,-8.336 -42.5,-64.16 -42.5,-64.16 0,0 -19.543,34.746 -57.9492,34.746 -2.8047,0 -5.707,-0.187 -8.7109,-0.586 -44.168,-5.84 -51.875,-46.355 -51.875,-46.355 C 27.1953,192.695 16.7891,208.973 0,212.52 V 0" /></clipPath><linearGradient
       id="linearGradient46"
       spreadMethod="pad"
       gradientTransform="matrix(-3.97e-5,908.652,908.652,3.97e-5,715,-159.238)"
       gradientUnits="userSpaceOnUse"
       y2="0"
       x2="1"
       y1="0"
       x1="0"><stop
         id="stop40"
         offset="0"
         style="stop-opacity:1;stop-color:#f2fbfd" /><stop
         id="stop42"
         offset="0.673788"
         style="stop-opacity:1;stop-color:#86d8ee" /><stop
         id="stop44"
         offset="1"
         style="stop-opacity:1;stop-color:#70c7f0" /></linearGradient><clipPath
       id="clipPath56"
       clipPathUnits="userSpaceOnUse"><path
         id="path54"
         d="M 1430,0 H 0 v 212.52 c 16.7891,-3.547 27.1953,-19.825 30.5469,-35.137 0,0 7.707,40.515 51.875,46.355 3.0039,0.399 5.9062,0.586 8.7109,0.586 38.4062,0 57.9492,-34.746 57.9492,-34.746 0,0 0.828,55.824 42.5,64.16 3.41,0.684 6.754,1.008 10.008,1.008 36.515,0 61.898,-40.941 45.832,-77.668 0,0 13.043,13.047 36.418,13.047 6.738,0 14.348,-1.086 22.742,-3.887 0,0 4.16,37.512 42.5,48.34 5.113,1.445 10.328,2.121 15.559,2.121 33.996,0 68.609,-28.457 79.441,-58.789 0,0 6.938,31.699 43.836,31.699 0.66,0 1.328,-0.007 2.004,-0.031 34.375,-1.043 44.375,-32.293 44.375,-32.293 0,0 3.957,62.07 50.625,76.77 8.746,2.754 16.691,3.957 23.914,3.957 50.437,0 65.211,-58.797 65.246,-58.949 v -0.008 c 0.02,0.015 12.734,13.758 33.34,14.168 0.223,0.004 0.445,0.007 0.664,0.007 2.414,0 4.715,-0.246 6.914,-0.71 16.797,-3.547 27.207,-19.825 30.547,-35.137 0,0 -0.43,4.726 0.254,11.765 1.523,15.5 8.496,42.239 37.519,54.7 8.93,3.832 17.313,5.347 25.008,5.347 0.266,0 0.527,-0.004 0.793,-0.004 28.145,-0.375 46.563,-20.878 46.621,-20.968 0.02,0.058 3.36,36.66 38.34,39.992 1.766,0.187 3.477,0.277 5.152,0.277 30.782,0 46.172,-30.941 39.301,-58.043 -1.476,-7.238 -4.785,-14.222 -10.387,-20.242 0.875,0.914 7.293,7.227 18.668,7.852 0.625,0.031 1.262,0.05 1.911,0.05 1.183,0 2.41,-0.058 3.695,-0.199 16.582,-1.777 21.074,-17.59 22.168,-23.445 0.254,-1.36 0.332,-2.18 0.332,-2.18 0,0 0,29.063 35.628,39.063 4.83,1.355 9.37,1.941 13.62,1.941 27.06,0 42,-23.816 42,-23.816 l -0.1,0.312 c -0.86,3.047 -7.18,27.891 10.73,41.25 4.52,3.375 9.74,4.942 14.96,4.942 18.99,0 38.07,-20.676 24.1,-50.567 0,0 5.73,10.942 25.76,10.942 1.9,0 3.94,-0.098 6.11,-0.317 25,-2.5 30.94,-29.687 30.94,-29.687 0,0 -2.6,28.039 28.44,37.285 4.55,1.355 8.72,1.918 12.51,1.918 18.35,0 27.8,-13.168 27.8,-13.168 0,0 3.44,51.805 52.5,61.672 6.77,1.359 13.06,1.976 18.89,1.976 56,0 70.24,-56.808 70.27,-56.968 v -0.008 c 0.02,0.015 12.74,13.758 33.34,14.168 0.22,0.004 0.45,0.007 0.67,0.007 2.41,0 4.71,-0.246 6.91,-0.71 L 1430,0" /></clipPath><linearGradient
       id="linearGradient64"
       spreadMethod="pad"
       gradientTransform="matrix(-3.97e-5,908.652,908.652,3.97e-5,715,-159.238)"
       gradientUnits="userSpaceOnUse"
       y2="0"
       x2="1"
       y1="0"
       x1="0"><stop
         id="stop58"
         offset="0"
         style="stop-opacity:1;stop-color:#f5fcfc" /><stop
         id="stop60"
         offset="0.673788"
         style="stop-opacity:1;stop-color:#ace4f1" /><stop
         id="stop62"
         offset="1"
         style="stop-opacity:1;stop-color:#9adff9" /></linearGradient><clipPath
       id="clipPath76"
       clipPathUnits="userSpaceOnUse"><path
         id="path74"
         d="m 1040.2,457.359 c -1.08,0 -2.17,0.172 -3.23,0.532 -2.43,0.839 -4.18,2.644 -5.12,4.836 -5.7,-3.446 -13.11,-4.598 -20.03,-4.598 -2.99,0 -5.89,0.215 -8.52,0.555 -6.073,0.757 -11.515,3.007 -16.269,6.812 l -1.035,0.883 c -3.387,-1.68 -7.496,-2.387 -11.328,-2.387 -1.84,0 -3.617,0.164 -5.215,0.461 -2.734,0.496 -5.566,1.836 -7.336,4.055 -3.375,-1.942 -7.781,-2.684 -11.887,-2.684 -2.46,0 -4.812,0.266 -6.761,0.699 -6.477,1.446 -13.086,6.426 -15.434,12.688 -4.48,-1.816 -9.652,-2.762 -14.32,-2.762 -0.883,0 -1.75,0.035 -2.594,0.106 -3.437,0.293 -7.027,1.414 -8.816,4.59 l -0.559,1.277 c -2.906,-1.016 -5.984,-1.668 -8.691,-2.274 -5.289,-1.203 -10.797,-1.554 -16.2,-1.679 -0.574,-0.016 -1.148,-0.02 -1.722,-0.02 -4.789,0 -9.59,0.391 -14.352,0.965 -4.179,0.508 -8.351,0.781 -11.75,3.445 -1.093,0.84 -1.355,2.864 -0.301,3.86 2.981,2.844 7.063,3.75 11.415,3.75 1.964,0 3.988,-0.188 5.988,-0.457 1.551,7.894 24.418,11.117 38.125,11.117 3.629,0 6.621,-0.227 8.398,-0.652 5.059,-1.223 8.914,-3.813 9.25,-3.813 0.008,0 0.016,0.004 0.02,0.008 2.926,1.914 6.558,3.074 9.527,3.355 0.348,0.036 0.692,0.051 1.027,0.051 2.266,0 4.395,-0.719 6.211,-1.941 -0.586,6.304 6.563,9.441 11.68,9.812 0.492,0.035 1,0.055 1.52,0.055 4.582,0 10.015,-1.395 13.07,-4.774 1.57,-1.738 1.953,-3.562 1.57,-5.195 0.242,0.028 0.481,0.039 0.715,0.039 1.899,0 3.66,-0.75 5.137,-1.941 0.664,1.015 1.465,1.887 2.324,2.551 2.844,2.129 5.918,3.125 9.031,3.211 1.504,4.035 5.149,7.019 8.996,9.128 3.977,2.184 8.556,3.231 13.156,3.231 3.89,0 7.81,-0.75 11.4,-2.191 0.64,1.082 1.41,2.089 2.32,3.003 3.04,3.008 7.15,4.278 11.3,4.278 2.65,0 5.32,-0.52 7.74,-1.434 1.83,-0.691 3.51,-1.66 5.08,-2.812 15.7,-3.875 25.56,-17.832 23.9,-34.551 -0.86,-8.809 -5.73,-18.32 -14.48,-21.438 -1.04,-0.371 -2.11,-0.539 -3.18,-0.539 -1.24,0 -2.49,0.223 -3.73,0.618 l -0.13,-0.016 c -1.7,-1.16 -3.79,-1.813 -5.91,-1.813" /></clipPath><linearGradient
       id="linearGradient84"
       spreadMethod="pad"
       gradientTransform="matrix(-3.97e-5,908.652,908.652,3.97e-5,715,-159.238)"
       gradientUnits="userSpaceOnUse"
       y2="0"
       x2="1"
       y1="0"
       x1="0"><stop
         id="stop78"
         offset="0"
         style="stop-opacity:1;stop-color:#f8fdfe" /><stop
         id="stop80"
         offset="0.673788"
         style="stop-opacity:1;stop-color:#99deef" /><stop
         id="stop82"
         offset="1"
         style="stop-opacity:1;stop-color:#82d3f5" /></linearGradient><clipPath
       id="clipPath94"
       clipPathUnits="userSpaceOnUse"><path
         id="path92"
         d="m 531.938,605 c -6.137,0 -11.993,0.555 -16.735,1.262 -5.39,0.808 -22.051,5.144 -23.316,12.41 -13.957,-3.871 -28.25,-6.664 -42.117,-6.664 -0.575,0 -1.153,0.004 -1.723,0.012 -10.906,0.187 -21.574,1.839 -32.207,4.23 -7.567,1.699 -15.93,3.645 -22.356,8.223 -11.621,8.281 -12.136,21.023 0.942,28.3 10.551,5.864 22.949,8.625 35.285,8.625 2.824,0 5.648,-0.144 8.441,-0.429 0.641,3.554 3.395,6.551 8.551,6.551 0.039,0 0.082,0 0.121,0 1.41,0 2.856,-0.223 4.321,-0.567 -3.442,11.258 23.296,17.84 31.304,18.274 1.946,0.101 4.028,0.183 6.172,0.183 7.313,0 15.352,-0.93 20.996,-4.992 2.871,-2.047 4.707,-4.566 5.742,-7.363 2.801,4.019 7.746,6.461 12.875,6.461 1.711,0 3.438,-0.27 5.118,-0.844 0.41,2.461 1.406,4.902 2.675,6.672 3.489,4.863 9.371,8.441 15.407,8.441 1.769,0 3.554,-0.308 5.296,-0.98 6.563,-2.539 9.469,-8.227 9.333,-14.848 5.421,3.047 11.937,4.715 18.136,4.715 3.383,0 6.672,-0.496 9.641,-1.539 3.941,-1.395 6.64,-3.653 8.238,-6.348 15.371,3.129 26.246,3.996 37.363,3.996 4.114,0 8.258,-0.117 12.676,-0.285 11.582,-0.43 20.899,-1.387 35.664,-5.605 14.731,-4.207 13.637,-16.805 1.684,-19.668 l 2.207,-0.176 c 9.098,-0.891 29.18,-3.527 31.363,-14.484 2.309,-11.52 -28.75,-14.532 -37.305,-15.731 -9.394,-1.316 -18.601,-2.156 -27.792,-2.156 -6.555,0 -13.106,0.426 -19.708,1.414 -1.542,-2.063 -3.335,-3.797 -5.156,-5.031 -3.801,-2.547 -8.058,-3.746 -12.301,-3.746 -3.355,0 -6.707,0.753 -9.804,2.183 -5.199,-3.035 -11.25,-4.91 -15.957,-5.484 -2.703,-0.336 -5.524,-0.508 -8.399,-0.508 -7.582,0 -15.527,1.215 -22.582,3.965 C 555.957,606.945 543.445,605 531.938,605" /></clipPath><linearGradient
       id="linearGradient102"
       spreadMethod="pad"
       gradientTransform="matrix(-3.97e-5,908.652,908.652,3.97e-5,715,-159.238)"
       gradientUnits="userSpaceOnUse"
       y2="0"
       x2="1"
       y1="0"
       x1="0"><stop
         id="stop96"
         offset="0"
         style="stop-opacity:1;stop-color:#f8fdfe" /><stop
         id="stop98"
         offset="0.673788"
         style="stop-opacity:1;stop-color:#99deef" /><stop
         id="stop100"
         offset="1"
         style="stop-opacity:1;stop-color:#82d3f5" /></linearGradient><clipPath
       id="clipPath114"
       clipPathUnits="userSpaceOnUse"><path
         id="path112"
         d="m 926.215,702.93 c -9.145,0 -20.07,3.226 -24.262,10.976 -5.488,-2.015 -11.23,-3.218 -16.375,-3.218 -0.937,0 -1.859,0.039 -2.758,0.121 -7.527,0.695 -18.211,4.789 -21.316,12.363 -3.945,9.601 7.043,19.25 15.832,20.703 1.457,0.246 2.894,0.359 4.305,0.359 5.121,0 9.902,-1.531 14.16,-4.117 l 0.078,0.36 c 1.223,3.832 4.695,6.293 8.484,7.246 1.321,0.328 2.723,0.5 4.125,0.5 0.27,0 0.539,-0.008 0.809,-0.02 -1.192,2.813 -1.199,6.004 0.808,9.094 2.739,4.183 7.176,6.902 11.946,8.355 h 14.992 c 3.527,-1.363 6.512,-3.863 8.395,-7.613 0.695,-1.379 1.093,-2.883 1.308,-4.426 0.199,0.008 0.395,0.008 0.59,0.008 4.555,0 8.703,-1.766 10.867,-6.355 0.645,-1.348 1.008,-2.805 1.192,-4.297 4.199,3.234 9.101,5.469 14.589,6.121 1.977,0.238 4.086,0.398 6.227,0.398 6.484,0 13.258,-1.441 17.426,-6.441 3.113,-3.75 3.223,-7.617 1.551,-11.055 0.578,0.028 1.162,0.043 1.742,0.043 3.17,0 6.31,-0.484 8.52,-2.367 5.32,-4.551 -1.79,-10.547 -5.77,-12.453 -2.96,-1.414 -6.762,-2.25 -10.563,-2.25 -2.195,0.004 -4.39,0.281 -6.418,0.887 -1.316,-3.411 -4.011,-5.938 -7.781,-7.579 -3.395,-1.464 -6.723,-2.128 -9.926,-2.128 -6.172,0 -11.871,2.476 -16.629,6.519 -6.797,-5.566 -16.601,-9.07 -23.175,-9.617 -0.961,-0.078 -1.958,-0.117 -2.973,-0.117" /></clipPath><linearGradient
       id="linearGradient122"
       spreadMethod="pad"
       gradientTransform="matrix(-3.97e-5,908.652,908.652,3.97e-5,715,-159.238)"
       gradientUnits="userSpaceOnUse"
       y2="0"
       x2="1"
       y1="0"
       x1="0"><stop
         id="stop116"
         offset="0"
         style="stop-opacity:1;stop-color:#f8fdfe" /><stop
         id="stop118"
         offset="0.673788"
         style="stop-opacity:1;stop-color:#99deef" /><stop
         id="stop120"
         offset="1"
         style="stop-opacity:1;stop-color:#82d3f5" /></linearGradient><clipPath
       id="clipPath132"
       clipPathUnits="userSpaceOnUse"><path
         id="path130"
         d="m 302.383,446.766 c -10.852,0 -23.824,3.832 -28.797,13.031 -6.527,-2.399 -13.348,-3.828 -19.457,-3.828 -1.109,0 -2.199,0.047 -3.262,0.144 -8.941,0.828 -21.629,5.684 -25.308,14.688 -4.692,11.394 8.355,22.851 18.789,24.582 1.726,0.285 3.429,0.422 5.101,0.422 6.082,0 11.77,-1.817 16.828,-4.887 l 0.09,0.43 c 1.446,4.543 5.574,7.461 10.071,8.601 1.582,0.391 3.253,0.59 4.929,0.59 0.309,0 0.617,-0.008 0.93,-0.023 -1.406,3.343 -1.43,7.132 0.957,10.793 4.422,6.757 12.586,10.3 20.391,11.23 1.074,0.125 2.148,0.191 3.21,0.191 7.661,0 14.731,-3.32 18.348,-10.542 0.832,-1.629 1.313,-3.418 1.563,-5.247 0.238,0.008 0.468,0.012 0.703,0.012 5.41,0 10.328,-2.098 12.89,-7.551 0.774,-1.597 1.196,-3.328 1.426,-5.105 4.981,3.84 10.805,6.492 17.317,7.273 2.343,0.282 4.843,0.469 7.382,0.469 7.704,0 15.746,-1.711 20.704,-7.644 3.703,-4.454 3.82,-9.043 1.843,-13.125 0.684,0.031 1.367,0.05 2.055,0.05 3.762,0 7.508,-0.578 10.137,-2.812 6.304,-5.403 -2.141,-12.524 -6.86,-14.785 -3.515,-1.68 -8.039,-2.672 -12.554,-2.672 -2.602,0 -5.204,0.332 -7.61,1.047 -1.57,-4.039 -4.765,-7.047 -9.25,-8.993 -4.027,-1.734 -7.98,-2.527 -11.781,-2.527 -7.324,0 -14.09,2.942 -19.738,7.742 -8.071,-6.609 -19.707,-10.769 -27.512,-11.418 -1.145,-0.089 -2.324,-0.136 -3.535,-0.136" /></clipPath><linearGradient
       id="linearGradient140"
       spreadMethod="pad"
       gradientTransform="matrix(-3.97e-5,908.652,908.652,3.97e-5,715,-159.238)"
       gradientUnits="userSpaceOnUse"
       y2="0"
       x2="1"
       y1="0"
       x1="0"><stop
         id="stop134"
         offset="0"
         style="stop-opacity:1;stop-color:#f8fdfe" /><stop
         id="stop136"
         offset="0.673788"
         style="stop-opacity:1;stop-color:#99deef" /><stop
         id="stop138"
         offset="1"
         style="stop-opacity:1;stop-color:#82d3f5" /></linearGradient><clipPath
       id="clipPath150"
       clipPathUnits="userSpaceOnUse"><path
         id="path148"
         d="m 1353.6,636.973 c -10.96,0 -22.44,3.5 -30.05,11.152 -11.48,-4.965 -25.6,-6.512 -36.47,-6.512 -0.44,0 -0.87,0.004 -1.3,0.008 -8.81,0.078 -24.55,2.02 -30.14,10.067 -1.24,-0.301 -2.46,-0.594 -3.65,-0.868 -9.37,-2.191 -19.24,-4.211 -28.98,-4.211 -1.29,0 -2.58,0.036 -3.87,0.11 -13.34,0.793 -28.3,2.879 -40.22,9.304 -10.01,5.395 -14.46,15.239 -5.27,24.165 10.3,9.972 23.49,13.57 37.05,13.57 4.21,0 8.45,-0.344 12.65,-0.953 l 0.06,0.508 c 0.78,4.496 5.08,8.125 9.55,8.125 0.92,0 1.84,-0.153 2.74,-0.481 1.19,-0.441 2.27,-1.094 3.24,-1.894 3.08,13.503 29.95,22.656 41.08,23.566 1.92,0.16 3.98,0.266 6.11,0.266 8.78,0 18.66,-1.809 23.73,-9.094 0.97,-1.387 1.75,-2.805 2.36,-4.223 2.66,2.102 5.99,3.262 9.3,3.262 2.47,0 4.92,-0.645 7.07,-2.02 -0.66,2.696 -0.48,5.657 0.83,8.379 4.73,9.785 17.44,13.313 27.53,13.36 0.09,0 0.18,0 0.26,0 6.35,0 13.8,-1.403 19.15,-5.274 0.36,2.004 1.15,3.973 2.42,5.762 5.71,8.086 15.71,13.594 25.47,14.988 1.97,0.281 4.01,0.442 6.05,0.442 7.49,0 15.02,-2.157 19.7,-8.383 v -94.391 c -5.77,-2.883 -11.96,-4.758 -18.41,-5.762 -2.64,-0.41 -5.49,-0.632 -8.44,-0.632 -8.27,0 -17.29,1.738 -24.41,5.894 -7.28,-5.351 -17.04,-8.211 -25,-8.23 -0.05,0 -0.09,0 -0.14,0" /></clipPath><linearGradient
       id="linearGradient158"
       spreadMethod="pad"
       gradientTransform="matrix(-3.97e-5,908.652,908.652,3.97e-5,715,-159.238)"
       gradientUnits="userSpaceOnUse"
       y2="0"
       x2="1"
       y1="0"
       x1="0"><stop
         id="stop152"
         offset="0"
         style="stop-opacity:1;stop-color:#f8fdfe" /><stop
         id="stop154"
         offset="0.673788"
         style="stop-opacity:1;stop-color:#99deef" /><stop
         id="stop156"
         offset="1"
         style="stop-opacity:1;stop-color:#82d3f5" /></linearGradient><clipPath
       id="clipPath168"
       clipPathUnits="userSpaceOnUse"><path
         id="path166"
         d="m 0,645.703 v 94.391 c 0.203125,-0.27 0.402344,-0.547 0.597656,-0.836 2.957034,-4.395 4.265624,-9.856 3.855474,-15.047 0.19531,0.008 0.39062,0.012 0.58593,0.012 1.66016,0 3.32032,-0.289 4.96094,-0.727 1.2305,-0.34 2.4531,-0.703 3.6328,-1.328 4.375,-2.273 7.4805,-6.035 9.2774,-10.379 6.0312,8.926 19.1211,13.113 33.1132,13.113 16.7852,0 34.8633,-6.027 43.586,-17.117 l 1.1996,-0.031 c 9.523,-0.156 21.086,-0.496 29.386,-5.848 14.114,-9.093 11.446,-25.226 -1.562,-33.644 C 114.523,659.148 96.9336,655.07 80.5586,652.355 68,650.266 55.0625,648.785 42.2109,648.785 31.4414,648.789 20.7305,649.824 10.3594,652.41 L 10,652.141 C 8.78906,651.16 7.55859,650.242 6.44531,649.473 4.36328,648.063 2.21094,646.809 0,645.703" /></clipPath><linearGradient
       id="linearGradient176"
       spreadMethod="pad"
       gradientTransform="matrix(-3.97e-5,908.652,908.652,3.97e-5,715,-159.238)"
       gradientUnits="userSpaceOnUse"
       y2="0"
       x2="1"
       y1="0"
       x1="0"><stop
         id="stop170"
         offset="0"
         style="stop-opacity:1;stop-color:#f8fdfe" /><stop
         id="stop172"
         offset="0.673788"
         style="stop-opacity:1;stop-color:#99deef" /><stop
         id="stop174"
         offset="1"
         style="stop-opacity:1;stop-color:#82d3f5" /></linearGradient><clipPath
       id="clipPath186"
       clipPathUnits="userSpaceOnUse"><path
         id="path184"
         d="m 1346.4,362.898 c -8.86,0 -19.32,1.571 -26.62,6.758 -1.21,-2.285 -3.25,-4.097 -5.91,-4.793 -0.91,-0.238 -1.83,-0.351 -2.74,-0.351 -2.58,0 -5.08,0.902 -7.04,2.453 l -0.13,0.039 c -1.09,-0.262 -2.19,-0.406 -3.26,-0.406 -1.44,0 -2.86,0.261 -4.21,0.863 -9.19,4.062 -13.67,14.707 -13.9,24.297 -0.45,18.152 11.3,32.422 28.56,35.359 1.78,1.113 3.65,2.024 5.7,2.629 2.16,0.641 4.48,0.988 6.79,0.988 5.05,0 10.09,-1.66 13.51,-5.566 0.92,-1.066 1.67,-2.23 2.26,-3.438 3.22,1.024 6.63,1.543 10.03,1.543 5.81,0 11.61,-1.515 16.4,-4.621 3.96,-2.578 7.66,-6.101 8.97,-10.586 3.34,-0.339 6.59,-1.66 9.47,-4.179 0.9,-0.782 1.68,-1.797 2.32,-2.918 1.54,1.047 3.32,1.695 5.18,1.695 0.42,0 0.85,-0.035 1.29,-0.105 -0.3,1.777 0.27,3.711 2.11,5.468 3.11,2.977 8.1,4.161 12.61,4.161 1.22,0 2.4,-0.086 3.5,-0.247 5.5,-0.808 12.93,-4.773 11.81,-11.519 1.82,1.027 3.87,1.629 6.01,1.629 0.3,0 0.59,-0.012 0.89,-0.035 v -27.493 c -3.72,-4.156 -9.28,-7.054 -14.57,-7.835 -1.39,-0.2 -2.96,-0.313 -4.61,-0.313 -5.14,0 -11.14,1.086 -15.35,3.945 -2.1,-2.254 -5.26,-3.457 -8.27,-3.789 -1.02,-0.109 -2.09,-0.168 -3.21,-0.168 -4.77,0 -10.25,1.075 -14.47,3.571 l -1.18,-0.871 c -5.45,-3.719 -11.49,-5.711 -18.09,-6.067 -1.23,-0.062 -2.53,-0.098 -3.85,-0.098" /></clipPath><linearGradient
       id="linearGradient194"
       spreadMethod="pad"
       gradientTransform="matrix(-3.97e-5,908.652,908.652,3.97e-5,715,-159.238)"
       gradientUnits="userSpaceOnUse"
       y2="0"
       x2="1"
       y1="0"
       x1="0"><stop
         id="stop188"
         offset="0"
         style="stop-opacity:1;stop-color:#f8fdfe" /><stop
         id="stop190"
         offset="0.673788"
         style="stop-opacity:1;stop-color:#99deef" /><stop
         id="stop192"
         offset="1"
         style="stop-opacity:1;stop-color:#82d3f5" /></linearGradient><clipPath
       id="clipPath204"
       clipPathUnits="userSpaceOnUse"><path
         id="path202"
         d="m 68.2695,373.82 c -3.3476,0 -6.6914,0.133 -10.0078,0.446 -5.8203,0.547 -11.7461,1.379 -17.3437,3.097 -2.8711,0.871 -6.1719,1.809 -9.1992,3.133 L 31.0078,379.18 30,378.125 c -2.2773,-2.355 -5.6367,-3.164 -8.8867,-3.184 -0.0742,0 -0.1485,0 -0.2227,0 -5.6797,0 -12.28904,1.481 -17.81638,4.211 C 2.31641,377.488 1.26172,375.934 0,374.523 v 27.493 c 0.351563,-0.028 0.703125,-0.071 1.05469,-0.129 3.18359,-0.547 7.01172,-2.09 10.01951,-4.387 0.0039,-0.004 0.0156,-0.008 0.0274,-0.008 0.4297,0 4.7578,2.465 10.2851,3.375 0.9883,0.164 2.3203,0.242 3.8985,0.242 1.3945,0 2.9882,-0.062 4.7148,-0.179 14.7266,-1.008 39.6758,-6.34 40.7227,-15.071 1.1836,0.075 2.375,0.118 3.5546,0.118 5.8047,0 11.379,-1.067 14.9805,-5.071 1.043,-1.16 0.6172,-3.308 -0.6367,-4.148 -3.8945,-2.598 -8.4141,-2.539 -12.957,-2.742 -2.4571,-0.121 -4.9258,-0.196 -7.3946,-0.196" /></clipPath><linearGradient
       id="linearGradient212"
       spreadMethod="pad"
       gradientTransform="matrix(-3.97e-5,908.652,908.652,3.97e-5,715,-159.238)"
       gradientUnits="userSpaceOnUse"
       y2="0"
       x2="1"
       y1="0"
       x1="0"><stop
         id="stop206"
         offset="0"
         style="stop-opacity:1;stop-color:#f8fdfe" /><stop
         id="stop208"
         offset="0.673788"
         style="stop-opacity:1;stop-color:#99deef" /><stop
         id="stop210"
         offset="1"
         style="stop-opacity:1;stop-color:#82d3f5" /></linearGradient></defs><g
     transform="matrix(1.3333333,0,0,-1.3333333,0,102.58667)"
     id="g10"><g
       transform="scale(0.1)"
       id="g12"><g
         id="g14"><g
           clip-path="url(#clipPath20)"
           id="g16"><path
             id="path30"
             style="fill:url(#linearGradient28);fill-opacity:1;fill-rule:nonzero;stroke:none"
             d="m 0,0 v 0 765.652 h 922.051 c -4.77,-1.453 -9.207,-4.172 -11.946,-8.355 -2.007,-3.09 -2,-6.281 -0.808,-9.094 -0.27,0.012 -0.539,0.02 -0.809,0.02 -1.402,0 -2.804,-0.172 -4.125,-0.5 -3.789,-0.953 -7.261,-3.414 -8.484,-7.246 l -0.078,-0.36 c -4.258,2.586 -9.039,4.117 -14.16,4.117 -1.411,0 -2.848,-0.113 -4.305,-0.359 -8.789,-1.453 -19.777,-11.102 -15.832,-20.703 3.105,-7.574 13.789,-11.668 21.316,-12.363 0.899,-0.082 1.821,-0.121 2.758,-0.121 5.145,0 10.887,1.203 16.375,3.218 4.192,-7.75 15.117,-10.976 24.262,-10.976 1.015,0 2.012,0.039 2.973,0.117 6.574,0.547 16.378,4.051 23.175,9.617 4.758,-4.043 10.457,-6.519 16.629,-6.519 3.203,0 6.531,0.664 9.926,2.128 3.77,1.641 6.465,4.168 7.781,7.579 2.028,-0.606 4.223,-0.883 6.418,-0.887 3.801,0 7.603,0.836 10.563,2.25 3.98,1.906 11.09,7.902 5.77,12.453 -2.21,1.883 -5.35,2.367 -8.52,2.367 -0.58,0 -1.164,-0.015 -1.742,-0.043 1.672,3.438 1.562,7.305 -1.551,11.055 -4.168,5 -10.942,6.441 -17.426,6.441 -2.141,0 -4.25,-0.16 -6.227,-0.398 -5.488,-0.652 -10.39,-2.887 -14.589,-6.121 -0.184,1.492 -0.547,2.949 -1.192,4.297 -2.164,4.589 -6.312,6.355 -10.867,6.355 -0.195,0 -0.391,0 -0.59,-0.008 -0.215,1.543 -0.613,3.047 -1.308,4.426 -1.883,3.75 -4.868,6.25 -8.395,7.613 H 1430 v -25.558 c -4.68,6.226 -12.21,8.383 -19.7,8.383 -2.04,0 -4.08,-0.161 -6.05,-0.442 -9.76,-1.394 -19.76,-6.902 -25.47,-14.988 -1.27,-1.789 -2.06,-3.758 -2.42,-5.762 -5.35,3.871 -12.8,5.274 -19.15,5.274 -0.08,0 -0.17,0 -0.26,0 -10.09,-0.047 -22.8,-3.575 -27.53,-13.36 -1.31,-2.722 -1.49,-5.683 -0.83,-8.379 -2.15,1.375 -4.6,2.02 -7.07,2.02 -3.31,0 -6.64,-1.16 -9.3,-3.262 -0.61,1.418 -1.39,2.836 -2.36,4.223 -5.07,7.285 -14.95,9.094 -23.73,9.094 -2.13,0 -4.19,-0.106 -6.11,-0.266 -11.13,-0.91 -38,-10.063 -41.08,-23.566 -0.97,0.8 -2.05,1.453 -3.24,1.894 -0.9,0.328 -1.82,0.481 -2.74,0.481 -4.47,0 -8.77,-3.629 -9.55,-8.125 l -0.06,-0.508 c -4.2,0.609 -8.44,0.953 -12.65,0.953 -13.56,0 -26.75,-3.598 -37.05,-13.57 -9.19,-8.926 -4.74,-18.77 5.27,-24.165 11.92,-6.425 26.88,-8.511 40.22,-9.304 1.29,-0.074 2.58,-0.11 3.87,-0.11 9.74,0 19.61,2.02 28.98,4.211 1.19,0.274 2.41,0.567 3.65,0.868 5.59,-8.047 21.33,-9.989 30.14,-10.067 0.43,-0.004 0.86,-0.008 1.3,-0.008 10.87,0 24.99,1.547 36.47,6.512 7.61,-7.652 19.09,-11.152 30.05,-11.152 0.05,0 0.09,0 0.14,0 7.96,0.019 17.72,2.879 25,8.23 7.12,-4.156 16.14,-5.894 24.41,-5.894 2.95,0 5.8,0.222 8.44,0.632 6.45,1.004 12.64,2.879 18.41,5.762 V 402.016 c -0.3,0.023 -0.59,0.035 -0.89,0.035 -2.14,0 -4.19,-0.602 -6.01,-1.629 1.12,6.746 -6.31,10.711 -11.81,11.519 -1.1,0.161 -2.28,0.247 -3.5,0.247 -4.51,0 -9.5,-1.184 -12.61,-4.161 -1.84,-1.757 -2.41,-3.691 -2.11,-5.468 -0.44,0.07 -0.87,0.105 -1.29,0.105 -1.86,0 -3.64,-0.648 -5.18,-1.695 -0.64,1.121 -1.42,2.136 -2.32,2.918 -2.88,2.519 -6.13,3.84 -9.47,4.179 -1.31,4.485 -5.01,8.008 -8.97,10.586 -4.79,3.106 -10.59,4.621 -16.4,4.621 -3.4,0 -6.81,-0.519 -10.03,-1.543 -0.59,1.208 -1.34,2.372 -2.26,3.438 -3.42,3.906 -8.46,5.566 -13.51,5.566 -2.31,0 -4.63,-0.347 -6.79,-0.988 -2.05,-0.605 -3.92,-1.516 -5.7,-2.629 -17.26,-2.937 -29.01,-17.207 -28.56,-35.359 0.23,-9.59 4.71,-20.235 13.9,-24.297 1.35,-0.602 2.77,-0.863 4.21,-0.863 1.07,0 2.17,0.144 3.26,0.406 l 0.13,-0.039 c 1.96,-1.551 4.46,-2.453 7.04,-2.453 0.91,0 1.83,0.113 2.74,0.351 2.66,0.696 4.7,2.508 5.91,4.793 7.3,-5.187 17.76,-6.758 26.62,-6.758 1.32,0 2.62,0.036 3.85,0.098 6.6,0.356 12.64,2.348 18.09,6.067 l 1.18,0.871 c 4.22,-2.496 9.7,-3.571 14.47,-3.571 1.12,0 2.19,0.059 3.21,0.168 3.01,0.332 6.17,1.535 8.27,3.789 4.21,-2.859 10.21,-3.945 15.35,-3.945 1.65,0 3.22,0.113 4.61,0.313 5.29,0.781 10.85,3.679 14.57,7.835 v -30.793 -5.097 c -6.44,1.98 -13.62,3.168 -21.67,3.168 -5.68,0 -11.8,-0.59 -18.41,-1.918 -49.06,-9.863 -52.5,-61.668 -52.5,-61.668 0,0 -9.44,13.168 -27.8,13.168 -3.79,0 -7.96,-0.563 -12.51,-1.918 -31.04,-9.25 -28.44,-37.285 -28.44,-37.285 0,0 -5.94,27.183 -30.94,29.683 -2.17,0.219 -4.21,0.321 -6.11,0.321 -20.03,0 -25.76,-10.946 -25.76,-10.946 13.97,29.895 -5.11,50.567 -24.1,50.567 -5.22,0 -10.44,-1.567 -14.96,-4.942 -17.91,-13.355 -11.59,-38.203 -10.73,-41.25 l 0.1,-0.308 c 0,0 -14.94,23.816 -42,23.816 -4.25,0 -8.79,-0.586 -13.62,-1.941 -35.63,-10 -35.63,-39.067 -35.63,-39.067 0,0 -0.08,0.825 -0.33,2.18 -1.09,5.859 -5.59,21.672 -22.17,23.445 -1.28,0.141 -2.51,0.203 -3.69,0.203 -0.65,0 -1.29,-0.019 -1.91,-0.054 -11.38,-0.625 -17.8,-6.934 -18.67,-7.848 5.6,6.02 8.91,13 10.38,20.238 6.88,27.102 -8.51,58.043 -39.296,58.043 -1.675,0 -3.386,-0.09 -5.152,-0.277 -34.98,-3.328 -38.32,-39.93 -38.34,-39.988 -0.058,0.086 -18.476,20.593 -46.621,20.965 -0.266,0.003 -0.531,0.003 -0.797,0.003 -7.691,0 -16.074,-1.511 -25.004,-5.343 -29.023,-12.461 -35.996,-39.2 -37.519,-54.7 -0.684,-7.042 -0.254,-11.765 -0.254,-11.765 -3.34,15.308 -13.75,31.59 -30.547,35.137 -2.203,0.464 -4.504,0.707 -6.918,0.707 -0.219,0 -0.437,0 -0.66,-0.004 -20.606,-0.41 -33.32,-14.153 -33.34,-14.172 v 0.012 c -0.035,0.152 -14.809,58.945 -65.246,58.945 -7.223,0 -15.168,-1.203 -23.914,-3.957 -46.668,-14.695 -50.625,-76.77 -50.625,-76.77 0,0 -10,31.25 -44.375,32.297 -0.676,0.02 -1.348,0.031 -2.004,0.031 -36.898,0 -43.836,-31.703 -43.836,-31.703 -10.832,30.336 -45.445,58.789 -79.441,58.789 -5.231,0 -10.446,-0.672 -15.559,-2.117 -38.34,-10.832 -42.5,-48.34 -42.5,-48.34 -8.394,2.797 -16.004,3.887 -22.742,3.887 -23.375,0 -36.418,-13.047 -36.418,-13.047 16.066,36.727 -9.317,77.668 -45.832,77.668 -3.254,0 -6.598,-0.324 -10.008,-1.008 -41.672,-8.34 -42.5,-64.16 -42.5,-64.16 0,0 -19.547,34.742 -57.949,34.742 -2.805,0 -5.707,-0.183 -8.711,-0.582 -44.168,-5.84 -51.875,-46.355 -51.875,-46.355 -3.352,15.308 -13.762,31.59 -30.547,35.137 -2.2031,0.464 -4.5039,0.707 -6.918,0.707 -0.2187,0 -0.4375,0 -0.6601,-0.004 -20.6055,-0.41 -33.3203,-14.153 -33.3399,-14.172 v 0.012 C 49.0508,285.027 38.418,326.785 0,338.633 V 0 m 31.7188,380.496 c 3.0273,-1.324 6.3281,-2.262 9.1992,-3.133 5.5976,-1.718 11.5234,-2.55 17.3437,-3.097 3.3164,-0.313 6.6602,-0.446 10.0078,-0.446 2.4688,0 4.9375,0.075 7.3946,0.196 4.5429,0.203 9.0625,0.144 12.957,2.742 1.2539,0.84 1.6797,2.988 0.6367,4.148 -3.6015,4.004 -9.1758,5.071 -14.9805,5.071 -1.1796,0 -2.371,-0.043 -3.5546,-0.118 C 69.6758,394.59 44.7266,399.922 30,400.93 c -1.7266,0.117 -3.3203,0.179 -4.7148,0.179 -1.5782,0 -2.9102,-0.078 -3.8985,-0.242 -5.5273,-0.91 -9.8554,-3.375 -10.2851,-3.375 -0.0118,0 -0.0235,0.004 -0.0274,0.008 -3.00779,2.297 -6.83592,3.84 -10.01951,4.387 C 0.703125,401.945 0.351563,401.988 0,402.016 v -27.493 c 1.26172,1.411 2.31641,2.965 3.07422,4.629 5.52734,-2.73 12.13668,-4.211 17.81638,-4.211 0.0742,0 0.1485,0 0.2227,0 3.25,0.02 6.6094,0.829 8.8867,3.184 l 1.0078,1.055 0.711,1.316 m 241.8672,79.301 c 4.973,-9.199 17.945,-13.031 28.797,-13.031 1.211,0 2.39,0.047 3.535,0.136 7.805,0.649 19.441,4.809 27.512,11.418 5.648,-4.8 12.414,-7.742 19.738,-7.742 3.801,0 7.754,0.793 11.781,2.527 4.485,1.946 7.68,4.954 9.25,8.993 2.406,-0.715 5.008,-1.047 7.61,-1.047 4.515,0 9.039,0.992 12.554,2.672 4.719,2.261 13.164,9.382 6.86,14.785 -2.629,2.234 -6.375,2.812 -10.137,2.812 -0.688,0 -1.371,-0.019 -2.055,-0.05 1.977,4.082 1.86,8.671 -1.843,13.125 -4.958,5.933 -13,7.644 -20.704,7.644 -2.539,0 -5.039,-0.187 -7.382,-0.469 -6.512,-0.781 -12.336,-3.433 -17.317,-7.273 -0.23,1.777 -0.652,3.508 -1.426,5.105 -2.562,5.453 -7.48,7.551 -12.89,7.551 -0.235,0 -0.465,-0.004 -0.703,-0.012 -0.25,1.829 -0.731,3.618 -1.563,5.247 -3.617,7.222 -10.687,10.542 -18.348,10.542 -1.062,0 -2.136,-0.066 -3.21,-0.191 -7.805,-0.93 -15.969,-4.473 -20.391,-11.23 -2.387,-3.661 -2.363,-7.45 -0.957,-10.793 -0.313,0.015 -0.621,0.023 -0.93,0.023 -1.676,0 -3.347,-0.199 -4.929,-0.59 -4.497,-1.14 -8.625,-4.058 -10.071,-8.601 l -0.09,-0.43 c -5.058,3.07 -10.746,4.887 -16.828,4.887 -1.672,0 -3.375,-0.137 -5.101,-0.422 -10.434,-1.731 -23.481,-13.188 -18.789,-24.582 3.679,-9.004 16.367,-13.86 25.308,-14.688 1.063,-0.097 2.153,-0.144 3.262,-0.144 6.109,0 12.93,1.429 19.457,3.828 m 758.264,2.93 c 0.94,-2.192 2.69,-3.997 5.12,-4.836 1.06,-0.36 2.15,-0.532 3.23,-0.532 2.12,0 4.21,0.653 5.91,1.813 l 0.13,0.016 c 1.24,-0.395 2.49,-0.618 3.73,-0.618 1.07,0 2.14,0.168 3.18,0.539 8.75,3.118 13.62,12.629 14.48,21.438 1.66,16.719 -8.2,30.676 -23.9,34.551 -1.57,1.152 -3.25,2.121 -5.08,2.812 -2.42,0.914 -5.09,1.434 -7.74,1.434 -4.15,0 -8.26,-1.27 -11.3,-4.278 -0.91,-0.914 -1.68,-1.921 -2.32,-3.003 -3.59,1.441 -7.51,2.191 -11.4,2.191 -4.6,0 -9.179,-1.047 -13.156,-3.231 -3.847,-2.109 -7.492,-5.093 -8.996,-9.128 -3.113,-0.086 -6.187,-1.082 -9.031,-3.211 -0.859,-0.664 -1.66,-1.536 -2.324,-2.551 -1.477,1.191 -3.238,1.941 -5.137,1.941 -0.234,0 -0.473,-0.011 -0.715,-0.039 0.383,1.633 0,3.457 -1.57,5.195 -3.055,3.379 -8.488,4.774 -13.07,4.774 -0.52,0 -1.028,-0.02 -1.52,-0.055 -5.117,-0.371 -12.266,-3.508 -11.68,-9.812 -1.816,1.222 -3.945,1.941 -6.211,1.941 -0.335,0 -0.679,-0.015 -1.027,-0.051 -2.969,-0.281 -6.601,-1.441 -9.527,-3.355 -0.004,-0.004 -0.012,-0.008 -0.02,-0.008 -0.336,0 -4.191,2.59 -9.25,3.813 -1.777,0.425 -4.769,0.652 -8.398,0.652 -13.707,0 -36.574,-3.223 -38.125,-11.117 -2,0.269 -4.024,0.457 -5.988,0.457 -4.352,0 -8.434,-0.906 -11.415,-3.75 -1.054,-0.996 -0.792,-3.02 0.301,-3.86 3.399,-2.664 7.571,-2.937 11.75,-3.445 4.762,-0.574 9.563,-0.965 14.352,-0.965 0.574,0 1.148,0.004 1.722,0.02 5.403,0.125 10.911,0.476 16.2,1.679 2.707,0.606 5.785,1.258 8.691,2.274 l 0.559,-1.277 c 1.789,-3.176 5.379,-4.297 8.816,-4.59 0.844,-0.071 1.711,-0.106 2.594,-0.106 4.668,0 9.84,0.946 14.32,2.762 2.348,-6.262 8.957,-11.242 15.434,-12.688 1.949,-0.433 4.301,-0.699 6.761,-0.699 4.106,0 8.512,0.742 11.887,2.684 1.77,-2.219 4.602,-3.559 7.336,-4.055 1.598,-0.297 3.375,-0.461 5.215,-0.461 3.832,0 7.941,0.707 11.328,2.387 l 1.035,-0.883 c 4.754,-3.805 10.196,-6.055 16.269,-6.812 2.63,-0.34 5.53,-0.555 8.52,-0.555 6.92,0 14.33,1.152 20.03,4.598 M 491.887,618.672 c 1.265,-7.266 17.926,-11.602 23.316,-12.41 4.742,-0.707 10.598,-1.262 16.735,-1.262 11.507,0 24.019,1.945 32.093,8.469 7.055,-2.75 15,-3.965 22.582,-3.965 2.875,0 5.696,0.172 8.399,0.508 4.707,0.574 10.758,2.449 15.957,5.484 3.097,-1.43 6.449,-2.183 9.804,-2.183 4.243,0 8.5,1.199 12.301,3.746 1.821,1.234 3.614,2.968 5.156,5.031 6.602,-0.988 13.153,-1.414 19.708,-1.414 9.191,0 18.398,0.84 27.792,2.156 8.555,1.199 39.614,4.211 37.305,15.731 -2.183,10.957 -22.265,13.593 -31.363,14.484 l -2.207,0.176 c 11.953,2.863 13.047,15.461 -1.684,19.668 -14.765,4.218 -24.082,5.175 -35.664,5.605 -4.418,0.168 -8.562,0.285 -12.676,0.285 -11.117,0 -21.992,-0.867 -37.363,-3.996 -1.598,2.695 -4.297,4.953 -8.238,6.348 -2.969,1.043 -6.258,1.539 -9.641,1.539 -6.199,0 -12.715,-1.668 -18.136,-4.715 0.136,6.621 -2.77,12.309 -9.333,14.848 -1.742,0.672 -3.527,0.98 -5.296,0.98 -6.036,0 -11.918,-3.578 -15.407,-8.441 -1.269,-1.77 -2.265,-4.211 -2.675,-6.672 -1.68,0.574 -3.407,0.844 -5.118,0.844 -5.129,0 -10.074,-2.442 -12.875,-6.461 -1.035,2.797 -2.871,5.316 -5.742,7.363 -5.644,4.062 -13.683,4.992 -20.996,4.992 -2.144,0 -4.226,-0.082 -6.172,-0.183 -8.008,-0.434 -34.746,-7.016 -31.304,-18.274 -1.465,0.344 -2.911,0.567 -4.321,0.567 -0.039,0 -0.082,0 -0.121,0 -5.156,0 -7.91,-2.997 -8.551,-6.551 -2.793,0.285 -5.617,0.429 -8.441,0.429 -12.336,0 -24.734,-2.761 -35.285,-8.625 -13.078,-7.277 -12.563,-20.019 -0.942,-28.3 6.426,-4.578 14.789,-6.524 22.356,-8.223 10.633,-2.391 21.301,-4.043 32.207,-4.23 0.57,-0.008 1.148,-0.012 1.723,-0.012 13.867,0 28.16,2.793 42.117,6.664 M 0,740.094 v -94.391 c 2.21094,1.106 4.36328,2.36 6.44531,3.77 1.11328,0.769 2.34375,1.687 3.55469,2.668 l 0.3594,0.269 c 10.3711,-2.586 21.082,-3.621 31.8515,-3.625 12.8516,0 25.7891,1.481 38.3477,3.57 16.375,2.715 33.9644,6.793 48.0744,15.907 13.008,8.418 15.676,24.551 1.562,33.644 -8.3,5.352 -19.863,5.692 -29.386,5.848 l -1.1996,0.031 c -8.7227,11.09 -26.8008,17.117 -43.586,17.117 -13.9921,0 -27.082,-4.187 -33.1132,-13.113 -1.7969,4.344 -4.9024,8.106 -9.2774,10.379 -1.1797,0.625 -2.4023,0.988 -3.6328,1.328 -1.64062,0.438 -3.30078,0.727 -4.96094,0.727 -0.19531,0 -0.39062,-0.004 -0.58593,-0.012 0.41015,5.191 -0.89844,10.652 -3.855474,15.047 C 0.402344,739.547 0.203125,739.824 0,740.094" /></g></g><g
         id="g32"><g
           clip-path="url(#clipPath38)"
           id="g34"><path
             id="path48"
             style="fill:url(#linearGradient46);fill-opacity:1;fill-rule:nonzero;stroke:none"
             d="m 0,0 v 0 338.633 c 38.418,-11.848 49.0508,-53.606 49.082,-53.738 v -0.012 c 0.0196,0.019 12.7344,13.762 33.3399,14.172 0.2226,0.004 0.4414,0.004 0.6601,0.004 2.4141,0 4.7149,-0.243 6.918,-0.707 16.785,-3.547 27.195,-19.829 30.547,-35.137 0,0 7.707,40.515 51.875,46.355 3.004,0.399 5.906,0.582 8.711,0.582 38.402,0 57.949,-34.742 57.949,-34.742 0,0 0.828,55.82 42.5,64.16 3.41,0.684 6.754,1.008 10.008,1.008 36.515,0 61.898,-40.941 45.832,-77.668 0,0 13.043,13.047 36.418,13.047 6.738,0 14.348,-1.09 22.742,-3.887 0,0 4.16,37.508 42.5,48.34 5.113,1.445 10.328,2.117 15.559,2.117 33.996,0 68.609,-28.453 79.441,-58.789 0,0 6.938,31.703 43.836,31.703 0.656,0 1.328,-0.011 2.004,-0.031 34.375,-1.047 44.375,-32.297 44.375,-32.297 0,0 3.957,62.075 50.625,76.77 8.746,2.754 16.691,3.957 23.914,3.957 50.437,0 65.211,-58.793 65.246,-58.945 v -0.012 c 0.02,0.019 12.734,13.762 33.34,14.172 0.223,0.004 0.441,0.004 0.66,0.004 2.414,0 4.715,-0.243 6.918,-0.707 16.797,-3.547 27.207,-19.829 30.547,-35.137 0,0 -0.43,4.723 0.254,11.765 1.523,15.5 8.496,42.239 37.519,54.7 8.93,3.832 17.313,5.343 25.004,5.343 0.266,0 0.531,0 0.797,-0.003 28.145,-0.372 46.563,-20.879 46.621,-20.965 0.02,0.058 3.36,36.66 38.34,39.988 1.766,0.187 3.477,0.277 5.152,0.277 30.786,0 46.176,-30.941 39.296,-58.043 -1.47,-7.238 -4.78,-14.218 -10.38,-20.238 0.87,0.914 7.29,7.223 18.67,7.848 0.62,0.035 1.26,0.054 1.91,0.054 1.18,0 2.41,-0.062 3.69,-0.203 16.58,-1.773 21.08,-17.586 22.17,-23.445 0.25,-1.355 0.33,-2.18 0.33,-2.18 0,0 0,29.067 35.63,39.067 4.83,1.355 9.37,1.941 13.62,1.941 27.06,0 42,-23.816 42,-23.816 l -0.1,0.308 c -0.86,3.047 -7.18,27.895 10.73,41.25 4.52,3.375 9.74,4.942 14.96,4.942 18.99,0 38.07,-20.672 24.1,-50.567 0,0 5.73,10.946 25.76,10.946 1.9,0 3.94,-0.102 6.11,-0.321 25,-2.5 30.94,-29.683 30.94,-29.683 0,0 -2.6,28.035 28.44,37.285 4.55,1.355 8.72,1.918 12.51,1.918 18.36,0 27.8,-13.168 27.8,-13.168 0,0 3.44,51.805 52.5,61.668 6.61,1.328 12.73,1.918 18.41,1.918 8.05,0 15.23,-1.188 21.67,-3.168 V 212.52 c -2.2,0.464 -4.5,0.71 -6.91,0.71 -0.22,0 -0.45,-0.003 -0.67,-0.007 -20.6,-0.41 -33.32,-14.153 -33.34,-14.168 v 0.008 c -0.03,0.16 -14.27,56.968 -70.27,56.968 -5.83,0 -12.12,-0.617 -18.89,-1.976 -49.06,-9.867 -52.5,-61.672 -52.5,-61.672 0,0 -9.45,13.168 -27.8,13.168 -3.79,0 -7.96,-0.563 -12.51,-1.918 -31.04,-9.246 -28.44,-37.285 -28.44,-37.285 0,0 -5.94,27.187 -30.94,29.687 -2.17,0.219 -4.21,0.317 -6.11,0.317 -20.03,0 -25.76,-10.942 -25.76,-10.942 13.97,29.891 -5.11,50.567 -24.1,50.567 -5.22,0 -10.44,-1.567 -14.96,-4.942 -17.91,-13.359 -11.59,-38.203 -10.73,-41.25 l 0.1,-0.312 c 0,0 -14.94,23.816 -42,23.816 -4.25,0 -8.79,-0.586 -13.62,-1.941 -35.628,-10 -35.628,-39.063 -35.628,-39.063 0,0 -0.078,0.82 -0.332,2.18 -1.094,5.855 -5.586,21.668 -22.168,23.445 -1.285,0.141 -2.512,0.199 -3.695,0.199 -0.649,0 -1.286,-0.019 -1.911,-0.05 -11.375,-0.625 -17.793,-6.938 -18.668,-7.852 5.602,6.02 8.911,13.004 10.387,20.242 6.871,27.102 -8.519,58.043 -39.301,58.043 -1.675,0 -3.386,-0.09 -5.152,-0.277 -34.98,-3.332 -38.32,-39.934 -38.34,-39.992 -0.058,0.09 -18.476,20.593 -46.621,20.968 -0.266,0 -0.527,0.004 -0.793,0.004 -7.695,0 -16.078,-1.515 -25.008,-5.347 -29.023,-12.461 -35.996,-39.2 -37.519,-54.7 -0.684,-7.039 -0.254,-11.765 -0.254,-11.765 -3.34,15.312 -13.75,31.59 -30.547,35.137 -2.199,0.464 -4.5,0.71 -6.914,0.71 -0.219,0 -0.441,-0.003 -0.664,-0.007 -20.606,-0.41 -33.32,-14.153 -33.34,-14.168 v 0.008 c -0.035,0.152 -14.809,58.949 -65.246,58.949 -7.223,0 -15.168,-1.203 -23.914,-3.957 -46.668,-14.7 -50.625,-76.77 -50.625,-76.77 0,0 -10,31.25 -44.375,32.293 -0.676,0.024 -1.344,0.031 -2.004,0.031 -36.898,0 -43.836,-31.699 -43.836,-31.699 -10.832,30.332 -45.445,58.789 -79.441,58.789 -5.231,0 -10.446,-0.676 -15.559,-2.121 -38.34,-10.828 -42.5,-48.34 -42.5,-48.34 -8.394,2.801 -16.004,3.887 -22.742,3.887 -23.375,0 -36.418,-13.047 -36.418,-13.047 16.066,36.727 -9.317,77.668 -45.832,77.668 -3.254,0 -6.598,-0.324 -10.008,-1.008 -41.672,-8.336 -42.5,-64.16 -42.5,-64.16 0,0 -19.543,34.746 -57.9492,34.746 -2.8047,0 -5.707,-0.187 -8.7109,-0.586 -44.168,-5.84 -51.875,-46.355 -51.875,-46.355 C 27.1953,192.695 16.7891,208.973 0,212.52 V 0" /></g></g><g
         id="g50"><g
           clip-path="url(#clipPath56)"
           id="g52"><path
             id="path66"
             style="fill:url(#linearGradient64);fill-opacity:1;fill-rule:nonzero;stroke:none"
             d="M 1430,0 H 0 v 212.52 c 16.7891,-3.547 27.1953,-19.825 30.5469,-35.137 0,0 7.707,40.515 51.875,46.355 3.0039,0.399 5.9062,0.586 8.7109,0.586 38.4062,0 57.9492,-34.746 57.9492,-34.746 0,0 0.828,55.824 42.5,64.16 3.41,0.684 6.754,1.008 10.008,1.008 36.515,0 61.898,-40.941 45.832,-77.668 0,0 13.043,13.047 36.418,13.047 6.738,0 14.348,-1.086 22.742,-3.887 0,0 4.16,37.512 42.5,48.34 5.113,1.445 10.328,2.121 15.559,2.121 33.996,0 68.609,-28.457 79.441,-58.789 0,0 6.938,31.699 43.836,31.699 0.66,0 1.328,-0.007 2.004,-0.031 34.375,-1.043 44.375,-32.293 44.375,-32.293 0,0 3.957,62.07 50.625,76.77 8.746,2.754 16.691,3.957 23.914,3.957 50.437,0 65.211,-58.797 65.246,-58.949 v -0.008 c 0.02,0.015 12.734,13.758 33.34,14.168 0.223,0.004 0.445,0.007 0.664,0.007 2.414,0 4.715,-0.246 6.914,-0.71 16.797,-3.547 27.207,-19.825 30.547,-35.137 0,0 -0.43,4.726 0.254,11.765 1.523,15.5 8.496,42.239 37.519,54.7 8.93,3.832 17.313,5.347 25.008,5.347 0.266,0 0.527,-0.004 0.793,-0.004 28.145,-0.375 46.563,-20.878 46.621,-20.968 0.02,0.058 3.36,36.66 38.34,39.992 1.766,0.187 3.477,0.277 5.152,0.277 30.782,0 46.172,-30.941 39.301,-58.043 -1.476,-7.238 -4.785,-14.222 -10.387,-20.242 0.875,0.914 7.293,7.227 18.668,7.852 0.625,0.031 1.262,0.05 1.911,0.05 1.183,0 2.41,-0.058 3.695,-0.199 16.582,-1.777 21.074,-17.59 22.168,-23.445 0.254,-1.36 0.332,-2.18 0.332,-2.18 0,0 0,29.063 35.628,39.063 4.83,1.355 9.37,1.941 13.62,1.941 27.06,0 42,-23.816 42,-23.816 l -0.1,0.312 c -0.86,3.047 -7.18,27.891 10.73,41.25 4.52,3.375 9.74,4.942 14.96,4.942 18.99,0 38.07,-20.676 24.1,-50.567 0,0 5.73,10.942 25.76,10.942 1.9,0 3.94,-0.098 6.11,-0.317 25,-2.5 30.94,-29.687 30.94,-29.687 0,0 -2.6,28.039 28.44,37.285 4.55,1.355 8.72,1.918 12.51,1.918 18.35,0 27.8,-13.168 27.8,-13.168 0,0 3.44,51.805 52.5,61.672 6.77,1.359 13.06,1.976 18.89,1.976 56,0 70.24,-56.808 70.27,-56.968 v -0.008 c 0.02,0.015 12.74,13.758 33.34,14.168 0.22,0.004 0.45,0.007 0.67,0.007 2.41,0 4.71,-0.246 6.91,-0.71 L 1430,0" /></g></g><path
         id="path68"
         style="fill:#f7fcfd;fill-opacity:1;fill-rule:nonzero;stroke:none"
         d="m 715,157.961 c 69.836,21.988 89.121,-54.816 89.16,-54.992 l 0.012,-0.008 c 0.008,0.019 12.723,13.758 33.328,14.168 2.656,0.051 5.188,-0.195 7.578,-0.703 16.797,-3.543 27.207,-19.8244 30.547,-35.1369 0,0 -0.43,4.7265 0.254,11.7695 1.523,15.4964 8.496,42.2344 37.519,54.6954 9.239,3.965 17.903,5.449 25.801,5.344 28.145,-0.371 46.563,-20.879 46.629,-20.969 0.012,0.059 3.36,36.66 38.332,39.988 h 0.01 c 34.19,3.653 51.69,-29.187 44.44,-57.762 -1.48,-7.285 -4.82,-14.304 -10.48,-20.3511 0,0 6.5,7.2851 18.76,7.9611 1.76,0.098 3.63,0.066 5.61,-0.149 16.59,-1.777 21.07,-17.5855 22.17,-23.4488 0.25,-1.3555 0.33,-2.1758 0.33,-2.1758 0,0 0,29.0626 35.63,39.0626 35.62,10 55.62,-21.8751 55.62,-21.8751 l -0.09,0.3125 c -0.87,3.0469 -7.19,27.8906 10.72,41.2496 20.93,15.625 56.87,-7.5 39.06,-45.6246 0,0 6.87,13.1246 31.87,10.625 25,-2.5 30.94,-29.6875 30.94,-29.6875 0,0 -2.6,28.0391 28.44,37.2851 26.56,7.922 40.31,-11.2499 40.31,-11.2499 0,0 3.45,51.8089 52.5,61.6719 V 0 H 715 0 v 157.961 c 71.7773,14.422 89.1211,-54.816 89.1602,-54.992 l 0.0078,-0.008 c 0.0117,0.019 12.727,13.758 33.332,14.168 2.656,0.051 5.188,-0.195 7.578,-0.703 16.797,-3.543 27.207,-19.8244 30.547,-35.1369 0,0 7.715,40.5199 51.875,46.3559 44.16,5.839 66.66,-34.1606 66.66,-34.1606 0,0 0.84,55.8246 42.5,64.1606 41.68,8.339 73.34,-36.661 55.84,-76.6606 0,0 21.66,21.6606 59.16,9.1601 0,0 4.168,37.5115 42.5,48.3395 38.34,10.832 82.5,-21.668 95,-56.6676 0,0 7.195,32.8396 45.84,31.6676 34.375,-1.043 44.375,-32.2926 44.375,-32.2926 0,0 3.965,62.0706 50.625,76.7696" /><g
         id="g70"><g
           clip-path="url(#clipPath76)"
           id="g72"><path
             id="path86"
             style="fill:url(#linearGradient84);fill-opacity:1;fill-rule:nonzero;stroke:none"
             d="m 1040.2,457.359 c -1.08,0 -2.17,0.172 -3.23,0.532 -2.43,0.839 -4.18,2.644 -5.12,4.836 -5.7,-3.446 -13.11,-4.598 -20.03,-4.598 -2.99,0 -5.89,0.215 -8.52,0.555 -6.073,0.757 -11.515,3.007 -16.269,6.812 l -1.035,0.883 c -3.387,-1.68 -7.496,-2.387 -11.328,-2.387 -1.84,0 -3.617,0.164 -5.215,0.461 -2.734,0.496 -5.566,1.836 -7.336,4.055 -3.375,-1.942 -7.781,-2.684 -11.887,-2.684 -2.46,0 -4.812,0.266 -6.761,0.699 -6.477,1.446 -13.086,6.426 -15.434,12.688 -4.48,-1.816 -9.652,-2.762 -14.32,-2.762 -0.883,0 -1.75,0.035 -2.594,0.106 -3.437,0.293 -7.027,1.414 -8.816,4.59 l -0.559,1.277 c -2.906,-1.016 -5.984,-1.668 -8.691,-2.274 -5.289,-1.203 -10.797,-1.554 -16.2,-1.679 -0.574,-0.016 -1.148,-0.02 -1.722,-0.02 -4.789,0 -9.59,0.391 -14.352,0.965 -4.179,0.508 -8.351,0.781 -11.75,3.445 -1.093,0.84 -1.355,2.864 -0.301,3.86 2.981,2.844 7.063,3.75 11.415,3.75 1.964,0 3.988,-0.188 5.988,-0.457 1.551,7.894 24.418,11.117 38.125,11.117 3.629,0 6.621,-0.227 8.398,-0.652 5.059,-1.223 8.914,-3.813 9.25,-3.813 0.008,0 0.016,0.004 0.02,0.008 2.926,1.914 6.558,3.074 9.527,3.355 0.348,0.036 0.692,0.051 1.027,0.051 2.266,0 4.395,-0.719 6.211,-1.941 -0.586,6.304 6.563,9.441 11.68,9.812 0.492,0.035 1,0.055 1.52,0.055 4.582,0 10.015,-1.395 13.07,-4.774 1.57,-1.738 1.953,-3.562 1.57,-5.195 0.242,0.028 0.481,0.039 0.715,0.039 1.899,0 3.66,-0.75 5.137,-1.941 0.664,1.015 1.465,1.887 2.324,2.551 2.844,2.129 5.918,3.125 9.031,3.211 1.504,4.035 5.149,7.019 8.996,9.128 3.977,2.184 8.556,3.231 13.156,3.231 3.89,0 7.81,-0.75 11.4,-2.191 0.64,1.082 1.41,2.089 2.32,3.003 3.04,3.008 7.15,4.278 11.3,4.278 2.65,0 5.32,-0.52 7.74,-1.434 1.83,-0.691 3.51,-1.66 5.08,-2.812 15.7,-3.875 25.56,-17.832 23.9,-34.551 -0.86,-8.809 -5.73,-18.32 -14.48,-21.438 -1.04,-0.371 -2.11,-0.539 -3.18,-0.539 -1.24,0 -2.49,0.223 -3.73,0.618 l -0.13,-0.016 c -1.7,-1.16 -3.79,-1.813 -5.91,-1.813" /></g></g><g
         id="g88"><g
           clip-path="url(#clipPath94)"
           id="g90"><path
             id="path104"
             style="fill:url(#linearGradient102);fill-opacity:1;fill-rule:nonzero;stroke:none"
             d="m 531.938,605 c -6.137,0 -11.993,0.555 -16.735,1.262 -5.39,0.808 -22.051,5.144 -23.316,12.41 -13.957,-3.871 -28.25,-6.664 -42.117,-6.664 -0.575,0 -1.153,0.004 -1.723,0.012 -10.906,0.187 -21.574,1.839 -32.207,4.23 -7.567,1.699 -15.93,3.645 -22.356,8.223 -11.621,8.281 -12.136,21.023 0.942,28.3 10.551,5.864 22.949,8.625 35.285,8.625 2.824,0 5.648,-0.144 8.441,-0.429 0.641,3.554 3.395,6.551 8.551,6.551 0.039,0 0.082,0 0.121,0 1.41,0 2.856,-0.223 4.321,-0.567 -3.442,11.258 23.296,17.84 31.304,18.274 1.946,0.101 4.028,0.183 6.172,0.183 7.313,0 15.352,-0.93 20.996,-4.992 2.871,-2.047 4.707,-4.566 5.742,-7.363 2.801,4.019 7.746,6.461 12.875,6.461 1.711,0 3.438,-0.27 5.118,-0.844 0.41,2.461 1.406,4.902 2.675,6.672 3.489,4.863 9.371,8.441 15.407,8.441 1.769,0 3.554,-0.308 5.296,-0.98 6.563,-2.539 9.469,-8.227 9.333,-14.848 5.421,3.047 11.937,4.715 18.136,4.715 3.383,0 6.672,-0.496 9.641,-1.539 3.941,-1.395 6.64,-3.653 8.238,-6.348 15.371,3.129 26.246,3.996 37.363,3.996 4.114,0 8.258,-0.117 12.676,-0.285 11.582,-0.43 20.899,-1.387 35.664,-5.605 14.731,-4.207 13.637,-16.805 1.684,-19.668 l 2.207,-0.176 c 9.098,-0.891 29.18,-3.527 31.363,-14.484 2.309,-11.52 -28.75,-14.532 -37.305,-15.731 -9.394,-1.316 -18.601,-2.156 -27.792,-2.156 -6.555,0 -13.106,0.426 -19.708,1.414 -1.542,-2.063 -3.335,-3.797 -5.156,-5.031 -3.801,-2.547 -8.058,-3.746 -12.301,-3.746 -3.355,0 -6.707,0.753 -9.804,2.183 -5.199,-3.035 -11.25,-4.91 -15.957,-5.484 -2.703,-0.336 -5.524,-0.508 -8.399,-0.508 -7.582,0 -15.527,1.215 -22.582,3.965 C 555.957,606.945 543.445,605 531.938,605" /></g></g><path
         id="path106"
         style="fill:#ffffff;fill-opacity:1;fill-rule:nonzero;stroke:none"
         d="m 937.043,765.652 h -14.992 c 1.719,0.528 3.484,0.887 5.226,1.094 0.911,0.109 1.821,0.164 2.719,0.164 2.469,0 4.859,-0.41 7.047,-1.258" /><g
         id="g108"><g
           clip-path="url(#clipPath114)"
           id="g110"><path
             id="path124"
             style="fill:url(#linearGradient122);fill-opacity:1;fill-rule:nonzero;stroke:none"
             d="m 926.215,702.93 c -9.145,0 -20.07,3.226 -24.262,10.976 -5.488,-2.015 -11.23,-3.218 -16.375,-3.218 -0.937,0 -1.859,0.039 -2.758,0.121 -7.527,0.695 -18.211,4.789 -21.316,12.363 -3.945,9.601 7.043,19.25 15.832,20.703 1.457,0.246 2.894,0.359 4.305,0.359 5.121,0 9.902,-1.531 14.16,-4.117 l 0.078,0.36 c 1.223,3.832 4.695,6.293 8.484,7.246 1.321,0.328 2.723,0.5 4.125,0.5 0.27,0 0.539,-0.008 0.809,-0.02 -1.192,2.813 -1.199,6.004 0.808,9.094 2.739,4.183 7.176,6.902 11.946,8.355 h 14.992 c 3.527,-1.363 6.512,-3.863 8.395,-7.613 0.695,-1.379 1.093,-2.883 1.308,-4.426 0.199,0.008 0.395,0.008 0.59,0.008 4.555,0 8.703,-1.766 10.867,-6.355 0.645,-1.348 1.008,-2.805 1.192,-4.297 4.199,3.234 9.101,5.469 14.589,6.121 1.977,0.238 4.086,0.398 6.227,0.398 6.484,0 13.258,-1.441 17.426,-6.441 3.113,-3.75 3.223,-7.617 1.551,-11.055 0.578,0.028 1.162,0.043 1.742,0.043 3.17,0 6.31,-0.484 8.52,-2.367 5.32,-4.551 -1.79,-10.547 -5.77,-12.453 -2.96,-1.414 -6.762,-2.25 -10.563,-2.25 -2.195,0.004 -4.39,0.281 -6.418,0.887 -1.316,-3.411 -4.011,-5.938 -7.781,-7.579 -3.395,-1.464 -6.723,-2.128 -9.926,-2.128 -6.172,0 -11.871,2.476 -16.629,6.519 -6.797,-5.566 -16.601,-9.07 -23.175,-9.617 -0.961,-0.078 -1.958,-0.117 -2.973,-0.117" /></g></g><g
         id="g126"><g
           clip-path="url(#clipPath132)"
           id="g128"><path
             id="path142"
             style="fill:url(#linearGradient140);fill-opacity:1;fill-rule:nonzero;stroke:none"
             d="m 302.383,446.766 c -10.852,0 -23.824,3.832 -28.797,13.031 -6.527,-2.399 -13.348,-3.828 -19.457,-3.828 -1.109,0 -2.199,0.047 -3.262,0.144 -8.941,0.828 -21.629,5.684 -25.308,14.688 -4.692,11.394 8.355,22.851 18.789,24.582 1.726,0.285 3.429,0.422 5.101,0.422 6.082,0 11.77,-1.817 16.828,-4.887 l 0.09,0.43 c 1.446,4.543 5.574,7.461 10.071,8.601 1.582,0.391 3.253,0.59 4.929,0.59 0.309,0 0.617,-0.008 0.93,-0.023 -1.406,3.343 -1.43,7.132 0.957,10.793 4.422,6.757 12.586,10.3 20.391,11.23 1.074,0.125 2.148,0.191 3.21,0.191 7.661,0 14.731,-3.32 18.348,-10.542 0.832,-1.629 1.313,-3.418 1.563,-5.247 0.238,0.008 0.468,0.012 0.703,0.012 5.41,0 10.328,-2.098 12.89,-7.551 0.774,-1.597 1.196,-3.328 1.426,-5.105 4.981,3.84 10.805,6.492 17.317,7.273 2.343,0.282 4.843,0.469 7.382,0.469 7.704,0 15.746,-1.711 20.704,-7.644 3.703,-4.454 3.82,-9.043 1.843,-13.125 0.684,0.031 1.367,0.05 2.055,0.05 3.762,0 7.508,-0.578 10.137,-2.812 6.304,-5.403 -2.141,-12.524 -6.86,-14.785 -3.515,-1.68 -8.039,-2.672 -12.554,-2.672 -2.602,0 -5.204,0.332 -7.61,1.047 -1.57,-4.039 -4.765,-7.047 -9.25,-8.993 -4.027,-1.734 -7.98,-2.527 -11.781,-2.527 -7.324,0 -14.09,2.942 -19.738,7.742 -8.071,-6.609 -19.707,-10.769 -27.512,-11.418 -1.145,-0.089 -2.324,-0.136 -3.535,-0.136" /></g></g><g
         id="g144"><g
           clip-path="url(#clipPath150)"
           id="g146"><path
             id="path160"
             style="fill:url(#linearGradient158);fill-opacity:1;fill-rule:nonzero;stroke:none"
             d="m 1353.6,636.973 c -10.96,0 -22.44,3.5 -30.05,11.152 -11.48,-4.965 -25.6,-6.512 -36.47,-6.512 -0.44,0 -0.87,0.004 -1.3,0.008 -8.81,0.078 -24.55,2.02 -30.14,10.067 -1.24,-0.301 -2.46,-0.594 -3.65,-0.868 -9.37,-2.191 -19.24,-4.211 -28.98,-4.211 -1.29,0 -2.58,0.036 -3.87,0.11 -13.34,0.793 -28.3,2.879 -40.22,9.304 -10.01,5.395 -14.46,15.239 -5.27,24.165 10.3,9.972 23.49,13.57 37.05,13.57 4.21,0 8.45,-0.344 12.65,-0.953 l 0.06,0.508 c 0.78,4.496 5.08,8.125 9.55,8.125 0.92,0 1.84,-0.153 2.74,-0.481 1.19,-0.441 2.27,-1.094 3.24,-1.894 3.08,13.503 29.95,22.656 41.08,23.566 1.92,0.16 3.98,0.266 6.11,0.266 8.78,0 18.66,-1.809 23.73,-9.094 0.97,-1.387 1.75,-2.805 2.36,-4.223 2.66,2.102 5.99,3.262 9.3,3.262 2.47,0 4.92,-0.645 7.07,-2.02 -0.66,2.696 -0.48,5.657 0.83,8.379 4.73,9.785 17.44,13.313 27.53,13.36 0.09,0 0.18,0 0.26,0 6.35,0 13.8,-1.403 19.15,-5.274 0.36,2.004 1.15,3.973 2.42,5.762 5.71,8.086 15.71,13.594 25.47,14.988 1.97,0.281 4.01,0.442 6.05,0.442 7.49,0 15.02,-2.157 19.7,-8.383 v -94.391 c -5.77,-2.883 -11.96,-4.758 -18.41,-5.762 -2.64,-0.41 -5.49,-0.632 -8.44,-0.632 -8.27,0 -17.29,1.738 -24.41,5.894 -7.28,-5.351 -17.04,-8.211 -25,-8.23 -0.05,0 -0.09,0 -0.14,0" /></g></g><g
         id="g162"><g
           clip-path="url(#clipPath168)"
           id="g164"><path
             id="path178"
             style="fill:url(#linearGradient176);fill-opacity:1;fill-rule:nonzero;stroke:none"
             d="m 0,645.703 v 94.391 c 0.203125,-0.27 0.402344,-0.547 0.597656,-0.836 2.957034,-4.395 4.265624,-9.856 3.855474,-15.047 0.19531,0.008 0.39062,0.012 0.58593,0.012 1.66016,0 3.32032,-0.289 4.96094,-0.727 1.2305,-0.34 2.4531,-0.703 3.6328,-1.328 4.375,-2.273 7.4805,-6.035 9.2774,-10.379 6.0312,8.926 19.1211,13.113 33.1132,13.113 16.7852,0 34.8633,-6.027 43.586,-17.117 l 1.1996,-0.031 c 9.523,-0.156 21.086,-0.496 29.386,-5.848 14.114,-9.093 11.446,-25.226 -1.562,-33.644 C 114.523,659.148 96.9336,655.07 80.5586,652.355 68,650.266 55.0625,648.785 42.2109,648.785 31.4414,648.789 20.7305,649.824 10.3594,652.41 L 10,652.141 C 8.78906,651.16 7.55859,650.242 6.44531,649.473 4.36328,648.063 2.21094,646.809 0,645.703" /></g></g><g
         id="g180"><g
           clip-path="url(#clipPath186)"
           id="g182"><path
             id="path196"
             style="fill:url(#linearGradient194);fill-opacity:1;fill-rule:nonzero;stroke:none"
             d="m 1346.4,362.898 c -8.86,0 -19.32,1.571 -26.62,6.758 -1.21,-2.285 -3.25,-4.097 -5.91,-4.793 -0.91,-0.238 -1.83,-0.351 -2.74,-0.351 -2.58,0 -5.08,0.902 -7.04,2.453 l -0.13,0.039 c -1.09,-0.262 -2.19,-0.406 -3.26,-0.406 -1.44,0 -2.86,0.261 -4.21,0.863 -9.19,4.062 -13.67,14.707 -13.9,24.297 -0.45,18.152 11.3,32.422 28.56,35.359 1.78,1.113 3.65,2.024 5.7,2.629 2.16,0.641 4.48,0.988 6.79,0.988 5.05,0 10.09,-1.66 13.51,-5.566 0.92,-1.066 1.67,-2.23 2.26,-3.438 3.22,1.024 6.63,1.543 10.03,1.543 5.81,0 11.61,-1.515 16.4,-4.621 3.96,-2.578 7.66,-6.101 8.97,-10.586 3.34,-0.339 6.59,-1.66 9.47,-4.179 0.9,-0.782 1.68,-1.797 2.32,-2.918 1.54,1.047 3.32,1.695 5.18,1.695 0.42,0 0.85,-0.035 1.29,-0.105 -0.3,1.777 0.27,3.711 2.11,5.468 3.11,2.977 8.1,4.161 12.61,4.161 1.22,0 2.4,-0.086 3.5,-0.247 5.5,-0.808 12.93,-4.773 11.81,-11.519 1.82,1.027 3.87,1.629 6.01,1.629 0.3,0 0.59,-0.012 0.89,-0.035 v -27.493 c -3.72,-4.156 -9.28,-7.054 -14.57,-7.835 -1.39,-0.2 -2.96,-0.313 -4.61,-0.313 -5.14,0 -11.14,1.086 -15.35,3.945 -2.1,-2.254 -5.26,-3.457 -8.27,-3.789 -1.02,-0.109 -2.09,-0.168 -3.21,-0.168 -4.77,0 -10.25,1.075 -14.47,3.571 l -1.18,-0.871 c -5.45,-3.719 -11.49,-5.711 -18.09,-6.067 -1.23,-0.062 -2.53,-0.098 -3.85,-0.098" /></g></g><g
         id="g198"><g
           clip-path="url(#clipPath204)"
           id="g200"><path
             id="path214"
             style="fill:url(#linearGradient212);fill-opacity:1;fill-rule:nonzero;stroke:none"
             d="m 68.2695,373.82 c -3.3476,0 -6.6914,0.133 -10.0078,0.446 -5.8203,0.547 -11.7461,1.379 -17.3437,3.097 -2.8711,0.871 -6.1719,1.809 -9.1992,3.133 L 31.0078,379.18 30,378.125 c -2.2773,-2.355 -5.6367,-3.164 -8.8867,-3.184 -0.0742,0 -0.1485,0 -0.2227,0 -5.6797,0 -12.28904,1.481 -17.81638,4.211 C 2.31641,377.488 1.26172,375.934 0,374.523 v 27.493 c 0.351563,-0.028 0.703125,-0.071 1.05469,-0.129 3.18359,-0.547 7.01172,-2.09 10.01951,-4.387 0.0039,-0.004 0.0156,-0.008 0.0274,-0.008 0.4297,0 4.7578,2.465 10.2851,3.375 0.9883,0.164 2.3203,0.242 3.8985,0.242 1.3945,0 2.9882,-0.062 4.7148,-0.179 14.7266,-1.008 39.6758,-6.34 40.7227,-15.071 1.1836,0.075 2.375,0.118 3.5546,0.118 5.8047,0 11.379,-1.067 14.9805,-5.071 1.043,-1.16 0.6172,-3.308 -0.6367,-4.148 -3.8945,-2.598 -8.4141,-2.539 -12.957,-2.742 -2.4571,-0.121 -4.9258,-0.196 -7.3946,-0.196" /></g></g></g></g></svg>