<svg width="1200" height="33" viewBox="0 0 1200 33" fill="none" xmlns="http://www.w3.org/2000/svg">
<path d="M28.8646 18.4322H28.8714H28.8599H28.8646ZM28.0597 17.8379C28.1733 18.2014 28.5015 18.4294 28.8646 18.4322C28.9435 18.4313 29.0332 18.4089 29.1228 18.3865C29.5686 18.2494 29.8202 17.7579 29.6715 17.3122C29.6372 17.2094 26.2079 7.00366 16 7.00366C5.79218 7.00366 2.36287 17.2094 2.32859 17.3122C2.17998 17.7579 2.43147 18.2379 2.87727 18.3865C3.33451 18.5351 3.81461 18.2837 3.96321 17.8379L3.96526 17.832C4.11809 17.3867 7.09347 8.71795 16.0115 8.71795C24.9734 8.71795 27.934 17.4608 28.0597 17.8379ZM10.2858 18.4322C10.2858 15.2763 12.8442 12.7179 16 12.7179C19.1559 12.7179 21.7143 15.2763 21.7143 18.4322C21.7143 21.5881 19.1559 24.1465 16 24.1465C12.8442 24.1465 10.2858 21.5881 10.2858 18.4322Z" fill="#008ED4"/>
<path d="M53.3395 12.5996C53.2732 11.9793 52.9938 11.4964 52.5014 11.1507C52.0137 10.8051 51.3793 10.6323 50.598 10.6323C50.0488 10.6323 49.5777 10.7151 49.1847 10.8809C48.7917 11.0466 48.491 11.2715 48.2827 11.5556C48.0743 11.8397 47.9678 12.164 47.9631 12.5286C47.9631 12.8316 48.0317 13.0944 48.169 13.3169C48.3111 13.5395 48.5028 13.7289 48.7443 13.8851C48.9858 14.0366 49.2533 14.1645 49.5469 14.2686C49.8404 14.3728 50.1364 14.4604 50.4347 14.5314L51.7983 14.8723C52.3475 15.0002 52.8755 15.173 53.3821 15.3908C53.8935 15.6086 54.3504 15.8832 54.7528 16.2147C55.16 16.5461 55.482 16.9462 55.7188 17.415C55.9555 17.8837 56.0739 18.4329 56.0739 19.0627C56.0739 19.915 55.8561 20.6654 55.4205 21.3141C54.9848 21.958 54.3551 22.4623 53.5312 22.8269C52.7121 23.1867 51.7202 23.3667 50.5554 23.3667C49.4238 23.3667 48.4413 23.1915 47.608 22.8411C46.7794 22.4907 46.1307 21.9793 45.6619 21.307C45.1979 20.6346 44.947 19.8155 44.9091 18.8496H47.5014C47.5393 19.3562 47.6955 19.7776 47.9702 20.1138C48.2448 20.45 48.6023 20.7009 49.0426 20.8667C49.4877 21.0324 49.9848 21.1152 50.5341 21.1152C51.107 21.1152 51.6089 21.03 52.0398 20.8596C52.4754 20.6844 52.8163 20.4429 53.0625 20.1351C53.3087 19.8226 53.4342 19.458 53.4389 19.0414C53.4342 18.6626 53.3229 18.3501 53.1051 18.1039C52.8873 17.8529 52.5819 17.6446 52.1889 17.4789C51.8007 17.3084 51.3461 17.1569 50.8253 17.0243L49.1705 16.5982C47.9725 16.2904 47.0256 15.824 46.3295 15.199C45.6383 14.5693 45.2926 13.7336 45.2926 12.6919C45.2926 11.8349 45.5246 11.0845 45.9886 10.4405C46.4574 9.79658 47.0942 9.29705 47.8991 8.94194C48.7041 8.58209 49.6155 8.40217 50.6335 8.40217C51.6657 8.40217 52.5701 8.58209 53.3466 8.94194C54.1278 9.29705 54.741 9.79184 55.1861 10.4263C55.6312 11.056 55.8608 11.7805 55.875 12.5996H53.3395ZM61.4935 23.3667C60.8022 23.3667 60.1796 23.2435 59.6256 22.9973C59.0764 22.7464 58.6408 22.3771 58.3188 21.8894C58.0016 21.4017 57.8429 20.8004 57.8429 20.0854C57.8429 19.4699 57.9566 18.9609 58.1838 18.5584C58.4111 18.156 58.7213 17.834 59.1142 17.5925C59.5072 17.351 59.9499 17.1687 60.4424 17.0456C60.9395 16.9178 61.4533 16.8255 61.9836 16.7686C62.6228 16.7024 63.1412 16.6432 63.539 16.5911C63.9367 16.5343 64.2255 16.449 64.4054 16.3354C64.5901 16.217 64.6824 16.0347 64.6824 15.7885V15.7459C64.6824 15.2109 64.5238 14.7966 64.2066 14.503C63.8893 14.2095 63.4324 14.0627 62.8358 14.0627C62.2061 14.0627 61.7066 14.2 61.3373 14.4746C60.9727 14.7492 60.7265 15.0736 60.5986 15.4476L58.1981 15.1067C58.3874 14.4438 58.6999 13.8899 59.1356 13.4448C59.5712 12.995 60.1038 12.6588 60.7336 12.4363C61.3633 12.209 62.0593 12.0953 62.8216 12.0953C63.3472 12.0953 63.8704 12.1569 64.3912 12.28C64.9121 12.4031 65.3879 12.6067 65.8188 12.8908C66.2497 13.1702 66.5953 13.5513 66.8557 14.0343C67.1209 14.5172 67.2535 15.1209 67.2535 15.8453V23.1465H64.7819V21.6479H64.6966C64.5404 21.9509 64.3202 22.235 64.0361 22.5002C63.7568 22.7606 63.404 22.9713 62.9779 23.1323C62.5565 23.2885 62.0617 23.3667 61.4935 23.3667ZM62.1611 21.4775C62.6772 21.4775 63.1247 21.3757 63.5035 21.1721C63.8822 20.9637 64.1734 20.6891 64.377 20.3482C64.5854 20.0073 64.6895 19.6356 64.6895 19.2331V17.9476C64.609 18.0139 64.4717 18.0755 64.2776 18.1323C64.0882 18.1891 63.8751 18.2388 63.6384 18.2814C63.4017 18.324 63.1673 18.3619 62.9353 18.3951C62.7033 18.4282 62.502 18.4566 62.3316 18.4803C61.9481 18.5324 61.6048 18.6176 61.3017 18.736C60.9987 18.8543 60.7596 19.0201 60.5844 19.2331C60.4092 19.4415 60.3216 19.7114 60.3216 20.0428C60.3216 20.5163 60.4945 20.8738 60.8401 21.1152C61.1857 21.3567 61.6261 21.4775 62.1611 21.4775ZM63.9225 10.7033H61.9623L61.8628 9.33967C62.3647 9.32073 62.7198 9.25681 62.9282 9.1479C63.1365 9.03427 63.2383 8.87802 63.2336 8.67915C63.2383 8.42347 63.101 8.24592 62.8216 8.14648C62.5423 8.04705 62.1966 7.99734 61.7847 7.99734L61.8486 6.72603C63.0229 6.72603 63.913 6.89648 64.5191 7.23739C65.1251 7.5783 65.4258 8.04232 65.4211 8.62944C65.4258 9.07925 65.2719 9.41542 64.9594 9.63796C64.6469 9.85576 64.3013 9.99307 63.9225 10.0499V10.7033ZM72.4547 16.7544V23.1465H69.8837V12.2374H72.3411V14.0911H72.4689C72.7199 13.4803 73.1199 12.995 73.6692 12.6351C74.2232 12.2753 74.9074 12.0953 75.7217 12.0953C76.4746 12.0953 77.1304 12.2563 77.6891 12.5783C78.2525 12.9003 78.6881 13.3667 78.9959 13.9775C79.3084 14.5882 79.4623 15.3292 79.4575 16.2005V23.1465H76.8865V16.5982C76.8865 15.869 76.6971 15.2985 76.3183 14.8865C75.9443 14.4746 75.4258 14.2686 74.7629 14.2686C74.3131 14.2686 73.913 14.3681 73.5627 14.5669C73.217 14.7611 72.9448 15.0428 72.7459 15.4121C72.5518 15.7814 72.4547 16.2289 72.4547 16.7544ZM87.1221 27.2374V12.2374H89.6505V14.0414H89.7997C89.9322 13.7762 90.1193 13.4945 90.3608 13.1962C90.6022 12.8932 90.9289 12.6351 91.3409 12.4221C91.7528 12.2042 92.2784 12.0953 92.9176 12.0953C93.7604 12.0953 94.5203 12.3108 95.1974 12.7417C95.8792 13.1678 96.419 13.7999 96.8167 14.638C97.2192 15.4713 97.4204 16.494 97.4204 17.7061C97.4204 18.9041 97.2239 19.9221 96.8309 20.7601C96.4379 21.5982 95.9029 22.2374 95.2258 22.6777C94.5487 23.1181 93.7817 23.3382 92.9247 23.3382C92.2997 23.3382 91.7812 23.2341 91.3693 23.0257C90.9573 22.8174 90.6259 22.5665 90.375 22.2729C90.1287 21.9746 89.937 21.6929 89.7997 21.4277H89.6931V27.2374H87.1221ZM89.6434 17.6919C89.6434 18.3974 89.7429 19.0153 89.9417 19.5456C90.1453 20.0759 90.4365 20.4902 90.8153 20.7885C91.1988 21.0821 91.6628 21.2289 92.2073 21.2289C92.7755 21.2289 93.2514 21.0774 93.6349 20.7743C94.0184 20.4666 94.3072 20.0475 94.5014 19.5172C94.7002 18.9822 94.7997 18.3738 94.7997 17.6919C94.7997 17.0149 94.7026 16.4135 94.5085 15.888C94.3144 15.3624 94.0255 14.9505 93.642 14.6522C93.2585 14.3539 92.7803 14.2047 92.2073 14.2047C91.6581 14.2047 91.1917 14.3491 90.8082 14.638C90.4247 14.9268 90.1335 15.3316 89.9346 15.8525C89.7405 16.3733 89.6434 16.9864 89.6434 17.6919ZM102.238 16.7544V23.1465H99.6671V8.60103H102.181V14.0911H102.309C102.565 13.4756 102.96 12.9902 103.495 12.6351C104.035 12.2753 104.722 12.0953 105.555 12.0953C106.312 12.0953 106.973 12.254 107.536 12.5712C108.1 12.8884 108.535 13.3524 108.843 13.9632C109.156 14.574 109.312 15.3198 109.312 16.2005V23.1465H106.741V16.5982C106.741 15.8643 106.552 15.2937 106.173 14.8865C105.799 14.4746 105.273 14.2686 104.596 14.2686C104.142 14.2686 103.734 14.3681 103.375 14.5669C103.019 14.7611 102.74 15.0428 102.536 15.4121C102.338 15.7814 102.238 16.2289 102.238 16.7544ZM115.117 23.3667C114.426 23.3667 113.803 23.2435 113.249 22.9973C112.7 22.7464 112.264 22.3771 111.942 21.8894C111.625 21.4017 111.466 20.8004 111.466 20.0854C111.466 19.4699 111.58 18.9609 111.807 18.5584C112.035 18.156 112.345 17.834 112.738 17.5925C113.131 17.351 113.573 17.1687 114.066 17.0456C114.563 16.9178 115.077 16.8255 115.607 16.7686C116.246 16.7024 116.765 16.6432 117.162 16.5911C117.56 16.5343 117.849 16.449 118.029 16.3354C118.214 16.217 118.306 16.0347 118.306 15.7885V15.7459C118.306 15.2109 118.147 14.7966 117.83 14.503C117.513 14.2095 117.056 14.0627 116.459 14.0627C115.83 14.0627 115.33 14.2 114.961 14.4746C114.596 14.7492 114.35 15.0736 114.222 15.4476L111.821 15.1067C112.011 14.4438 112.323 13.8899 112.759 13.4448C113.195 12.995 113.727 12.6588 114.357 12.4363C114.987 12.209 115.683 12.0953 116.445 12.0953C116.971 12.0953 117.494 12.1569 118.015 12.28C118.536 12.4031 119.011 12.6067 119.442 12.8908C119.873 13.1702 120.219 13.5513 120.479 14.0343C120.744 14.5172 120.877 15.1209 120.877 15.8453V23.1465H118.405V21.6479H118.32C118.164 21.9509 117.944 22.235 117.66 22.5002C117.38 22.7606 117.027 22.9713 116.601 23.1323C116.18 23.2885 115.685 23.3667 115.117 23.3667ZM115.785 21.4775C116.301 21.4775 116.748 21.3757 117.127 21.1721C117.506 20.9637 117.797 20.6891 118 20.3482C118.209 20.0073 118.313 19.6356 118.313 19.2331V17.9476C118.232 18.0139 118.095 18.0755 117.901 18.1323C117.712 18.1891 117.499 18.2388 117.262 18.2814C117.025 18.324 116.791 18.3619 116.559 18.3951C116.327 18.4282 116.125 18.4566 115.955 18.4803C115.571 18.5324 115.228 18.6176 114.925 18.736C114.622 18.8543 114.383 19.0201 114.208 19.2331C114.033 19.4415 113.945 19.7114 113.945 20.0428C113.945 20.5163 114.118 20.8738 114.464 21.1152C114.809 21.3567 115.25 21.4775 115.785 21.4775ZM117.446 8.77148L120.216 11.1081H118.235L116.544 9.68057L114.847 11.1081H112.866L115.635 8.77148H117.446ZM120.735 9.82262H119.293L119.201 8.67205C119.603 8.64838 119.897 8.59629 120.081 8.5158C120.271 8.43057 120.366 8.30037 120.366 8.12518C120.366 7.90264 120.247 7.75112 120.01 7.67063C119.774 7.5854 119.473 7.54279 119.108 7.54279L119.179 6.47035C120.107 6.47035 120.811 6.61239 121.289 6.89648C121.772 7.18058 122.013 7.5712 122.013 8.06836C122.013 8.45188 121.881 8.73834 121.616 8.92773C121.35 9.11713 121.057 9.2355 120.735 9.28285V9.82262ZM123.507 23.1465V12.2374H125.965V14.0911H126.092C126.32 13.4661 126.696 12.9784 127.222 12.628C127.747 12.2729 128.375 12.0953 129.104 12.0953C129.842 12.0953 130.465 12.2753 130.972 12.6351C131.483 12.9902 131.843 13.4756 132.051 14.0911H132.165C132.406 13.485 132.813 13.0021 133.386 12.6422C133.964 12.2776 134.648 12.0953 135.439 12.0953C136.443 12.0953 137.262 12.4126 137.896 13.0471C138.531 13.6815 138.848 14.6072 138.848 15.824V23.1465H136.27V16.2218C136.27 15.5447 136.09 15.0499 135.73 14.7374C135.37 14.4202 134.93 14.2615 134.409 14.2615C133.789 14.2615 133.304 14.4557 132.953 14.8439C132.607 15.2275 132.435 15.727 132.435 16.3425V23.1465H129.913V16.1152C129.913 15.5518 129.743 15.102 129.402 14.7658C129.066 14.4296 128.625 14.2615 128.081 14.2615C127.712 14.2615 127.375 14.3562 127.072 14.5456C126.769 14.7303 126.528 14.9931 126.348 15.334C126.168 15.6702 126.078 16.0632 126.078 16.513V23.1465H123.507ZM156.252 12.2374L152.367 23.1465H149.526L145.641 12.2374H148.382L150.889 20.3411H151.003L153.517 12.2374H156.252ZM169.042 11.6763H170.696C170.696 12.4623 170.583 13.1228 170.356 13.6578C170.133 14.1882 169.752 14.5882 169.212 14.8581C168.672 15.128 167.927 15.263 166.975 15.263V13.9703C167.609 13.9703 168.071 13.8899 168.36 13.7289C168.649 13.5632 168.833 13.3098 168.914 12.9689C168.994 12.628 169.037 12.1971 169.042 11.6763ZM165.071 18.5584V12.2374H167.65V23.1465H165.15V21.2076H165.036C164.79 21.8184 164.385 22.3179 163.821 22.7061C163.263 23.0944 162.574 23.2885 161.755 23.2885C161.04 23.2885 160.408 23.1299 159.858 22.8127C159.314 22.4907 158.888 22.0243 158.58 21.4135C158.272 20.798 158.118 20.0546 158.118 19.1834V12.2374H160.689V18.7857C160.694 19.477 160.883 20.0262 161.258 20.4334C161.636 20.8406 162.133 21.0442 162.749 21.0442C163.128 21.0442 163.495 20.9519 163.85 20.7672C164.21 20.5826 164.503 20.3079 164.731 19.9434C164.963 19.574 165.076 19.1124 165.071 18.5584ZM161.954 10.8027L159.773 7.557H162.294L163.878 10.8027H161.954ZM174.854 23.3667C174.162 23.3667 173.54 23.2435 172.986 22.9973C172.437 22.7464 172.001 22.3771 171.679 21.8894C171.362 21.4017 171.203 20.8004 171.203 20.0854C171.203 19.4699 171.317 18.9609 171.544 18.5584C171.771 18.156 172.081 17.834 172.474 17.5925C172.867 17.351 173.31 17.1687 173.803 17.0456C174.3 16.9178 174.813 16.8255 175.344 16.7686C175.983 16.7024 176.501 16.6432 176.899 16.5911C177.297 16.5343 177.586 16.449 177.766 16.3354C177.95 16.217 178.043 16.0347 178.043 15.7885V15.7459C178.043 15.2109 177.884 14.7966 177.567 14.503C177.25 14.2095 176.793 14.0627 176.196 14.0627C175.566 14.0627 175.067 14.2 174.697 14.4746C174.333 14.7492 174.087 15.0736 173.959 15.4476L171.558 15.1067C171.748 14.4438 172.06 13.8899 172.496 13.4448C172.931 12.995 173.464 12.6588 174.094 12.4363C174.723 12.209 175.419 12.0953 176.182 12.0953C176.707 12.0953 177.231 12.1569 177.751 12.28C178.272 12.4031 178.748 12.6067 179.179 12.8908C179.61 13.1702 179.955 13.5513 180.216 14.0343C180.481 14.5172 180.614 15.1209 180.614 15.8453V23.1465H178.142V21.6479H178.057C177.901 21.9509 177.68 22.235 177.396 22.5002C177.117 22.7606 176.764 22.9713 176.338 23.1323C175.917 23.2885 175.422 23.3667 174.854 23.3667ZM175.521 21.4775C176.037 21.4775 176.485 21.3757 176.864 21.1721C177.242 20.9637 177.534 20.6891 177.737 20.3482C177.946 20.0073 178.05 19.6356 178.05 19.2331V17.9476C177.969 18.0139 177.832 18.0755 177.638 18.1323C177.448 18.1891 177.235 18.2388 176.999 18.2814C176.762 18.324 176.527 18.3619 176.295 18.3951C176.063 18.4282 175.862 18.4566 175.692 18.4803C175.308 18.5324 174.965 18.6176 174.662 18.736C174.359 18.8543 174.12 19.0201 173.945 19.2331C173.769 19.4415 173.682 19.7114 173.682 20.0428C173.682 20.5163 173.855 20.8738 174.2 21.1152C174.546 21.3567 174.986 21.4775 175.521 21.4775ZM190.352 12.2374L192.554 16.2644L194.791 12.2374H197.511L194.223 17.6919L197.568 23.1465H194.862L192.554 19.2189L190.267 23.1465H187.54L190.863 17.6919L187.625 12.2374H190.352ZM203.964 23.3596C202.87 23.3596 201.926 23.1323 201.13 22.6777C200.34 22.2185 199.731 21.5698 199.305 20.7317C198.879 19.8889 198.666 18.897 198.666 17.7559C198.666 16.6337 198.879 15.6489 199.305 14.8013C199.736 13.949 200.337 13.2862 201.109 12.8127C201.881 12.3345 202.788 12.0953 203.829 12.0953C204.502 12.0953 205.136 12.2042 205.733 12.4221C206.334 12.6351 206.864 12.9666 207.324 13.4164C207.788 13.8662 208.152 14.4391 208.417 15.1351C208.682 15.8264 208.815 16.6503 208.815 17.6067V18.3951H199.873V16.6621H206.351C206.346 16.1697 206.239 15.7317 206.031 15.3482C205.823 14.9599 205.531 14.6545 205.157 14.432C204.788 14.2095 204.357 14.0982 203.865 14.0982C203.339 14.0982 202.878 14.226 202.48 14.4817C202.082 14.7327 201.772 15.0641 201.549 15.476C201.332 15.8832 201.22 16.3307 201.216 16.8184V18.3311C201.216 18.9656 201.332 19.5101 201.564 19.9647C201.796 20.4145 202.12 20.7601 202.537 21.0016C202.953 21.2383 203.441 21.3567 204 21.3567C204.374 21.3567 204.712 21.3046 205.015 21.2005C205.318 21.0916 205.581 20.9329 205.804 20.7246C206.026 20.5163 206.194 20.2582 206.308 19.9505L208.708 20.2203C208.557 20.8548 208.268 21.4088 207.842 21.8823C207.421 22.351 206.881 22.7156 206.223 22.976C205.565 23.2317 204.812 23.3596 203.964 23.3596ZM211.035 23.1465V12.2374H213.492V14.0911H213.62C213.848 13.4661 214.224 12.9784 214.75 12.628C215.275 12.2729 215.903 12.0953 216.632 12.0953C217.37 12.0953 217.993 12.2753 218.5 12.6351C219.011 12.9902 219.371 13.4756 219.579 14.0911H219.693C219.934 13.485 220.341 13.0021 220.914 12.6422C221.492 12.2776 222.176 12.0953 222.967 12.0953C223.971 12.0953 224.79 12.4126 225.424 13.0471C226.059 13.6815 226.376 14.6072 226.376 15.824V23.1465H223.798V16.2218C223.798 15.5447 223.618 15.0499 223.258 14.7374C222.898 14.4202 222.458 14.2615 221.937 14.2615C221.317 14.2615 220.831 14.4557 220.481 14.8439C220.135 15.2275 219.963 15.727 219.963 16.3425V23.1465H217.441V16.1152C217.441 15.5518 217.271 15.102 216.93 14.7658C216.594 14.4296 216.153 14.2615 215.609 14.2615C215.24 14.2615 214.903 14.3562 214.6 14.5456C214.297 14.7303 214.056 14.9931 213.876 15.334C213.696 15.6702 213.606 16.0632 213.606 16.513V23.1465H211.035Z" fill="black"/>
</svg>
