<svg width="157" height="57" viewBox="0 0 157 57" fill="none" xmlns="http://www.w3.org/2000/svg">
<path d="M11.2734 4.625V16H8.92969L4.35938 8.375V16H2.01562V4.625H4.35938L8.9375 12.2578V4.625H11.2734ZM20.8984 9.25781V11.0859H14.9609V9.25781H20.8984ZM15.6562 4.625V16H13.3125V4.625H15.6562ZM22.5703 4.625V16H20.2344V4.625H22.5703ZM29.375 6.57031L26.2812 16H23.7891L28.0156 4.625H29.6016L29.375 6.57031ZM31.9453 16L28.8438 6.57031L28.5938 4.625H30.1953L34.4453 16H31.9453ZM31.8047 11.7656V13.6016H25.7969V11.7656H31.8047ZM28.6953 1.57812L30.2344 3.98438H28.3906L26.25 1.57812H28.6953ZM44.1484 4.625V16H41.8125V4.625H44.1484ZM47.6484 4.625V6.46094H38.3672V4.625H47.6484ZM56.5703 9.25781V11.0859H50.6328V9.25781H56.5703ZM51.3281 4.625V16H48.9844V4.625H51.3281ZM58.2422 4.625V16H55.9062V4.625H58.2422ZM66.5625 4.625H68.8984V12.1406C68.8984 13.0156 68.7109 13.7526 68.3359 14.3516C67.9661 14.9505 67.4531 15.401 66.7969 15.7031C66.1458 16.0052 65.3958 16.1562 64.5469 16.1562C63.6979 16.1562 62.9427 16.0052 62.2812 15.7031C61.625 15.401 61.1094 14.9505 60.7344 14.3516C60.3646 13.7526 60.1797 13.0156 60.1797 12.1406V4.625H62.5234V12.1406C62.5234 12.651 62.6042 13.0677 62.7656 13.3906C62.9271 13.7135 63.1589 13.9505 63.4609 14.1016C63.7682 14.2526 64.1302 14.3281 64.5469 14.3281C64.974 14.3281 65.3359 14.2526 65.6328 14.1016C65.9349 13.9505 66.1641 13.7135 66.3203 13.3906C66.4818 13.0677 66.5625 12.651 66.5625 12.1406V4.625ZM80.1719 10.0469V10.5859C80.1719 11.4505 80.0547 12.2266 79.8203 12.9141C79.5859 13.6016 79.2552 14.1875 78.8281 14.6719C78.401 15.151 77.8906 15.5182 77.2969 15.7734C76.7083 16.0286 76.0547 16.1562 75.3359 16.1562C74.6224 16.1562 73.9688 16.0286 73.375 15.7734C72.7865 15.5182 72.276 15.151 71.8438 14.6719C71.4115 14.1875 71.0755 13.6016 70.8359 12.9141C70.6016 12.2266 70.4844 11.4505 70.4844 10.5859V10.0469C70.4844 9.17708 70.6016 8.40104 70.8359 7.71875C71.0703 7.03125 71.401 6.44531 71.8281 5.96094C72.2604 5.47656 72.7708 5.10677 73.3594 4.85156C73.9531 4.59635 74.6068 4.46875 75.3203 4.46875C76.0391 4.46875 76.6927 4.59635 77.2812 4.85156C77.875 5.10677 78.3854 5.47656 78.8125 5.96094C79.2448 6.44531 79.5781 7.03125 79.8125 7.71875C80.0521 8.40104 80.1719 9.17708 80.1719 10.0469ZM77.8047 10.5859V10.0312C77.8047 9.42708 77.75 8.89583 77.6406 8.4375C77.5312 7.97917 77.3698 7.59375 77.1562 7.28125C76.9427 6.96875 76.6823 6.73438 76.375 6.57812C76.0677 6.41667 75.7161 6.33594 75.3203 6.33594C74.9245 6.33594 74.5729 6.41667 74.2656 6.57812C73.9635 6.73438 73.7057 6.96875 73.4922 7.28125C73.2839 7.59375 73.125 7.97917 73.0156 8.4375C72.9062 8.89583 72.8516 9.42708 72.8516 10.0312V10.5859C72.8516 11.1849 72.9062 11.7161 73.0156 12.1797C73.125 12.638 73.2865 13.026 73.5 13.3438C73.7135 13.6562 73.974 13.8932 74.2812 14.0547C74.5885 14.2161 74.9401 14.2969 75.3359 14.2969C75.7318 14.2969 76.0833 14.2161 76.3906 14.0547C76.6979 13.8932 76.9557 13.6562 77.1641 13.3438C77.3724 13.026 77.5312 12.638 77.6406 12.1797C77.75 11.7161 77.8047 11.1849 77.8047 10.5859ZM72.4688 3.99219L74.6797 2.17969H75.9297L78.1484 3.99219H76.4922L75.3047 2.98438L74.1172 3.99219H72.4688ZM77.5781 2.92188L78.8594 0.820312H80.6328L78.8594 2.92188H77.5781ZM88.4531 12.2266H90.7891C90.7422 12.9922 90.5312 13.6719 90.1562 14.2656C89.7865 14.8594 89.2682 15.3229 88.6016 15.6562C87.9401 15.9896 87.1432 16.1562 86.2109 16.1562C85.4818 16.1562 84.8281 16.0312 84.25 15.7812C83.6719 15.526 83.1771 15.1615 82.7656 14.6875C82.3594 14.2135 82.0495 13.6406 81.8359 12.9688C81.6224 12.2969 81.5156 11.5443 81.5156 10.7109V9.92188C81.5156 9.08854 81.625 8.33594 81.8438 7.66406C82.0677 6.98698 82.3854 6.41146 82.7969 5.9375C83.2135 5.46354 83.7109 5.09896 84.2891 4.84375C84.8672 4.58854 85.513 4.46094 86.2266 4.46094C87.1745 4.46094 87.974 4.63281 88.625 4.97656C89.2812 5.32031 89.7891 5.79427 90.1484 6.39844C90.513 7.0026 90.7318 7.6901 90.8047 8.46094H88.4609C88.4349 8.0026 88.3438 7.61458 88.1875 7.29688C88.0312 6.97396 87.7943 6.73177 87.4766 6.57031C87.1641 6.40365 86.7474 6.32031 86.2266 6.32031C85.8359 6.32031 85.4948 6.39323 85.2031 6.53906C84.9115 6.6849 84.6667 6.90625 84.4688 7.20312C84.2708 7.5 84.1224 7.875 84.0234 8.32812C83.9297 8.77604 83.8828 9.30208 83.8828 9.90625V10.7109C83.8828 11.2995 83.9271 11.8177 84.0156 12.2656C84.1042 12.7083 84.2396 13.0833 84.4219 13.3906C84.6094 13.6927 84.849 13.9219 85.1406 14.0781C85.4375 14.2292 85.7943 14.3047 86.2109 14.3047C86.7005 14.3047 87.1042 14.2266 87.4219 14.0703C87.7396 13.9141 87.9818 13.6823 88.1484 13.375C88.3203 13.0677 88.4219 12.6849 88.4531 12.2266Z" fill="white"/>
<path d="M10.6973 45.9756L15.1357 29.6719H20.8926L13.7002 51H9.97949L10.6973 45.9756ZM6.66895 29.6719L11.1074 45.9756L11.8545 51H8.08984L0.941406 29.6719H6.66895ZM27.9238 29.6719V51H22.7969V29.6719H27.9238ZM46.2197 47.0449V51H34.8525V47.0449H46.2197ZM36.6836 29.6719V51H31.542V29.6719H36.6836ZM44.7549 38.1387V41.9619H34.8525V38.1387H44.7549ZM46.2637 29.6719V33.6416H34.8525V29.6719H46.2637ZM40.7705 23.959L45.5752 28.0752V28.2656H41.6934L39.3496 26.2734L37.0352 28.2656H33.2266V28.0166L37.9434 23.959H40.7705ZM36.6982 54.2227C36.6982 53.5977 36.9521 53.0752 37.46 52.6553C37.9678 52.2451 38.627 52.04 39.4375 52.04C40.248 52.04 40.9072 52.2451 41.415 52.6553C41.9229 53.0752 42.1768 53.5977 42.1768 54.2227C42.1768 54.8477 41.9229 55.3652 41.415 55.7754C40.9072 56.1953 40.248 56.4053 39.4375 56.4053C38.627 56.4053 37.9678 56.1953 37.46 55.7754C36.9521 55.3652 36.6982 54.8477 36.6982 54.2227ZM58.9492 29.6719V51H53.8076V29.6719H58.9492ZM65.3652 29.6719V33.6416H47.5381V29.6719H65.3652ZM88.5098 38.1387V42.0938H77.5674V38.1387H88.5098ZM79.2812 29.6719V51H74.1396V29.6719H79.2812ZM91.9668 29.6719V51H86.8398V29.6719H91.9668ZM114.701 28.4854H117.704C117.704 29.96 117.523 31.2197 117.162 32.2646C116.811 33.3096 116.181 34.1104 115.272 34.667C114.364 35.2139 113.085 35.4873 111.435 35.4873V33.085C112.499 33.085 113.256 32.8994 113.705 32.5283C114.164 32.1572 114.442 31.6299 114.54 30.9463C114.647 30.2529 114.701 29.4326 114.701 28.4854ZM106.806 29.6719H111.947V43.6025C111.947 45.2627 111.601 46.6689 110.907 47.8213C110.214 48.9639 109.242 49.8281 107.992 50.4141C106.742 51 105.272 51.293 103.583 51.293C101.913 51.293 100.443 51 99.1738 50.4141C97.9141 49.8281 96.9277 48.9639 96.2148 47.8213C95.5117 46.6689 95.1602 45.2627 95.1602 43.6025V29.6719H100.316V43.6025C100.316 44.4814 100.443 45.1992 100.697 45.7559C100.951 46.3027 101.322 46.7031 101.811 46.957C102.299 47.2109 102.89 47.3379 103.583 47.3379C104.286 47.3379 104.877 47.2109 105.355 46.957C105.834 46.7031 106.195 46.3027 106.439 45.7559C106.684 45.1992 106.806 44.4814 106.806 43.6025V29.6719ZM134.667 29.6719V51H129.54L121.996 37.7285V51H116.854V29.6719H121.996L129.54 42.9434V29.6719H134.667ZM155.365 39.6035V48.3633C155.004 48.7637 154.447 49.1934 153.695 49.6523C152.953 50.1016 152.016 50.4873 150.883 50.8096C149.75 51.1318 148.417 51.293 146.884 51.293C145.468 51.293 144.184 51.0684 143.031 50.6191C141.879 50.1602 140.888 49.4912 140.058 48.6123C139.237 47.7236 138.603 46.6396 138.153 45.3604C137.714 44.0713 137.494 42.5967 137.494 40.9365V39.75C137.494 38.0898 137.719 36.6152 138.168 35.3262C138.617 34.0371 139.247 32.9531 140.058 32.0742C140.878 31.1855 141.84 30.5117 142.943 30.0527C144.057 29.5938 145.277 29.3643 146.605 29.3643C148.568 29.3643 150.165 29.6768 151.396 30.3018C152.626 30.917 153.559 31.7715 154.193 32.8652C154.828 33.9492 155.214 35.2041 155.351 36.6299H150.414C150.316 35.9268 150.131 35.3311 149.857 34.8428C149.594 34.3447 149.213 33.9688 148.715 33.7148C148.217 33.4512 147.572 33.3193 146.781 33.3193C146.166 33.3193 145.604 33.4512 145.097 33.7148C144.599 33.9785 144.174 34.3789 143.822 34.916C143.471 35.4434 143.197 36.1074 143.002 36.9082C142.816 37.709 142.724 38.6465 142.724 39.7207V40.9365C142.724 42.001 142.812 42.9336 142.987 43.7344C143.173 44.5352 143.446 45.2041 143.808 45.7412C144.179 46.2686 144.647 46.6689 145.214 46.9424C145.79 47.2061 146.469 47.3379 147.25 47.3379C147.797 47.3379 148.266 47.2939 148.656 47.2061C149.047 47.1084 149.369 46.9912 149.623 46.8545C149.887 46.708 150.087 46.5713 150.224 46.4443V43.1338H146.649V39.6035H155.365Z" fill="url(#paint0_linear_432_2883)"/>
<defs>
<linearGradient id="paint0_linear_432_2883" x1="79" y1="40" x2="79" y2="51" gradientUnits="userSpaceOnUse">
<stop stop-color="#B6E9FF"/>
<stop offset="1" stop-color="white"/>
</linearGradient>
</defs>
</svg>
