<svg width="327" height="154" viewBox="0 0 327 154" fill="none" xmlns="http://www.w3.org/2000/svg">
<ellipse cx="163.97" cy="128.051" rx="95.5677" ry="16.948" fill="url(#paint0_linear_5807_59412)"/>
<g opacity="0.8" filter="url(#filter0_f_5807_59412)">
<path d="M164.234 130.028C155.76 131.911 145.542 130.437 117.627 130.028C89.7115 129.618 73.1183 129.576 73.2013 123.674C73.2843 117.772 95.9813 113.32 123.896 113.73C151.812 114.139 164.317 124.126 164.234 130.028Z" fill="url(#paint1_linear_5807_59412)"/>
</g>
<path d="M117.801 76.3788L152.993 65.4268V109.073L119.166 119.359L117.801 76.3788Z" fill="url(#paint2_linear_5807_59412)"/>
<path d="M199.058 76.3788L152.992 65.4268V109.073L197.854 119.359L199.058 76.3788Z" fill="url(#paint3_linear_5807_59412)"/>
<path d="M151.073 87.531C150.953 87.5327 150.835 87.5016 150.741 87.4432C150.648 87.3848 150.584 87.3028 150.561 87.2117C150.548 87.1606 150.547 87.1081 150.561 87.057C150.574 87.006 150.6 86.9574 150.637 86.9142C150.675 86.8709 150.723 86.8338 150.78 86.805C150.836 86.7762 150.899 86.7563 150.966 86.7464C152.922 86.441 154.803 85.898 156.537 85.1378C156.656 85.0855 156.797 85.0717 156.929 85.0995C157.061 85.1272 157.174 85.1942 157.242 85.2857C157.309 85.3772 157.327 85.4857 157.291 85.5874C157.255 85.689 157.168 85.7755 157.05 85.8278C155.218 86.6284 153.234 87.2007 151.17 87.5231L151.073 87.531ZM161.73 83.0758C161.66 83.0757 161.591 83.0644 161.526 83.0427C161.462 83.0209 161.404 82.9893 161.356 82.9497C161.31 82.9117 161.274 82.8671 161.25 82.8183C161.226 82.7696 161.215 82.7177 161.218 82.6656C161.22 82.6136 161.236 82.5624 161.264 82.515C161.292 82.4677 161.332 82.4251 161.382 82.3898C162.86 81.3276 164.209 80.1636 165.412 78.9124C165.494 78.8282 165.616 78.7724 165.751 78.7573C165.885 78.7421 166.023 78.7688 166.132 78.8316C166.241 78.8943 166.314 78.9879 166.334 79.0918C166.353 79.1957 166.318 79.3013 166.237 79.3855C164.999 80.6736 163.612 81.8731 162.094 82.9694C161.996 83.0403 161.865 83.0785 161.73 83.0758V83.0758ZM169.09 75.5454C169.001 75.5459 168.913 75.5286 168.836 75.4953C168.759 75.462 168.694 75.4137 168.648 75.3553C168.602 75.2969 168.576 75.2303 168.574 75.162C168.571 75.0937 168.592 75.0261 168.634 74.9658C169.59 73.5901 170.42 72.1647 171.118 70.6999C171.164 70.6016 171.26 70.5216 171.383 70.4776C171.507 70.4336 171.648 70.4292 171.776 70.4653C171.903 70.5014 172.007 70.575 172.064 70.67C172.121 70.765 172.127 70.8736 172.08 70.9719C171.355 72.4693 170.499 73.9274 169.52 75.3364C169.478 75.3971 169.416 75.4483 169.341 75.4849C169.265 75.5216 169.179 75.5424 169.09 75.5454ZM173.325 66.6902H173.212C173.08 66.6676 172.965 66.6055 172.892 66.5175C172.819 66.4296 172.794 66.323 172.823 66.221C173.258 64.6997 173.54 63.1549 173.668 61.6002C173.676 61.4957 173.738 61.3979 173.84 61.3284C173.941 61.2589 174.075 61.2234 174.211 61.2296C174.347 61.2359 174.474 61.2835 174.564 61.3618C174.654 61.4402 174.7 61.543 174.692 61.6476C174.561 63.2395 174.27 64.8213 173.822 66.3787C173.797 66.4664 173.735 66.545 173.644 66.6016C173.554 66.6583 173.441 66.6895 173.325 66.6902V66.6902ZM167.666 64.9515C166.819 64.9525 165.974 64.9077 165.136 64.8174C165.069 64.8104 165.004 64.7933 164.945 64.7671C164.887 64.7408 164.835 64.7059 164.794 64.6643C164.753 64.6228 164.723 64.5754 164.705 64.5249C164.688 64.4744 164.684 64.4217 164.693 64.3699C164.702 64.3182 164.724 64.2683 164.758 64.2231C164.793 64.178 164.838 64.1384 164.892 64.1067C164.946 64.0751 165.007 64.0519 165.073 64.0386C165.139 64.0252 165.207 64.0219 165.274 64.0289C167.253 64.2344 169.262 64.1851 171.22 63.883C171.286 63.8727 171.354 63.8726 171.421 63.8827C171.487 63.8928 171.55 63.9129 171.606 63.9419C171.663 63.9708 171.711 64.008 171.748 64.0514C171.786 64.0948 171.811 64.1434 171.824 64.1945C171.85 64.297 171.822 64.403 171.746 64.4895C171.67 64.576 171.553 64.6358 171.42 64.6558C170.184 64.8482 168.927 64.9473 167.666 64.9515ZM159.4 63.3744C159.314 63.3748 159.23 63.3585 159.154 63.3271C157.292 62.5423 155.65 61.4825 154.32 60.2085C154.24 60.1266 154.205 60.024 154.221 59.9223C154.238 59.8207 154.305 59.7281 154.409 59.664C154.513 59.6 154.645 59.5695 154.778 59.5792C154.91 59.5888 155.032 59.6378 155.119 59.7157C156.365 60.9086 157.903 61.9012 159.646 62.6372C159.705 62.6623 159.757 62.696 159.799 62.7366C159.841 62.7771 159.872 62.8236 159.89 62.8734C159.909 62.9232 159.914 62.9753 159.907 63.0268C159.899 63.0783 159.878 63.1281 159.846 63.1734C159.799 63.2313 159.733 63.2789 159.655 63.3114C159.577 63.3439 159.489 63.3602 159.4 63.3587V63.3744ZM177.053 63.0393C176.94 63.0399 176.829 63.0115 176.739 62.9586C176.649 62.9057 176.584 62.8312 176.555 62.7469C176.525 62.6626 176.533 62.5731 176.577 62.4926C176.621 62.4121 176.698 62.3451 176.797 62.302C178.526 61.5417 180.083 60.5696 181.406 59.4239C181.496 59.3456 181.622 59.2978 181.758 59.2912C181.893 59.2845 182.026 59.3195 182.128 59.3884C182.179 59.4229 182.22 59.4649 182.25 59.5118C182.279 59.5587 182.297 59.6097 182.3 59.6618C182.304 59.7138 182.295 59.766 182.272 59.8151C182.25 59.8643 182.215 59.9096 182.169 59.9483C180.766 61.1595 179.116 62.1863 177.283 62.9881C177.213 63.0189 177.134 63.0365 177.053 63.0393V63.0393ZM173.98 57.2988C173.854 57.2995 173.733 57.2645 173.638 57.2005C173.544 57.1366 173.483 57.048 173.468 56.9519C173.225 55.4168 172.734 53.911 172.009 52.4691C171.984 52.4207 171.972 52.369 171.973 52.317C171.974 52.265 171.989 52.2137 172.016 52.166C172.043 52.1184 172.082 52.0753 172.131 52.0394C172.18 52.0034 172.237 51.9753 172.301 51.9565C172.427 51.9192 172.567 51.9219 172.691 51.964C172.815 52.0061 172.912 52.0842 172.961 52.1813C173.723 53.6836 174.239 55.2529 174.498 56.8533C174.515 56.9568 174.478 57.0614 174.396 57.1442C174.313 57.2269 174.191 57.2811 174.057 57.2949L173.98 57.2988ZM151.811 56.2028C151.703 56.2027 151.597 56.1764 151.51 56.1275C151.423 56.0786 151.357 56.0098 151.324 55.9307C150.832 54.8073 150.574 53.6309 150.561 52.4454C150.561 51.9904 150.602 51.5358 150.684 51.0852C150.703 50.9817 150.775 50.8882 150.883 50.8254C150.992 50.7626 151.128 50.7355 151.263 50.7501C151.332 50.7562 151.399 50.7733 151.46 50.8002C151.52 50.8271 151.573 50.8633 151.615 50.9065C151.657 50.9497 151.687 50.9991 151.703 51.0515C151.719 51.104 151.72 51.1584 151.708 51.2114C151.632 51.6202 151.591 52.0324 151.585 52.4454C151.594 53.5475 151.831 54.6415 152.287 55.6863C152.329 55.7856 152.318 55.8937 152.256 55.9869C152.195 56.08 152.088 56.1506 151.959 56.1831C151.911 56.1946 151.861 56.2013 151.811 56.2028V56.2028ZM185.098 56.0963C185.028 56.0967 184.958 56.086 184.894 56.0648C184.832 56.0438 184.776 56.0137 184.73 55.9763C184.684 55.9388 184.647 55.8946 184.623 55.8462C184.599 55.7979 184.587 55.7464 184.589 55.6946C184.59 55.6428 184.605 55.5917 184.632 55.5443C185.428 54.1294 185.968 52.6369 186.235 51.1089C186.254 51.0043 186.325 50.9096 186.434 50.8457C186.543 50.7817 186.681 50.7537 186.817 50.7678C186.952 50.7819 187.075 50.837 187.158 50.9209C187.242 51.0049 187.278 51.1108 187.26 51.2153C186.979 52.8167 186.414 54.3808 185.58 55.8637C185.538 55.9347 185.471 55.9947 185.385 56.0361C185.299 56.0775 185.2 56.0985 185.098 56.0963ZM169.463 48.6053C169.386 48.6056 169.309 48.5923 169.239 48.5663C169.169 48.5404 169.107 48.5025 169.059 48.4555C167.863 47.2405 166.335 46.243 164.583 45.534C164.466 45.4855 164.377 45.4039 164.337 45.3063C164.297 45.2086 164.307 45.1027 164.366 45.011C164.426 44.9192 164.529 44.8489 164.654 44.8147C164.78 44.7806 164.918 44.7855 165.039 44.8282C166.93 45.5924 168.577 46.6696 169.863 47.9824C169.905 48.0229 169.936 48.0695 169.955 48.1195C169.974 48.1694 169.98 48.2218 169.972 48.2734C169.965 48.3251 169.944 48.3751 169.911 48.4206C169.878 48.466 169.834 48.506 169.781 48.5383C169.689 48.5898 169.577 48.6174 169.463 48.6171V48.6053ZM153.634 47.2687C153.536 47.2687 153.44 47.2471 153.357 47.2065C153.275 47.1659 153.209 47.1079 153.168 47.0394C153.128 46.971 153.113 46.8949 153.126 46.8202C153.14 46.7456 153.181 46.6755 153.244 46.6182C154.665 45.3319 156.606 44.4503 158.755 44.1146C158.891 44.0942 159.032 44.1162 159.146 44.1757C159.261 44.2353 159.34 44.3274 159.367 44.432C159.393 44.5366 159.365 44.645 159.287 44.7333C159.21 44.8217 159.09 44.8828 158.955 44.9031C157.039 45.1985 155.31 45.9869 154.054 47.1386C154.001 47.1836 153.936 47.2188 153.863 47.2413C153.791 47.2639 153.712 47.2733 153.634 47.2687ZM187.167 46.839C187.032 46.839 186.901 46.7974 186.805 46.7235C186.709 46.6496 186.655 46.5493 186.655 46.4447C186.655 46.1372 186.655 45.8297 186.655 45.5261C186.655 44.3039 186.594 43.0343 186.481 41.749C186.476 41.6973 186.485 41.6453 186.506 41.5961C186.528 41.5468 186.562 41.5013 186.606 41.4622C186.695 41.383 186.822 41.3345 186.957 41.3272C187.093 41.3199 187.227 41.3544 187.33 41.4231C187.433 41.4919 187.496 41.5893 187.505 41.6938C187.623 42.9949 187.685 44.2842 187.685 45.5261C187.685 45.8376 187.685 46.149 187.685 46.4566C187.681 46.557 187.627 46.6526 187.535 46.7237C187.443 46.7948 187.318 46.836 187.188 46.839H187.167ZM186.353 37.4121C186.229 37.4131 186.108 37.3792 186.014 37.3168C185.92 37.2544 185.858 37.1678 185.841 37.0731C185.554 35.5512 185.191 33.9939 184.76 32.4405C184.744 32.3888 184.742 32.3352 184.753 32.2829C184.765 32.2305 184.79 32.1805 184.827 32.1358C184.864 32.091 184.913 32.0525 184.97 32.0226C185.027 31.9927 185.091 31.9719 185.158 31.9615C185.226 31.9512 185.296 31.9514 185.363 31.9623C185.431 31.9732 185.495 31.9944 185.551 32.0248C185.608 32.0552 185.656 32.094 185.692 32.139C185.729 32.184 185.753 32.2342 185.764 32.2867C186.2 33.8637 186.568 35.4408 186.86 36.9705C186.869 37.0224 186.864 37.075 186.846 37.1254C186.828 37.1757 186.797 37.2228 186.755 37.2639C186.713 37.305 186.661 37.3393 186.601 37.3647C186.542 37.3902 186.477 37.4063 186.409 37.4121H186.353ZM183.793 28.1548C183.678 28.1581 183.565 28.1315 183.472 28.0792C183.379 28.027 183.311 27.9523 183.28 27.867C182.732 26.3451 182.123 24.8312 181.473 23.3684C181.448 23.319 181.436 23.2662 181.439 23.2132C181.441 23.1603 181.457 23.1082 181.486 23.0602C181.515 23.0121 181.557 22.9691 181.608 22.9336C181.659 22.8982 181.719 22.871 181.784 22.8538C181.849 22.8365 181.918 22.8296 181.987 22.8333C182.055 22.8371 182.122 22.8514 182.184 22.8755C182.245 22.8997 182.299 22.933 182.343 22.9737C182.387 23.0144 182.421 23.0614 182.441 23.1122C183.101 24.5906 183.716 26.1204 184.269 27.658C184.287 27.708 184.292 27.7602 184.283 27.8116C184.275 27.863 184.253 27.9127 184.22 27.9577C184.187 28.0028 184.142 28.0423 184.089 28.0741C184.036 28.1059 183.975 28.1293 183.91 28.143C183.873 28.1482 183.835 28.1508 183.798 28.1509L183.793 28.1548ZM179.788 19.2089C179.687 19.2089 179.589 19.186 179.505 19.1433C179.421 19.1005 179.356 19.0397 179.317 18.9684C178.536 17.5242 177.656 16.1134 176.679 14.7419C176.646 14.6966 176.624 14.6467 176.615 14.5949C176.607 14.5431 176.612 14.4906 176.629 14.4402C176.647 14.3899 176.678 14.3428 176.719 14.3015C176.761 14.2603 176.812 14.2257 176.871 14.1998C176.93 14.1739 176.995 14.1572 177.062 14.1506C177.129 14.1441 177.198 14.1477 177.263 14.1615C177.328 14.1752 177.39 14.1987 177.443 14.2306C177.497 14.2626 177.542 14.3024 177.575 14.3477C178.57 15.7479 179.467 17.1876 180.264 18.6609C180.317 18.7571 180.318 18.8656 180.267 18.9624C180.216 19.0592 180.117 19.1366 179.993 19.1774C179.928 19.1997 179.858 19.2105 179.788 19.2089V19.2089Z" fill="url(#paint4_linear_5807_59412)"/>
<path d="M169.192 10.4939L175.371 12.6837L172.429 8.90037L169.192 10.4939Z" fill="url(#paint5_linear_5807_59412)"/>
<path d="M158.95 0.000721182L180.103 3.30549L175.594 6.53304L175.37 12.6843L172.428 8.90098L164.022 14.7816L158.95 0.000721182Z" fill="url(#paint6_linear_5807_59412)"/>
<path d="M158.947 0.000137144L175.591 6.53246L175.367 12.6837L172.425 8.9004L158.947 0.000137144Z" fill="url(#paint7_linear_5807_59412)"/>
<path d="M198.952 117.653C198.952 118.964 198.101 120.123 196.851 120.515L163.902 130.854V87.0353L198.952 76.0371V117.653Z" fill="url(#paint8_linear_5807_59412)"/>
<path d="M118.027 117.49C118.027 118.877 118.979 120.084 120.328 120.407L163.9 130.854V87.0353L118.027 76.0371V117.49Z" fill="url(#paint9_linear_5807_59412)"/>
<g filter="url(#filter1_f_5807_59412)">
<path d="M199.182 101.439L175.296 111.323C175.058 111.425 174.795 111.428 174.555 111.333C174.316 111.237 174.115 111.048 173.99 110.801L163.816 87.5303L199.182 76.4785C198.688 83.7241 199.182 96.4579 199.182 101.439Z" fill="url(#paint10_linear_5807_59412)"/>
</g>
<path d="M163.902 87.0353L198.952 76.0371L209.361 92.2822C210.042 93.3451 209.58 94.7653 208.404 95.2243L178.036 107.078C176.639 107.624 175.054 107.054 174.325 105.744L163.902 87.0353Z" fill="url(#paint11_linear_5807_59412)"/>
<g filter="url(#filter2_f_5807_59412)">
<path d="M163.811 87.5301L154.466 108.455C154.394 108.57 154.285 108.658 154.157 108.707C154.028 108.756 153.887 108.763 153.754 108.726L117.836 98.5819C120.046 90.1826 119.604 88.4143 120.994 80.457L163.811 87.5301Z" fill="url(#paint12_linear_5807_59412)"/>
</g>
<path d="M118.027 76.0371L108.63 91.1701C107.929 92.2993 108.504 93.7857 109.782 94.149L150.744 105.788C151.608 106.034 152.53 105.673 152.998 104.906L163.899 87.0353L118.027 76.0371Z" fill="url(#paint13_linear_5807_59412)"/>
<defs>
<filter id="filter0_f_5807_59412" x="71.1992" y="111.703" width="95.0352" height="21.2598" filterUnits="userSpaceOnUse" color-interpolation-filters="sRGB">
<feFlood flood-opacity="0" result="BackgroundImageFix"/>
<feBlend mode="normal" in="SourceGraphic" in2="BackgroundImageFix" result="shape"/>
<feGaussianBlur stdDeviation="1" result="effect1_foregroundBlur_5807_59412"/>
</filter>
<filter id="filter1_f_5807_59412" x="158.816" y="71.4785" width="45.3672" height="44.9238" filterUnits="userSpaceOnUse" color-interpolation-filters="sRGB">
<feFlood flood-opacity="0" result="BackgroundImageFix"/>
<feBlend mode="normal" in="SourceGraphic" in2="BackgroundImageFix" result="shape"/>
<feGaussianBlur stdDeviation="2.5" result="effect1_foregroundBlur_5807_59412"/>
</filter>
<filter id="filter2_f_5807_59412" x="113.836" y="76.457" width="53.9766" height="36.292" filterUnits="userSpaceOnUse" color-interpolation-filters="sRGB">
<feFlood flood-opacity="0" result="BackgroundImageFix"/>
<feBlend mode="normal" in="SourceGraphic" in2="BackgroundImageFix" result="shape"/>
<feGaussianBlur stdDeviation="2" result="effect1_foregroundBlur_5807_59412"/>
</filter>
<linearGradient id="paint0_linear_5807_59412" x1="164.231" y1="116.82" x2="163.968" y2="144.999" gradientUnits="userSpaceOnUse">
<stop stop-color="#C2C9D4" stop-opacity="0.88"/>
<stop offset="1" stop-color="#C4CAD5" stop-opacity="0.28"/>
</linearGradient>
<linearGradient id="paint1_linear_5807_59412" x1="152.935" y1="124.849" x2="72.6257" y2="121.927" gradientUnits="userSpaceOnUse">
<stop stop-color="#989DA7"/>
<stop offset="1" stop-color="#C4CAD5" stop-opacity="0"/>
</linearGradient>
<linearGradient id="paint2_linear_5807_59412" x1="157.626" y1="100.792" x2="128.887" y2="74.7154" gradientUnits="userSpaceOnUse">
<stop stop-color="#A6AFBF"/>
<stop offset="1" stop-color="#D5DCE7"/>
</linearGradient>
<linearGradient id="paint3_linear_5807_59412" x1="153.204" y1="88.4144" x2="132.427" y2="59.6798" gradientUnits="userSpaceOnUse">
<stop stop-color="#ACB4C4"/>
<stop offset="1" stop-color="#CAD2DF"/>
</linearGradient>
<linearGradient id="paint4_linear_5807_59412" x1="186.358" y1="19.8944" x2="172.567" y2="101.324" gradientUnits="userSpaceOnUse">
<stop stop-color="#B8BFCC"/>
<stop offset="1" stop-color="#F3F5F7"/>
</linearGradient>
<linearGradient id="paint5_linear_5807_59412" x1="171.907" y1="9.70377" x2="166.794" y2="6.39503" gradientUnits="userSpaceOnUse">
<stop stop-color="#B8BFCC"/>
<stop offset="1" stop-color="#C8CDD9"/>
</linearGradient>
<linearGradient id="paint6_linear_5807_59412" x1="199.181" y1="14.4842" x2="155.383" y2="4.36165" gradientUnits="userSpaceOnUse">
<stop stop-color="#B8BFCC"/>
<stop offset="1" stop-color="#F3F5F7"/>
</linearGradient>
<linearGradient id="paint7_linear_5807_59412" x1="162.204" y1="3.43373" x2="171.745" y2="11.0018" gradientUnits="userSpaceOnUse">
<stop stop-color="#B8BFCC"/>
<stop offset="1" stop-color="#C8CDD9"/>
</linearGradient>
<linearGradient id="paint8_linear_5807_59412" x1="223.513" y1="117.898" x2="163.737" y2="100.546" gradientUnits="userSpaceOnUse">
<stop stop-color="#B8BFCC"/>
<stop offset="1" stop-color="#F3F5F7"/>
</linearGradient>
<linearGradient id="paint9_linear_5807_59412" x1="157.496" y1="82.0202" x2="131" y2="123.047" gradientUnits="userSpaceOnUse">
<stop stop-color="#B8BFCC"/>
<stop offset="1" stop-color="#C8CDD9"/>
</linearGradient>
<linearGradient id="paint10_linear_5807_59412" x1="169.469" y1="105.968" x2="231.044" y2="63.8115" gradientUnits="userSpaceOnUse">
<stop stop-color="#B8BFCC"/>
<stop offset="1" stop-color="#F3F5F7" stop-opacity="0"/>
</linearGradient>
<linearGradient id="paint11_linear_5807_59412" x1="261.484" y1="107.937" x2="163.803" y2="92.1453" gradientUnits="userSpaceOnUse">
<stop stop-color="#B8BFCC"/>
<stop offset="1" stop-color="#F3F5F7"/>
</linearGradient>
<linearGradient id="paint12_linear_5807_59412" x1="155.412" y1="86.646" x2="149.143" y2="102.138" gradientUnits="userSpaceOnUse">
<stop stop-color="#ABB2BF"/>
<stop offset="1" stop-color="#B2B8C5"/>
</linearGradient>
<linearGradient id="paint13_linear_5807_59412" x1="127.136" y1="90.8788" x2="179.334" y2="90.8462" gradientUnits="userSpaceOnUse">
<stop stop-color="#B8BFCC"/>
<stop offset="1" stop-color="#F3F5F7"/>
</linearGradient>
</defs>
</svg>
