<svg width="327" height="160" viewBox="0 0 327 160" fill="none" xmlns="http://www.w3.org/2000/svg">
<mask id="mask0_1619_24221" style="mask-type:alpha" maskUnits="userSpaceOnUse" x="6" y="0" width="314" height="160">
<path d="M319.043 0H6V160H319.043V0Z" fill="#D9D9D9"/>
</mask>
<g mask="url(#mask0_1619_24221)">
<mask id="mask1_1619_24221" style="mask-type:alpha" maskUnits="userSpaceOnUse" x="6" y="31" width="160" height="109">
<path d="M165.44 31.3965H6.45996V139.366H165.44V31.3965Z" fill="url(#paint0_linear_1619_24221)"/>
</mask>
<g mask="url(#mask1_1619_24221)">
<path d="M98.166 113.957L89.5679 114.739C88.8487 114.739 88.2646 115.322 88.2646 116.042V139.255H98.9078H112.49V118.774C112.49 118.204 112.12 117.7 111.577 117.53L99.6143 114.178C99.1465 114.031 98.6578 113.957 98.166 113.957Z" fill="url(#paint1_linear_1619_24221)"/>
<path d="M98.2765 122.404L93.9108 121.425C93.205 121.267 92.54 121.831 92.54 122.587V139.614H99.174V123.565C99.174 123.005 98.8001 122.521 98.2765 122.404Z" fill="url(#paint2_linear_1619_24221)"/>
<path d="M99.4841 123.25C99.4841 122.69 99.0925 122.205 98.5443 122.088L93.9686 121.11C93.2289 120.953 92.5322 121.516 92.5322 122.271V122.584C92.5322 121.827 93.1971 121.264 93.903 121.421L98.2687 122.4C98.7923 122.517 99.1651 123.001 99.1651 123.562V139.61H99.4841V123.25Z" fill="url(#paint3_linear_1619_24221)"/>
<path d="M98.2687 122.402L93.903 121.423C93.1971 121.266 92.5322 121.829 92.5322 122.585V128.039V139.611H99.1662V124.749V123.563C99.1662 123.003 98.7923 122.519 98.2687 122.402Z" fill="url(#paint4_linear_1619_24221)"/>
<path opacity="0.25" d="M94.7616 127.153L99.1662 124.748V128.356L92.5322 132.036V128.391L94.7616 127.153Z" fill="url(#paint5_linear_1619_24221)"/>
<path opacity="0.25" d="M92.5322 134.993L99.1662 131.338V132.824L92.5322 136.671V134.993Z" fill="url(#paint6_linear_1619_24221)"/>
<g opacity="0.5">
<path d="M57.6774 74.801H54.5703L54.7092 59.0909L57.6774 57.8545V74.801Z" fill="url(#paint7_linear_1619_24221)"/>
<path d="M63.4786 75.8418H57.5146V57.8545L63.4786 59.9026V75.8418Z" fill="url(#paint8_linear_1619_24221)"/>
</g>
<path d="M38.5822 95.3533H32.1777L32.4642 62.9713L38.5822 60.4229V95.3533Z" fill="url(#paint9_linear_1619_24221)"/>
<path d="M50.5305 97.4986H38.2373V60.4229L50.5305 64.6443V97.4986Z" fill="url(#paint10_linear_1619_24221)"/>
<path d="M38.501 64.208L50.6148 68.246" stroke="#B5D7F7" stroke-width="0.533886"/>
<path d="M38.501 67.8784L50.6148 71.9164" stroke="#B5D7F7" stroke-width="0.533886"/>
<path d="M38.501 71.5488L50.6148 75.5868" stroke="#B5D7F7" stroke-width="0.533886"/>
<path d="M33.8213 65.1949V75.2898L36.9415 75.8405V63.9102L33.8213 65.1949Z" fill="url(#paint11_linear_1619_24221)"/>
<path d="M28.3012 106.845H22.9873V71.7009L28.3012 69.9678V106.845Z" fill="url(#paint12_linear_1619_24221)"/>
<path d="M28.2998 69.9678L40.9731 73.7034V106.566H28.2998V69.9678Z" fill="url(#paint13_linear_1619_24221)"/>
<path d="M77.4452 98.0662H72.5625L72.7808 73.3789L77.4452 71.436V98.0662Z" fill="url(#paint14_linear_1619_24221)"/>
<path d="M86.5605 99.7017H77.1885V71.436L86.5605 74.6544V99.7017Z" fill="url(#paint15_linear_1619_24221)"/>
<path d="M94.7517 102.7H91.6445L91.7835 86.9898L94.7517 85.7534V102.7Z" fill="url(#paint16_linear_1619_24221)"/>
<path d="M100.553 103.741H94.5889V85.7534L100.553 87.8015V103.741Z" fill="url(#paint17_linear_1619_24221)"/>
<path d="M64.9738 100.73H61.1758V75.6113L64.9738 74.3726V100.73Z" fill="url(#paint18_linear_1619_24221)"/>
<path d="M64.9766 74.3726L74.0348 77.0426V100.53H64.9766V74.3726Z" fill="url(#paint19_linear_1619_24221)"/>
<path d="M86.3951 105.679L81.3697 106.08C80.9486 106.08 80.6084 106.421 80.6084 106.841V115.893H86.8285H94.7678V108.723C94.7678 108.39 94.5517 108.096 94.234 107.997L87.2424 105.808C86.9669 105.723 86.682 105.679 86.3951 105.679Z" fill="url(#paint20_linear_1619_24221)"/>
<path d="M91.2187 114.314L82.6206 115.097C81.9014 115.097 81.3174 115.68 81.3174 116.4V139.614H91.9594H105.543V119.132C105.543 118.562 105.174 118.058 104.629 117.889L91.2187 114.314Z" fill="url(#paint21_linear_1619_24221)"/>
<path d="M91.2184 114.314V139.614L81.1143 141.279L84.318 114.943L91.2184 114.314Z" fill="url(#paint22_linear_1619_24221)"/>
<path d="M82.963 101.046L43.7028 90.2361C42.1634 89.8118 40.5602 89.5972 38.9482 89.5972L10.7289 91.1809C8.36739 91.1809 6.45215 92.8654 6.45215 94.9439V100.231C7.10321 99.6881 8.07166 99.6424 9.16793 99.6424L22.6029 108.144C24.2159 108.144 41.5131 107.272 43.1597 107.593L82.0709 113.284C83.855 113.775 85.9625 115.86 85.9625 117.505V104.639C85.9625 102.992 84.7471 101.537 82.963 101.046Z" fill="url(#paint23_linear_1619_24221)"/>
<path d="M83.0258 104.358C82.9835 104.351 82.9423 104.337 82.9011 104.327L43.8295 96.15C42.2046 95.8326 40.6046 95.6687 39.0133 95.6646C38.97 95.6646 38.9277 95.6656 38.8843 95.6676L9.22426 97.2453C9.18635 97.2473 9.14951 97.2484 9.1116 97.2484C8.23306 97.2494 7.4401 97.2857 6.82914 97.5917C6.59623 97.7089 6.45215 97.9256 6.45215 98.1611V104.674C6.45215 105.105 6.91796 105.426 7.39027 105.31C7.89616 105.187 8.48221 105.168 9.1116 105.167C9.14951 105.167 9.18635 105.166 9.22426 105.164L38.8854 103.587C38.9277 103.585 38.97 103.584 39.0112 103.584C40.6003 103.587 42.1071 103.706 43.8284 103.951L82.8134 109.863C82.925 109.879 83.0344 109.904 83.1406 109.939C84.8272 110.475 85.9615 111.886 85.9615 113.476V107.933C85.9636 106.306 85.9636 104.865 83.0258 104.358Z" fill="url(#paint24_linear_1619_24221)"/>
<path d="M82.963 112.277L43.8284 106.342C42.0855 106.094 40.5613 105.975 38.9482 105.975L9.16793 107.56C8.07166 107.56 7.10321 107.605 6.45215 108.147V145.303L41.3813 144.51H85.9625V115.868C85.9625 114.223 85.9625 112.773 82.963 112.277Z" fill="url(#paint25_linear_1619_24221)"/>
<path d="M83.8509 116.85C83.8509 114.747 82.2888 114.586 82.2888 114.586C82.2888 114.586 56.8264 110.784 52.1391 110.325C49.7624 110.091 48.5199 110.708 47.8721 111.371C48.6032 110.907 49.7624 110.58 51.5986 110.76C56.2858 111.22 81.7483 115.021 81.7483 115.021C81.7483 115.021 83.3104 115.183 83.3104 117.285C83.3104 119.207 83.3104 137.651 83.3104 140.438L83.7599 140.37C83.8661 140.495 84.0763 140.423 84.0741 140.262C84.0416 137.038 83.8509 118.765 83.8509 116.85Z" fill="url(#paint26_linear_1619_24221)"/>
<path d="M81.7515 115.019C81.7515 115.019 56.2901 111.218 51.6017 110.759C49.7656 110.578 48.6064 110.905 47.8753 111.369C47.2459 112.014 47.1787 112.703 47.1787 112.703V141.141L60.2311 143.943L83.3146 139.424C83.3146 136.637 83.3146 119.206 83.3146 117.283C83.3136 115.182 81.7515 115.019 81.7515 115.019Z" fill="url(#paint27_linear_1619_24221)"/>
<path d="M12.2577 110.313C12.2577 110.313 33.0089 109.282 36.5241 109.282C37.5349 109.282 38.2595 109.542 38.7805 109.914C38.2552 109.346 37.4156 108.886 36.0734 108.886C32.5572 108.886 11.8069 109.917 11.8069 109.917C11.8069 109.917 9.25586 109.795 9.25586 111.737C9.25586 113.677 9.25586 144.738 9.25586 144.738L9.70546 144.731C9.70546 141.449 9.70546 113.929 9.70546 112.131C9.70646 110.192 12.2577 110.313 12.2577 110.313Z" fill="url(#paint28_linear_1619_24221)"/>
<path d="M39.6595 112.04C39.6595 112.04 39.6324 110.835 38.782 109.913C38.261 109.541 37.5352 109.281 36.5256 109.281C33.0093 109.281 12.2591 110.312 12.2591 110.312C12.2591 110.312 9.70801 110.191 9.70801 112.132C9.70801 113.929 9.70801 141.448 9.70801 144.731L39.6606 143.481C39.5901 143.299 39.6595 112.04 39.6595 112.04Z" fill="url(#paint29_linear_1619_24221)"/>
<path d="M66.4326 112.774V143.607L67.1638 143.567V112.88L66.4326 112.774Z" fill="#00AEEF"/>
<path d="M22.8711 109.858V143.755H23.6445V109.812L22.8711 109.858Z" fill="#00AEEF"/>
<path d="M39.6299 125.978C39.2508 125.987 38.8944 125.997 38.6106 125.997C34.9155 125.997 13.1059 126.632 13.1059 126.632C13.1059 126.632 10.4248 126.51 10.4248 128.451C10.4248 129.282 10.4248 139.819 10.4248 145.596L39.6548 144.357C39.6202 144.265 39.6213 132.822 39.6299 125.978Z" fill="url(#paint30_linear_1619_24221)"/>
<path d="M60.2243 144.824L82.7315 143.598C82.7315 139.694 82.7315 131.844 82.7315 131.045C82.7315 128.944 81.1694 128.781 81.1694 128.781C81.1694 128.781 55.7081 126.564 51.0196 126.105C50.0881 126.014 48.5531 125.883 47.1719 125.836V144.095L60.2243 144.824Z" fill="url(#paint31_linear_1619_24221)"/>
<path opacity="0.23" d="M75.3414 104.579L83.2417 106.256C83.4574 106.302 83.609 106.471 83.609 106.666V107.937C83.609 108.205 83.3294 108.405 83.0316 108.35L75.1312 106.889C74.9092 106.848 74.751 106.677 74.751 106.477V104.988C74.75 104.716 75.0392 104.515 75.3414 104.579Z" fill="#398EDD"/>
<path opacity="0.23" d="M46.2271 99.3275L54.1275 101.005C54.343 101.05 54.4947 101.219 54.4947 101.414V102.686C54.4947 102.954 54.2152 103.154 53.9173 103.099L46.017 101.638C45.7949 101.597 45.6367 101.426 45.6367 101.226V99.7372C45.6346 99.4645 45.9249 99.2632 46.2271 99.3275Z" fill="#398EDD"/>
<path d="M22.8711 110.654V144.822L23.6445 144.512V109.812L22.8711 110.654Z" fill="url(#paint32_linear_1619_24221)"/>
<path opacity="0.2" d="M22.8741 111.686L9.70801 123.846C9.70801 125.481 9.70801 127.157 9.70801 128.779L22.8741 116.416V111.686Z" fill="url(#paint33_linear_1619_24221)"/>
<path opacity="0.2" d="M22.8741 121.994L9.70801 134.194C9.70801 134.773 9.70801 135.322 9.70801 135.835L22.8741 123.512V121.994Z" fill="url(#paint34_linear_1619_24221)"/>
<path opacity="0.2" d="M38.7771 109.922C38.6363 109.822 38.4814 109.731 38.3091 109.649L23.6416 122.956V130.699C23.6416 130.699 35.8188 119.776 39.6449 116.271C39.6502 113.736 39.6546 112.049 39.6546 112.049C39.6546 112.049 39.6275 110.843 38.7771 109.922Z" fill="url(#paint35_linear_1619_24221)"/>
<path opacity="0.2" d="M23.6416 137.568L39.6319 121.269L39.6351 120.973C39.6362 120.473 39.6373 119.982 39.6373 119.504L23.6416 134.399V137.568Z" fill="url(#paint36_linear_1619_24221)"/>
<path d="M66.4326 112.774V141.997L67.1638 141.959V112.874L66.4326 112.774Z" fill="url(#paint37_linear_1619_24221)"/>
<path opacity="0.2" d="M66.4383 112.784L61.765 112.116L47.1787 123.289V129.962L66.4383 113.828V112.784Z" fill="url(#paint38_linear_1619_24221)"/>
<path opacity="0.2" d="M66.4383 121.753L47.1787 138.347V140.749L48.8849 140.667L66.4383 124.198V121.753Z" fill="url(#paint39_linear_1619_24221)"/>
<path opacity="0.2" d="M67.165 128.719L81.7469 115.032L77.4626 114.396L67.165 123.452V128.719Z" fill="url(#paint40_linear_1619_24221)"/>
<path opacity="0.2" d="M67.165 134.734L83.3091 119.522C83.3091 118.929 83.3091 118.426 83.3091 118.034L67.165 133.115V134.734Z" fill="url(#paint41_linear_1619_24221)"/>
<path opacity="0.2" d="M67.165 139.676L75.8355 139.067L83.3102 130.722C83.3102 127.994 83.3102 125.002 83.3102 122.521L67.165 138.509V139.676Z" fill="url(#paint42_linear_1619_24221)"/>
<path opacity="0.7" d="M133.543 83.0921C133.809 82.835 133.954 82.5403 133.965 82.2386C133.975 81.9368 133.851 81.6388 133.603 81.3753C133.355 81.1118 132.993 80.8925 132.556 80.7399C132.117 80.5872 131.619 80.5069 131.111 80.5072H131.017C130.816 79.9246 130.302 79.397 129.551 79.004C128.8 78.611 127.854 78.374 126.857 78.3291C125.86 78.2842 124.865 78.4337 124.024 78.7549C123.181 79.0762 122.539 79.5518 122.192 80.1097C121.089 80.1853 120.07 80.4998 119.33 80.993C118.59 81.4863 118.182 82.1239 118.181 82.7847C118.183 82.8879 118.193 82.9909 118.213 83.0935L133.543 83.0921Z" fill="url(#paint43_linear_1619_24221)"/>
</g>
<mask id="mask2_1619_24221" style="mask-type:alpha" maskUnits="userSpaceOnUse" x="199" y="67" width="159" height="109">
<path d="M357.834 67.8706H199.464V175.426H357.834V67.8706Z" fill="url(#paint44_linear_1619_24221)"/>
</mask>
<g mask="url(#mask2_1619_24221)">
<path d="M303.729 145.461L291.806 146.547C290.809 146.547 289.999 147.355 289.999 148.354V180.542H304.757H323.591V152.141C323.591 151.351 323.078 150.652 322.324 150.417L305.738 145.768C305.088 145.565 304.411 145.461 303.729 145.461Z" fill="url(#paint45_linear_1619_24221)"/>
<path d="M303.88 157.171L297.827 155.814C296.848 155.595 295.926 156.377 295.926 157.425V181.035H305.126V158.782C305.126 158.005 304.606 157.333 303.88 157.171Z" fill="url(#paint46_linear_1619_24221)"/>
<path d="M305.565 158.347C305.565 157.571 305.023 156.899 304.263 156.736L297.918 155.38C296.893 155.161 295.926 155.943 295.926 156.991V157.423C295.926 156.375 296.848 155.593 297.827 155.812L303.88 157.168C304.606 157.331 305.124 158.003 305.124 158.779V181.033H305.565V158.347Z" fill="url(#paint47_linear_1619_24221)"/>
<path d="M303.88 157.171L297.827 155.814C296.848 155.595 295.926 156.377 295.926 157.425V164.987V181.034H305.126V160.426V158.782C305.126 158.005 304.606 157.333 303.88 157.171Z" fill="url(#paint48_linear_1619_24221)"/>
<g opacity="0.5">
<path d="M247.584 91.1646H243.275L243.468 69.3805L247.584 67.666V91.1646Z" fill="url(#paint49_linear_1619_24221)"/>
<path d="M255.626 92.6076H247.356V67.666L255.626 70.5059V92.6076Z" fill="url(#paint50_linear_1619_24221)"/>
</g>
<path d="M221.102 119.663H212.223L212.619 74.7612L221.102 71.2275V119.663Z" fill="url(#paint51_linear_1619_24221)"/>
<path d="M237.68 122.638H220.634V71.2275L237.68 77.0812V122.638Z" fill="url(#paint52_linear_1619_24221)"/>
<path d="M220.968 76.5742L237.765 82.1733" stroke="#B5D7F7" stroke-width="0.533886"/>
<path d="M220.968 81.6641L237.765 87.2632" stroke="#B5D7F7" stroke-width="0.533886"/>
<path d="M220.968 86.7539L237.765 92.3531" stroke="#B5D7F7" stroke-width="0.533886"/>
<path d="M214.511 77.8436V91.8415L218.838 92.6049V76.062L214.511 77.8436Z" fill="url(#paint53_linear_1619_24221)"/>
<path d="M206.864 135.598H199.495V86.8656L206.864 84.4624V135.598Z" fill="url(#paint54_linear_1619_24221)"/>
<path d="M206.87 84.4624L224.443 89.6424V135.21H206.87V84.4624Z" fill="url(#paint55_linear_1619_24221)"/>
<path d="M274.977 123.425H268.207L268.509 89.193L274.977 86.499V123.425Z" fill="url(#paint56_linear_1619_24221)"/>
<path d="M287.612 125.692H274.617V86.499L287.612 90.9617V125.692Z" fill="url(#paint57_linear_1619_24221)"/>
<path d="M298.989 129.849H294.68L294.873 108.064L298.989 106.351V129.849Z" fill="url(#paint58_linear_1619_24221)"/>
<path d="M307.031 131.292H298.762V106.351L307.031 109.19V131.292Z" fill="url(#paint59_linear_1619_24221)"/>
<path d="M257.701 127.119H252.436V92.2883L257.701 90.5708V127.119Z" fill="url(#paint60_linear_1619_24221)"/>
<path d="M257.7 90.5708L270.26 94.2731V126.842H257.7V90.5708Z" fill="url(#paint61_linear_1619_24221)"/>
<path d="M287.385 133.981L280.416 134.537C279.832 134.537 279.36 135.009 279.36 135.593V148.144H287.986H298.994V138.202C298.994 137.74 298.694 137.332 298.255 137.195L288.559 134.16C288.177 134.042 287.783 133.981 287.385 133.981Z" fill="url(#paint62_linear_1619_24221)"/>
<path d="M294.086 145.956L282.164 147.041C281.167 147.041 280.356 147.85 280.356 148.849V181.036H295.113H313.949V152.636C313.949 151.846 313.436 151.147 312.682 150.911L294.086 145.956Z" fill="url(#paint63_linear_1619_24221)"/>
<path d="M294.088 145.956V181.036L280.077 183.345L284.52 146.827L294.088 145.956Z" fill="url(#paint64_linear_1619_24221)"/>
</g>
<path d="M157.479 248.217C255.02 247.273 333.828 219.128 333.501 185.353C333.175 151.577 253.837 124.962 156.296 125.905C58.7552 126.849 -20.0525 154.994 -19.7258 188.769C-19.3991 222.545 59.9383 249.16 157.479 248.217Z" fill="url(#paint65_linear_1619_24221)"/>
<path opacity="0.7" d="M80.6647 45.8962C80.6009 45.4009 80.3933 44.9356 80.068 44.5585C79.7428 44.1813 79.3143 43.9092 78.8361 43.776C78.358 43.6429 77.8513 43.6545 77.3797 43.8098C76.9082 43.965 76.4926 44.2568 76.185 44.6486C76.0276 44.1126 75.7337 43.6274 75.3324 43.2411C74.9311 42.8549 74.4364 42.581 73.8975 42.4467C73.3585 42.3124 72.7941 42.3224 72.2601 42.4756C71.7262 42.6289 71.2414 42.9201 70.8538 43.3203C70.469 42.3963 69.7783 41.6348 68.8991 41.1652C68.0198 40.6956 67.0062 40.5468 66.0303 40.7441C65.0544 40.9415 64.1765 41.4728 63.5456 42.2477C62.9147 43.0228 62.5697 43.9936 62.5693 44.9955C62.5697 45.3009 62.6014 45.6055 62.6639 45.9043L80.6647 45.8962Z" fill="url(#paint66_linear_1619_24221)"/>
<path opacity="0.5" d="M307.087 57.8974C306.981 57.0655 306.631 56.2834 306.084 55.6482C305.538 55.013 304.816 54.5553 304.009 54.3336C303.205 54.1075 302.352 54.1271 301.56 54.3906C300.766 54.6507 300.066 55.1398 299.549 55.7967C299.285 54.8975 298.792 54.0828 298.118 53.4314C297.444 52.7835 296.611 52.3228 295.703 52.0952C294.796 51.87 293.846 51.8883 292.948 52.1468C292.049 52.4035 291.232 52.8921 290.581 53.5637C289.936 52.0126 288.774 50.7324 287.291 49.9408C285.815 49.1478 284.108 48.8951 282.464 49.2265C280.821 49.5628 279.344 50.4556 278.285 51.754C277.221 53.0608 276.641 54.693 276.642 56.3773C276.642 56.8911 276.694 57.4033 276.8 57.9063L307.087 57.8974Z" fill="url(#paint67_linear_1619_24221)"/>
<path opacity="0.7" d="M230.439 62.318C230.63 62.1344 230.733 61.9239 230.741 61.7083C230.749 61.4926 230.66 61.2798 230.482 61.0916C230.306 60.9033 230.047 60.7466 229.734 60.6376C229.421 60.5285 229.065 60.4712 228.703 60.4713H228.636C228.492 60.0551 228.124 59.6781 227.588 59.3974C227.052 59.1166 226.376 58.9473 225.663 58.9152C224.951 58.8832 224.24 58.99 223.639 59.2195C223.038 59.449 222.578 59.7888 222.331 60.1873C221.542 60.2415 220.814 60.466 220.285 60.8184C219.757 61.1707 219.465 61.6263 219.465 62.0984C219.466 62.1721 219.474 62.2457 219.488 62.3189L230.439 62.318Z" fill="url(#paint68_linear_1619_24221)"/>
<path d="M185.78 135.083C195.57 135.083 203.501 127.206 203.501 117.482C203.501 107.757 195.57 99.8804 185.78 99.8804C175.989 99.8804 168.06 107.757 168.06 117.482C168.06 127.206 175.989 135.083 185.78 135.083Z" fill="url(#paint69_linear_1619_24221)"/>
<path d="M184.767 119.079C183.006 114.635 179.362 111.929 177.568 112.478C176.46 112.819 174.578 114.569 174.799 115.779C175.076 117.594 177.136 116.879 179.23 119.629C181.953 123.205 181.777 123.259 182.551 124.03C183.659 125.13 186.982 125.13 188.644 122.929C191.423 118.749 195.278 109.607 204.603 102.006C206.264 100.598 207.77 99.8496 207.77 99.7506C207.77 99.6516 205.39 99.7836 199.907 103.37C194.413 106.956 188.644 111.929 184.767 119.079Z" fill="url(#paint70_linear_1619_24221)"/>
<path d="M127.294 66.1956C124.766 65.4815 122.464 64.8633 120.436 64.4876C120.322 64.1225 120.188 63.7681 120.022 63.435C119.942 63.2752 119.848 63.1233 119.759 62.9714L118.803 55.2361C118.691 54.3248 117.549 53.9331 116.873 54.5726C115.274 56.0834 114.858 58.1245 114.794 59.6033C113.293 59.3422 111.698 59.5315 110.23 60.2615C106.868 61.9349 106.962 66.3821 107.232 69.6728C107.498 72.8864 111.475 75.0873 114.789 74.7276C116.838 75.6602 119.682 76.401 123.175 77.3895C131.783 79.825 141.859 78.4767 142.581 76.6568C143.476 74.3945 135.901 68.6283 127.294 66.1956Z" fill="url(#paint71_linear_1619_24221)"/>
<path d="M145.423 71.2667L126.795 64.3973C125.957 64.0882 125.057 64.6611 124.921 65.591L122.996 78.7115C122.866 79.5908 123.479 80.3956 124.316 80.4489L151.248 82.1862L145.423 71.2667Z" fill="white"/>
<path d="M113.352 71.3916C113.888 71.2505 119.846 68.0823 116.468 62.8276" stroke="white" stroke-width="1.11289" stroke-miterlimit="10" stroke-linecap="round"/>
<path d="M158.455 113.386C157.604 107.441 168.934 106.81 171.108 107.062C172.858 107.267 171.846 117.311 170.656 123.324C169.467 129.339 168.116 135.209 163.661 133.468C161.21 132.512 159.713 122.198 158.455 113.386Z" fill="url(#paint72_linear_1619_24221)"/>
<path d="M155.657 112.755C158.177 107.367 146.462 105.99 144.317 105.531C142.591 105.16 140.669 115.054 140.075 121.167C139.479 127.277 139.079 133.304 143.823 133.086C146.428 132.963 151.921 120.741 155.657 112.755Z" fill="url(#paint73_linear_1619_24221)"/>
<path d="M145.968 73.4453L140.926 95.7853L134.49 112.961L175.277 113.561L170.012 72.606L145.968 73.4453Z" fill="white"/>
<path d="M145.968 73.4453L140.926 95.7853L134.49 112.961L175.277 113.561L170.012 72.606L145.968 73.4453Z" fill="white"/>
<path d="M156.533 113.24L156.204 85.5781L156.021 88.6265L155.379 113.282L156.533 113.24Z" fill="url(#paint74_linear_1619_24221)"/>
<path d="M149.123 71.1965L147.77 77.8473L151.954 80.6051L150.743 81.8575L155.921 85.6173L162.64 82.4837L160.877 80.3547L165.614 77.9726L163.411 69.8296L149.123 71.1965Z" fill="#CAE6F2"/>
<path d="M150.456 72.4026C150.456 72.4026 155.278 85.4911 155.91 85.611C156.541 85.731 161.528 71.0757 161.528 71.0757L150.456 72.4026Z" fill="url(#paint75_linear_1619_24221)"/>
<path d="M163.822 85.8157V85.9707H163.987V86.0375H163.822V86.2724H163.745V85.7437H164.003V85.813H163.822V85.8157Z" fill="#223F99"/>
<path d="M164.216 86.2878C164.192 86.2878 164.168 86.2825 164.154 86.2771V86.4401H164.079V85.9086C164.106 85.8952 164.157 85.8818 164.208 85.8818C164.324 85.8818 164.388 85.9593 164.388 86.0848C164.388 86.2024 164.327 86.2878 164.216 86.2878ZM164.208 85.9433C164.186 85.9433 164.165 85.9486 164.154 85.954V86.2157C164.165 86.2211 164.189 86.2238 164.208 86.2238C164.276 86.2238 164.311 86.165 164.311 86.0822C164.313 85.9967 164.276 85.9433 164.208 85.9433Z" fill="#223F99"/>
<path d="M164.582 86.2819C164.515 86.2819 164.481 86.2418 164.481 86.167V85.9427H164.43V85.8839H164.481V85.7932L164.555 85.769V85.8839H164.63V85.9427H164.555V86.1617C164.555 86.1964 164.576 86.2125 164.606 86.2125C164.614 86.2125 164.625 86.2098 164.633 86.2071V86.2739C164.619 86.2792 164.601 86.2819 164.582 86.2819Z" fill="#223F99"/>
<path d="M165.15 86.2773L165.08 86.1091C165.064 86.0743 165.04 86.0529 165.003 86.0529H164.959V86.2773H164.881V85.7672C164.919 85.7485 164.972 85.7378 165.022 85.7378C165.142 85.7378 165.203 85.7992 165.203 85.8927C165.203 85.9728 165.155 86.0129 165.096 86.0262V86.0289C165.123 86.0423 165.142 86.069 165.155 86.1037L165.23 86.2773H165.15ZM165.024 85.8046C165 85.8046 164.975 85.8099 164.959 85.8153V85.9942H165.016C165.088 85.9942 165.128 85.9675 165.128 85.898C165.128 85.8393 165.096 85.8046 165.024 85.8046Z" fill="#223F99"/>
<path d="M165.6 86.0775L165.353 86.1149C165.361 86.1869 165.404 86.2216 165.468 86.2216C165.505 86.2216 165.544 86.2109 165.571 86.1976L165.592 86.2563C165.563 86.2723 165.513 86.283 165.463 86.283C165.345 86.283 165.279 86.203 165.279 86.0775C165.279 85.9574 165.343 85.8721 165.447 85.8721C165.542 85.8721 165.6 85.9388 165.6 86.0455C165.6 86.0562 165.6 86.0669 165.6 86.0775ZM165.447 85.9334C165.388 85.9334 165.351 85.9814 165.348 86.0615L165.529 86.0349C165.529 85.9655 165.495 85.9334 165.447 85.9334Z" fill="#223F99"/>
<path d="M165.797 86.2819C165.73 86.2819 165.695 86.2418 165.695 86.167V85.9427H165.645V85.8839H165.695V85.7932L165.77 85.769V85.8839H165.845V85.9427H165.77V86.1617C165.77 86.1964 165.791 86.2125 165.821 86.2125C165.829 86.2125 165.839 86.2098 165.847 86.2071V86.2739C165.834 86.2792 165.815 86.2819 165.797 86.2819Z" fill="#223F99"/>
<path d="M166.069 86.2902C165.963 86.2902 165.909 86.2448 165.909 86.1674C165.909 86.058 166.021 86.0394 166.132 86.0313V86.0073C166.132 85.9566 166.101 85.9406 166.053 85.9406C166.019 85.9406 165.976 85.9512 165.949 85.9646L165.931 85.9086C165.96 85.8952 166.011 85.8818 166.061 85.8818C166.148 85.8818 166.204 85.9192 166.204 86.0153V86.2635C166.175 86.2795 166.12 86.2902 166.069 86.2902ZM166.131 86.0847C166.053 86.09 165.979 86.0954 165.979 86.1648C165.979 86.2074 166.008 86.2315 166.067 86.2315C166.091 86.2315 166.12 86.2261 166.131 86.2208V86.0847Z" fill="#223F99"/>
<path d="M166.329 85.809C166.305 85.809 166.283 85.7877 166.283 85.7636C166.283 85.7396 166.305 85.7183 166.329 85.7183C166.353 85.7183 166.375 85.7396 166.375 85.7636C166.375 85.7877 166.353 85.809 166.329 85.809ZM166.289 86.2738V85.8785H166.366V86.2738H166.289Z" fill="#223F99"/>
<path d="M166.463 86.2756V85.7026H166.541V86.2756H166.463Z" fill="#223F99"/>
<path d="M163.105 86.5862C163.105 86.5215 163.154 86.4702 163.216 86.4702C163.278 86.4702 163.326 86.5215 163.326 86.5862C163.326 86.651 163.278 86.7023 163.216 86.7023C163.154 86.7023 163.105 86.651 163.105 86.5862ZM163.297 86.5862C163.297 86.5323 163.259 86.4918 163.213 86.4918C163.167 86.4918 163.129 86.5323 163.129 86.5862C163.129 86.6402 163.167 86.6807 163.213 86.6807C163.259 86.6807 163.297 86.6402 163.297 86.5862ZM163.172 86.5188H163.218C163.248 86.5188 163.264 86.5296 163.264 86.5566C163.264 86.5782 163.251 86.5889 163.232 86.5916L163.264 86.6483H163.24L163.208 86.5916H163.194V86.6483H163.17V86.5188H163.172ZM163.194 86.5754H163.216C163.229 86.5754 163.24 86.5728 163.24 86.5566C163.24 86.5404 163.226 86.5377 163.216 86.5377H163.194V86.5754Z" fill="#08509F"/>
<path d="M160.956 85.4614C160.794 85.4614 160.656 85.5733 160.608 85.7278C160.608 85.7305 160.606 85.7359 160.606 85.7385L160.598 85.7705L160.396 86.7031H160.908C161.062 86.7031 161.192 86.6018 161.24 86.458L161.259 86.37L161.455 85.464H160.956V85.4614Z" fill="#08509F"/>
<path d="M161.924 85.1499C161.757 85.1499 161.616 85.2697 161.573 85.4323C161.571 85.4456 161.568 85.4563 161.565 85.4696L161.229 87.0124H161.728C161.897 87.0124 162.041 86.8872 162.081 86.7193L162.424 85.1499H161.924Z" fill="#F27123"/>
<path d="M162.755 85.4614C162.598 85.4614 162.466 85.5653 162.412 85.7119C162.41 85.7198 162.402 85.7491 162.402 85.7491L162.194 86.7031H162.694C162.866 86.7031 163.009 86.5778 163.049 86.41L163.256 85.464H162.755V85.4614Z" fill="#51B748"/>
<path d="M159.336 87.9927H159.566L160.039 88.7788V87.9927H160.241V89.1464H160.023L159.537 88.3337V89.1464H159.336V87.9927Z" fill="#08509F"/>
<path d="M160.99 88.6695H160.573V89.1464H160.372V87.9927H160.573V88.467H160.99V87.9927H161.193V89.1464H160.99V88.6695Z" fill="#08509F"/>
<path d="M161.663 87.9911H161.868L162.255 89.1449H162.043L161.976 88.9397H161.555L161.488 89.1449H161.275L161.663 87.9911ZM161.477 87.6421H161.665L161.836 87.9112H161.7L161.477 87.6421ZM161.623 88.7345H161.909L161.767 88.2976L161.623 88.7345Z" fill="#08509F"/>
<path d="M162.977 88.1978H162.685V87.9927H163.47V88.1978H163.178V89.1464H162.977V88.1978Z" fill="#08509F"/>
<path d="M164.191 88.6695H163.775V89.1464H163.573V87.9927H163.775V88.467H164.191V87.9927H164.394V89.1464H164.191V88.6695Z" fill="#08509F"/>
<path d="M164.916 89.1464C164.86 89.1464 164.808 89.1385 164.76 89.1198C164.712 89.1012 164.669 89.0772 164.635 89.0426C164.6 89.0079 164.571 88.9653 164.552 88.9147C164.533 88.864 164.523 88.8054 164.523 88.7388V87.9927H164.725V88.7495C164.725 88.7788 164.731 88.8027 164.739 88.8294C164.749 88.8533 164.762 88.8747 164.778 88.8933C164.794 88.912 164.816 88.9253 164.836 88.936C164.86 88.9467 164.884 88.9519 164.911 88.9519C164.937 88.9519 164.961 88.9467 164.985 88.936C165.009 88.9253 165.028 88.912 165.046 88.8933C165.065 88.8747 165.078 88.8533 165.086 88.8294C165.097 88.8054 165.102 88.7788 165.102 88.7495V87.9927H165.304V88.7388C165.304 88.8054 165.293 88.864 165.274 88.9147C165.256 88.9653 165.227 89.0079 165.192 89.0426C165.158 89.0772 165.116 89.1038 165.068 89.1198C165.025 89.1358 164.972 89.1464 164.916 89.1464Z" fill="#08509F"/>
<path d="M165.953 89.149C165.876 89.149 165.801 89.1329 165.735 89.1036C165.669 89.0743 165.608 89.0317 165.557 88.9811C165.507 88.9277 165.467 88.8665 165.437 88.7972C165.408 88.728 165.396 88.6507 165.396 88.5707C165.396 88.4908 165.408 88.4162 165.437 88.3442C165.467 88.2749 165.507 88.2136 165.557 88.1604C165.608 88.1071 165.666 88.0672 165.735 88.0352C165.804 88.0032 165.876 87.9898 165.953 87.9898C166.03 87.9898 166.104 88.0059 166.17 88.0352C166.237 88.0645 166.298 88.1071 166.349 88.1604C166.398 88.2136 166.438 88.2749 166.468 88.3442C166.497 88.4135 166.51 88.4881 166.51 88.5707C166.51 88.6507 166.497 88.7253 166.468 88.7972C166.438 88.8665 166.398 88.9277 166.349 88.9811C166.298 89.0317 166.24 89.0743 166.17 89.1036C166.101 89.1329 166.03 89.149 165.953 89.149ZM165.953 88.9358C166.004 88.9358 166.049 88.9252 166.093 88.9065C166.136 88.8878 166.176 88.8611 166.208 88.8292C166.24 88.7972 166.266 88.7573 166.285 88.712C166.304 88.6666 166.312 88.6187 166.312 88.568C166.312 88.5174 166.304 88.4694 166.285 88.4242C166.266 88.3789 166.24 88.3415 166.208 88.3069C166.176 88.2749 166.138 88.2483 166.093 88.2297C166.051 88.211 166.004 88.2004 165.953 88.2004C165.902 88.2004 165.857 88.211 165.812 88.2297C165.769 88.2483 165.732 88.2749 165.701 88.3069C165.669 88.3389 165.645 88.3789 165.627 88.4242C165.608 88.4694 165.6 88.5174 165.6 88.568C165.6 88.6187 165.608 88.6666 165.627 88.712C165.645 88.7573 165.669 88.7946 165.701 88.8292C165.732 88.8611 165.769 88.8878 165.812 88.9065C165.857 88.9252 165.902 88.9358 165.953 88.9358ZM165.892 87.6435H166.017L166.194 87.9125H166.044L165.956 87.7714L165.868 87.9125H165.717L165.892 87.6435ZM166.282 87.4517H166.47L166.248 87.7207H166.112L166.282 87.4517Z" fill="#08509F"/>
<path d="M167.132 89.1491C167.05 89.1491 166.973 89.1331 166.903 89.1038C166.834 89.0745 166.777 89.0319 166.726 88.9813C166.678 88.928 166.638 88.8667 166.611 88.7974C166.585 88.7281 166.571 88.6509 166.571 88.5709C166.571 88.4857 166.585 88.4084 166.614 88.3391C166.643 88.2698 166.683 88.2085 166.734 88.1553C166.785 88.1046 166.842 88.0646 166.911 88.0353C166.981 88.006 167.053 87.9927 167.132 87.9927C167.182 87.9927 167.233 88.0006 167.278 88.014C167.326 88.0274 167.368 88.0486 167.411 88.0726C167.454 88.0967 167.49 88.1286 167.522 88.1633C167.557 88.1978 167.583 88.2378 167.607 88.2832L167.43 88.3977C167.398 88.3391 167.358 88.2912 167.307 88.2565C167.259 88.2219 167.198 88.2058 167.13 88.2058C167.079 88.2058 167.031 88.2165 166.986 88.2351C166.943 88.2539 166.903 88.2805 166.871 88.3125C166.839 88.3444 166.817 88.3844 166.798 88.4297C166.779 88.475 166.771 88.5229 166.771 88.5736C166.771 88.6242 166.779 88.6722 166.798 88.7148C166.817 88.7601 166.839 88.7974 166.871 88.8294C166.903 88.8613 166.941 88.888 166.983 88.9067C167.026 88.9253 167.074 88.936 167.124 88.936C167.198 88.936 167.265 88.9173 167.315 88.8774C167.368 88.8374 167.408 88.7894 167.438 88.7281L167.623 88.8267C167.599 88.8747 167.57 88.9173 167.535 88.9573C167.501 88.9972 167.464 89.0319 167.422 89.0612C167.379 89.0905 167.334 89.1118 167.283 89.1278C167.238 89.1412 167.185 89.1491 167.132 89.1491Z" fill="#08509F"/>
<path d="M158.013 89.9399H158.283V91.2057H158.814V91.4801H158.013V89.9399Z" fill="#08509F"/>
<path d="M159.574 91.4815C159.47 91.4815 159.374 91.4602 159.284 91.4203C159.194 91.3803 159.114 91.3243 159.047 91.255C158.982 91.1858 158.928 91.1032 158.888 91.01C158.851 90.9166 158.83 90.8154 158.83 90.7088C158.83 90.6022 158.849 90.501 158.888 90.4077C158.926 90.3145 158.979 90.2318 159.047 90.1625C159.114 90.0933 159.194 90.0373 159.284 89.9973C159.374 89.9574 159.47 89.936 159.574 89.936C159.676 89.936 159.772 89.9574 159.863 89.9973C159.953 90.0373 160.032 90.0933 160.099 90.1625C160.165 90.2318 160.219 90.3145 160.259 90.4077C160.296 90.501 160.317 90.6022 160.317 90.7088C160.317 90.8154 160.299 90.9166 160.259 91.01C160.221 91.1032 160.168 91.1858 160.099 91.255C160.032 91.3243 159.953 91.3803 159.863 91.4203C159.772 91.4602 159.676 91.4815 159.574 91.4815ZM159.574 91.1991C159.64 91.1991 159.7 91.1858 159.759 91.1618C159.818 91.1352 159.868 91.1005 159.911 91.0579C159.953 91.0125 159.988 90.9619 160.011 90.9033C160.035 90.8447 160.048 90.7808 160.048 90.7115C160.048 90.6449 160.035 90.5809 160.011 90.5197C159.988 90.461 159.953 90.4077 159.911 90.3651C159.868 90.3198 159.818 90.2852 159.759 90.2611C159.7 90.2345 159.64 90.2239 159.574 90.2239C159.507 90.2239 159.446 90.2372 159.387 90.2611C159.33 90.2878 159.279 90.3225 159.236 90.3651C159.194 90.4104 159.159 90.461 159.135 90.5197C159.111 90.5783 159.098 90.6422 159.098 90.7115C159.098 90.7781 159.111 90.8421 159.135 90.9033C159.159 90.9619 159.194 91.0152 159.236 91.0579C159.279 91.1032 159.33 91.1379 159.387 91.1618C159.446 91.1858 159.507 91.1991 159.574 91.1991Z" fill="#08509F"/>
<path d="M160.437 89.9399H160.742L161.371 90.9871V89.9399H161.642V91.4801H161.353L160.705 90.3983V91.4801H160.434V89.9399H160.437Z" fill="#08509F"/>
<path d="M162.527 91.4828C162.415 91.4828 162.313 91.4615 162.219 91.4215C162.126 91.3815 162.047 91.3256 161.981 91.2536C161.914 91.1816 161.864 91.1018 161.826 91.0085C161.789 90.9153 161.773 90.8167 161.773 90.7127C161.773 90.6061 161.792 90.5049 161.829 90.4116C161.866 90.3184 161.917 90.2357 161.983 90.1665C162.05 90.0972 162.126 90.0412 162.217 90.0013C162.307 89.9613 162.407 89.9399 162.514 89.9399C162.591 89.9399 162.66 89.948 162.727 89.9667C162.793 89.9853 162.854 90.0119 162.91 90.0466C162.966 90.0812 163.016 90.1212 163.062 90.1691C163.106 90.2171 163.143 90.2677 163.172 90.3237L162.934 90.4622C162.889 90.3823 162.83 90.3211 162.761 90.2811C162.692 90.2411 162.61 90.2198 162.514 90.2198C162.447 90.2198 162.385 90.233 162.326 90.2598C162.267 90.2864 162.217 90.3211 162.174 90.3663C162.132 90.4116 162.097 90.4622 162.074 90.5236C162.05 90.5822 162.039 90.6461 162.039 90.7154C162.039 90.7847 162.05 90.8487 162.074 90.9073C162.097 90.9659 162.132 91.0191 162.174 91.0645C162.217 91.1098 162.27 91.1444 162.329 91.1711C162.39 91.1977 162.453 91.2084 162.522 91.2084C162.631 91.2084 162.722 91.1791 162.793 91.1177C162.865 91.0564 162.915 90.9765 162.942 90.8753H162.477V90.6008H163.231V90.7154C163.231 90.8194 163.215 90.9179 163.18 91.0112C163.146 91.1044 163.101 91.187 163.038 91.2563C162.976 91.3256 162.902 91.3815 162.814 91.4242C162.735 91.4615 162.637 91.4828 162.527 91.4828Z" fill="#08509F"/>
<path d="M164.568 91.4815C164.456 91.4815 164.356 91.4602 164.263 91.4203C164.17 91.3803 164.092 91.3243 164.027 91.255C163.963 91.1858 163.912 91.1032 163.875 91.01C163.838 90.9166 163.822 90.8154 163.822 90.7088C163.822 90.5969 163.84 90.493 163.88 90.3997C163.918 90.3065 163.971 90.2239 164.04 90.1546C164.106 90.0853 164.186 90.032 164.276 89.9947C164.367 89.9574 164.464 89.936 164.571 89.936C164.64 89.936 164.704 89.9441 164.767 89.9628C164.831 89.9814 164.889 90.008 164.945 90.04C165.001 90.0746 165.049 90.1146 165.093 90.1625C165.139 90.2105 165.176 90.2638 165.208 90.3225L164.972 90.4743C164.929 90.3944 164.876 90.3331 164.809 90.2852C164.745 90.2398 164.664 90.2159 164.571 90.2159C164.501 90.2159 164.438 90.2291 164.38 90.2532C164.321 90.2771 164.271 90.3118 164.228 90.357C164.186 90.4024 164.154 90.4531 164.13 90.5117C164.106 90.5703 164.095 90.6342 164.095 90.7035C164.095 90.7701 164.106 90.8341 164.13 90.8927C164.154 90.9513 164.186 91.0019 164.228 91.0472C164.271 91.0925 164.319 91.1245 164.377 91.1511C164.435 91.1751 164.496 91.1884 164.565 91.1884C164.667 91.1884 164.751 91.1618 164.82 91.1111C164.889 91.0605 164.945 90.9939 164.982 90.9139L165.229 91.0445C165.197 91.1085 165.157 91.1671 165.112 91.2204C165.067 91.2737 165.017 91.319 164.959 91.3563C164.903 91.3936 164.841 91.4229 164.775 91.4442C164.709 91.4708 164.64 91.4815 164.568 91.4815Z" fill="#08509F"/>
<path d="M166.154 90.846H165.596V91.4801H165.325V89.9399H165.596V90.5715H166.154V89.9399H166.425V91.4801H166.154V90.846Z" fill="#08509F"/>
<path d="M167.048 89.9383H167.321L167.839 91.4785H167.557L167.467 91.204H166.904L166.814 91.4785H166.532L167.048 89.9383ZM167.099 89.4746H167.265L167.501 89.8344H167.3L167.183 89.6479L167.067 89.8344H166.864L167.099 89.4746ZM166.995 90.9296H167.377L167.186 90.3459L166.995 90.9296Z" fill="#08509F"/>
<path d="M168.391 91.4801C168.316 91.4801 168.244 91.4695 168.18 91.4455C168.116 91.4215 168.061 91.3868 168.014 91.3416C167.966 91.2963 167.928 91.2377 167.904 91.1711C167.878 91.1018 167.864 91.0244 167.864 90.9365V89.9399H168.135V90.9499C168.135 90.9871 168.14 91.0218 168.154 91.0537C168.167 91.0857 168.183 91.1151 168.207 91.1391C168.231 91.163 168.258 91.1816 168.287 91.195C168.316 91.2084 168.351 91.2163 168.385 91.2163C168.42 91.2163 168.454 91.2084 168.486 91.195C168.515 91.1816 168.544 91.163 168.565 91.1391C168.589 91.1151 168.608 91.0884 168.621 91.0537C168.635 91.0218 168.64 90.9871 168.64 90.9499V89.9399H168.911V90.9365C168.911 91.0244 168.897 91.1044 168.871 91.1711C168.844 91.2403 168.807 91.2963 168.763 91.3416C168.717 91.3868 168.661 91.4215 168.597 91.4455C168.533 91.4668 168.464 91.4801 168.391 91.4801Z" fill="#08509F"/>
<path d="M144.809 97.2225C144.763 97.1798 144.723 97.1266 144.681 97.0786C144.832 97.2571 144.654 97.0359 144.617 96.98C144.556 96.884 144.497 96.7855 144.445 96.6842C144.288 96.3938 144.221 96.2285 144.099 95.8662C143.956 95.4371 143.846 94.9922 143.77 94.5419C143.414 92.4449 143.356 89.7616 144.879 88.2134C145.867 87.2116 147.397 86.8731 148.53 87.4913C148.748 87.6086 148.918 87.7685 149.054 87.9816C149.253 88.2934 149.373 88.5651 149.494 88.9169C149.783 89.7616 149.935 90.6568 150.031 91.5549C150.144 92.618 150.182 93.6946 150.142 94.7657C150.128 95.1574 150.105 95.4931 150.054 95.9061C150.034 96.0687 150.01 96.2312 149.978 96.3938C149.964 96.4577 149.948 96.519 149.935 96.5802C149.898 96.7642 149.972 96.4924 149.914 96.6442C149.625 97.417 150.649 98.0059 150.941 97.2331C151.196 96.5536 151.236 95.7836 151.276 95.0588C151.332 94.0302 151.313 92.9937 151.225 91.9678C151.138 90.9074 150.984 89.8282 150.684 88.8157C150.439 87.995 150.075 87.121 149.446 86.5961C148.085 85.4636 146.03 85.7647 144.683 86.7533C142.657 88.2427 142.299 90.9873 142.499 93.524C142.596 94.7604 142.836 95.9994 143.342 97.1052C143.52 97.4942 143.752 97.9179 144.052 98.2031C144.617 98.7413 145.379 97.7607 144.809 97.2225Z" fill="#607070"/>
<path d="M143.638 98.2904C143.404 97.7841 143.38 96.8542 144.006 96.6037C144.634 96.3559 145.627 97.2166 145.661 97.8241C145.695 98.4343 144.974 99.271 144.474 99.0445C143.975 98.818 143.638 98.2904 143.638 98.2904Z" fill="#5D0F18"/>
<path d="M150.864 97.7744C151.04 97.2388 150.962 96.3115 150.315 96.1543C149.667 95.9971 148.775 96.9911 148.806 97.6012C148.838 98.2114 149.648 98.9388 150.118 98.6431C150.588 98.3473 150.864 97.7744 150.864 97.7744Z" fill="#5D0F18"/>
<path d="M147.268 85.9961C147.401 84.2135 147.597 82.4308 147.833 80.6722C148.205 77.9118 148.636 74.7648 149.695 72.412C150.141 71.4207 149.193 70.4216 148.749 71.4075C147.884 73.3286 147.435 75.732 147.069 77.9784C146.713 80.15 146.448 82.359 146.24 84.5705C146.198 85.0208 146.158 85.4711 146.123 85.9215C146.031 87.1206 147.178 87.1925 147.268 85.9961Z" fill="#607070"/>
<path d="M150.025 91.5514C150.14 92.6146 150.176 93.6911 150.137 94.7623C150.124 95.154 150.1 95.4897 150.049 95.9027C150.028 96.0653 150.004 96.2278 149.972 96.3903C149.959 96.4543 149.943 96.5156 149.929 96.5769C149.927 96.5875 149.927 96.5955 149.924 96.6009C149.921 96.6089 149.916 96.6195 149.908 96.6409C149.619 97.4136 150.644 98.0024 150.936 97.2297C151.19 96.5503 151.23 95.7802 151.27 95.0554C151.326 94.0269 151.307 92.9903 151.22 91.9645C151.193 91.6394 151.158 91.3144 151.117 90.9893L149.985 91.2104C149.999 91.3223 150.012 91.4369 150.025 91.5514Z" fill="#509FD7"/>
<path d="M142.45 92.6812C142.458 92.9636 142.471 93.2434 142.493 93.5232C142.591 94.7596 142.83 95.9986 143.337 97.1044C143.515 97.4935 143.746 97.9172 144.046 98.2023C144.615 98.7379 145.376 97.7599 144.805 97.2217C144.76 97.179 144.72 97.1258 144.678 97.0778C144.829 97.2563 144.651 97.0352 144.615 96.9792C144.553 96.8833 144.495 96.7847 144.442 96.6834C144.285 96.393 144.219 96.2278 144.096 95.8654C143.954 95.4364 143.844 94.9914 143.767 94.5411C143.656 93.8883 143.576 93.1794 143.56 92.4653L142.45 92.6812Z" fill="#509FD7"/>
<path d="M170.696 70.7856C170.696 70.7856 180.068 75.9022 181.568 76.3135C181.568 76.3135 187.125 82.4758 185.762 86.4283L173.469 84.8193C173.469 84.8193 174.763 80.493 166.896 74.9935C166.902 74.992 168.06 71.3013 170.696 70.7856Z" fill="white"/>
<path d="M137.071 46.4292C137.553 37.7825 133.896 30.5457 128.905 30.2652C123.912 29.9847 119.475 36.7668 118.992 45.4133C118.509 54.06 122.165 61.2968 127.158 61.5773C132.15 61.8578 136.588 55.0758 137.071 46.4292Z" fill="white"/>
<path d="M128.964 30.2557C133.953 30.5915 137.582 37.8738 137.068 46.5205C137.022 47.2772 136.945 48.018 136.844 48.7427L119.536 41.3138C120.957 34.6763 124.774 29.9733 128.964 30.2557Z" fill="url(#paint76_linear_1619_24221)"/>
<path d="M134.016 46.4088C134.523 37.7632 132.769 30.6264 130.097 30.4685C127.426 30.3106 124.849 37.1912 124.341 45.837C123.834 54.4827 125.588 61.6195 128.259 61.7774C130.931 61.9354 133.508 55.0546 134.016 46.4088Z" fill="#084B59"/>
<path d="M133.136 46.3489C133.643 37.7031 131.889 30.5663 129.218 30.4084C126.546 30.2505 123.969 37.1313 123.461 45.777C122.954 54.4227 124.709 61.5596 127.379 61.7175C130.051 61.8754 132.628 54.9946 133.136 46.3489Z" fill="#17156D"/>
<path d="M200.388 53.5253C201.404 44.9314 197.859 37.4444 192.47 36.8028C187.081 36.1612 181.888 42.6079 180.873 51.2019C179.858 59.7959 183.402 67.2828 188.791 67.9244C194.18 68.566 199.372 62.1193 200.388 53.5253Z" fill="white"/>
<path d="M192.623 36.8213C187.25 36.0566 182.009 42.3957 180.914 50.981C180.819 51.7324 180.757 52.4758 180.731 53.2086L200.559 49.726C200.307 42.9126 197.136 37.4635 192.623 36.8213Z" fill="url(#paint77_linear_1619_24221)"/>
<path d="M194.6 52.9762C195.678 44.3892 194.215 37.1325 191.333 36.7682C188.451 36.4038 185.241 43.0695 184.163 51.6566C183.085 60.2437 184.548 67.5003 187.43 67.8647C190.312 68.229 193.522 61.5633 194.6 52.9762Z" fill="#084B59"/>
<path d="M195.55 53.1124C196.628 44.5254 195.165 37.2688 192.283 36.9044C189.401 36.54 186.191 43.2057 185.113 51.7929C184.036 60.3799 185.498 67.6365 188.38 68.0009C191.262 68.3653 194.473 61.6996 195.55 53.1124Z" fill="#17156D"/>
<path d="M149.748 15.8051C130.049 16.9749 126.772 33.6126 125.343 50.6074C123.912 67.6022 138.16 74.1358 159.293 75.0578C180.427 75.9796 189.431 72.0307 191.778 61.4577C194.125 50.8872 195.2 33.3355 187.089 25.1978C180.172 18.2619 163.993 14.9578 149.748 15.8051Z" fill="url(#paint78_linear_1619_24221)"/>
<path d="M162.63 73.0369L152.236 72.4666C138.974 71.7392 128.675 59.6472 129.35 45.5915C130.024 31.5118 141.449 20.5896 154.731 21.317L165.126 21.8873C178.388 22.6147 188.686 34.7066 188.012 48.7624C187.338 62.8422 175.916 73.7643 162.63 73.0369Z" fill="url(#paint79_linear_1619_24221)"/>
<path opacity="0.34" d="M134.171 57.6869C132.623 51.561 134.351 36.3994 138.485 31.6911C142.619 26.9827 151.67 32.4266 159.826 32.6743C167.982 32.9222 172.35 31.4992 176.046 31.8563C179.742 32.216 184.792 34.878 183.823 48.4807C182.854 62.0835 180.451 68.372 163.626 67.8257C147.135 67.2928 135.947 64.7055 134.171 57.6869Z" fill="#EDECED"/>
<path d="M134.116 58.7284C132.568 52.6025 134.297 37.4409 138.43 32.7326C142.565 28.0243 151.615 33.468 159.772 33.7158C167.928 33.9636 172.296 32.5408 175.991 32.8978C179.687 33.2549 184.737 35.9194 183.768 49.5222C182.799 63.1249 180.396 69.4134 163.571 68.8672C147.081 68.3343 135.892 65.7469 134.116 58.7284Z" fill="url(#paint80_linear_1619_24221)"/>
<path d="M136.378 57.121C134.928 51.9838 136.407 39.3056 140.138 35.3966C143.868 31.4851 152.141 36.1081 159.564 36.3719C166.988 36.6384 170.952 35.4765 174.319 35.8043C177.683 36.132 182.295 38.397 181.503 49.7748C180.709 61.1526 178.561 66.3966 163.245 65.8209C148.236 65.2534 138.038 63.0098 136.378 57.121Z" fill="white"/>
<path d="M184.166 27.6876C186.04 29.3076 186.635 31.3354 187.251 30.5493C187.867 29.7632 186.848 27.8101 184.973 26.1901C183.098 24.57 181.078 23.8932 180.462 24.6792C179.846 25.4653 182.292 26.0674 184.166 27.6876Z" fill="white"/>
<path d="M188.116 33.2759C188.584 33.2667 188.956 32.861 188.946 32.3695C188.937 31.8781 188.55 31.4872 188.082 31.4962C187.614 31.5054 187.243 31.9113 187.252 32.4027C187.262 32.8941 187.649 33.2851 188.116 33.2759Z" fill="white"/>
<path d="M131.284 61.8043C129.839 59.7472 129.73 57.6289 128.95 58.231C128.172 58.8333 128.71 60.9916 130.155 63.0486C131.6 65.1057 133.402 66.2835 134.18 65.6813C134.96 65.0791 132.728 63.8613 131.284 61.8043Z" fill="white"/>
<path d="M128.604 57.1362C129.072 57.1078 129.426 56.687 129.396 56.1963C129.367 55.7057 128.964 55.331 128.496 55.3594C128.03 55.3878 127.676 55.8086 127.705 56.2993C127.735 56.7899 128.137 57.1646 128.604 57.1362Z" fill="white"/>
<path d="M175.356 54.352C175.407 53.4866 174.334 52.7195 172.96 52.6383C171.585 52.5572 170.43 53.1929 170.379 54.0582C170.328 54.9235 171.402 55.6908 172.776 55.7718C174.15 55.853 175.306 55.2172 175.356 54.352Z" fill="#F5A1AA"/>
<path d="M146.476 51.519C146.526 50.6536 145.454 49.8865 144.079 49.8053C142.704 49.7242 141.549 50.3599 141.498 51.2253C141.448 52.0905 142.521 52.8578 143.895 52.9388C145.27 53.02 146.425 52.3843 146.476 51.519Z" fill="#F5A1AA"/>
<path d="M151.507 45.4768C151.725 43.0805 151.077 41.0624 150.059 40.9692C149.042 40.8759 148.04 42.7428 147.821 45.1391C147.604 47.5353 148.252 49.5534 149.27 49.6466C150.288 49.7399 151.29 47.873 151.507 45.4768Z" fill="#132348"/>
<path d="M155.065 54.6619C156.22 55.1495 158.158 55.3787 161.278 54.3342C161.963 54.105 163.944 52.4529 163.901 53.0818C163.728 55.5785 162.231 62.7516 158.31 62.6824C158.31 62.6824 153.899 63.2259 153.558 55.5199C153.526 54.8325 154.367 54.3688 155.065 54.6619Z" fill="#E26D70"/>
<path d="M172.864 42.5864L165.772 47.1029C165.411 47.332 165.197 47.7531 165.21 48.1981C165.225 48.715 165.65 49.1094 166.136 49.0614L174.547 48.2033C174.852 48.1714 175.091 47.9156 175.118 47.5932C175.152 47.1802 174.826 46.8337 174.435 46.8737L167.54 47.5799L173.212 43.2446L173.278 42.7596L172.864 42.5864Z" fill="#132348"/>
<path d="M174.978 103.399C174.815 103.566 174.518 103.565 174.247 103.399L157.304 92.9645C156.918 92.7263 156.743 92.2545 156.942 91.9851L170.089 74.2759C170.284 74.0145 170.742 74.0715 171.053 74.3972L186.546 90.6209C186.813 90.9017 186.871 91.2774 186.675 91.4786L174.978 103.399Z" fill="#6AA2E8"/>
<path opacity="0.81" d="M174.359 102.613L158.979 93.001L171.894 76.3047L185.89 90.8778L174.359 102.613Z" stroke="white" stroke-width="0.93994" stroke-miterlimit="10"/>
<path d="M181.453 72.9702C181.453 72.9702 184.678 75.4443 185.575 78.2019C185.575 78.2019 188.282 85.5325 185.816 89.5302L174.814 83.2482C174.814 83.2482 176.901 79.8218 174.245 74.6832C174.251 74.6839 178.988 73.5398 181.453 72.9702Z" fill="white"/>
<path d="M185.668 89.1559L176.075 83.8848C174.62 85.8784 174.484 88.3741 173.253 90.0243C173.059 90.2862 172.377 89.888 170.912 90.7458C170.837 90.7895 170.965 90.6924 170.912 90.7458C169.987 91.6362 169.141 91.8002 167.859 91.9614C167.303 92.4346 167.39 93.3085 168.051 93.584C168.395 93.727 168.885 93.8348 169.574 93.8629C169.729 93.8698 169.779 94.0585 169.65 94.1411L167.374 95.5827C166.868 95.9276 166.597 96.503 166.665 97.0839C166.774 98.029 167.001 99.388 167.412 99.7866C168.283 100.635 169.701 100.581 172.651 99.6251C172.678 99.6153 175.202 98.8092 178.594 96.6689C178.914 96.4667 178.756 95.2025 179.075 94.9809C181.395 93.3851 184.466 91.7098 185.668 89.1559Z" fill="url(#paint81_linear_1619_24221)"/>
</g>
<defs>
<linearGradient id="paint0_linear_1619_24221" x1="85.9497" y1="31.3965" x2="85.9497" y2="139.366" gradientUnits="userSpaceOnUse">
<stop offset="0.440192" stop-color="#D9D9D9"/>
<stop offset="1" stop-color="#D9D9D9" stop-opacity="0"/>
</linearGradient>
<linearGradient id="paint1_linear_1619_24221" x1="88.265" y1="126.606" x2="112.491" y2="126.606" gradientUnits="userSpaceOnUse">
<stop offset="0.1994" stop-color="#A8D5FE"/>
<stop offset="0.3818" stop-color="#D3EAFE"/>
<stop offset="0.5085" stop-color="#CEE7FE"/>
<stop offset="0.6602" stop-color="#BFDEFE"/>
<stop offset="0.8241" stop-color="#A7D0FE"/>
<stop offset="0.9821" stop-color="#89BEFE"/>
</linearGradient>
<linearGradient id="paint2_linear_1619_24221" x1="92.5401" y1="130.506" x2="99.4921" y2="130.506" gradientUnits="userSpaceOnUse">
<stop stop-color="#ECF5FE"/>
<stop offset="0.7055" stop-color="#C9E1FE"/>
</linearGradient>
<linearGradient id="paint3_linear_1619_24221" x1="90.23" y1="124.857" x2="96.7043" y2="129.314" gradientUnits="userSpaceOnUse">
<stop offset="0.5754" stop-color="#718ED1"/>
<stop offset="0.8213" stop-color="#AAD7FE"/>
<stop offset="0.9742" stop-color="#718ED1"/>
</linearGradient>
<linearGradient id="paint4_linear_1619_24221" x1="92.5323" y1="130.504" x2="99.1658" y2="130.504" gradientUnits="userSpaceOnUse">
<stop stop-color="#ECF5FE"/>
<stop offset="0.7055" stop-color="#C9E1FE"/>
</linearGradient>
<linearGradient id="paint5_linear_1619_24221" x1="99.7243" y1="126.306" x2="92.4277" y2="130.233" gradientUnits="userSpaceOnUse">
<stop offset="0.1994" stop-color="#A8D5FE"/>
<stop offset="0.3818" stop-color="#D3EAFE"/>
<stop offset="0.5085" stop-color="#CEE7FE"/>
<stop offset="0.6602" stop-color="#BFDEFE"/>
<stop offset="0.8241" stop-color="#A7D0FE"/>
<stop offset="0.9821" stop-color="#89BEFE"/>
</linearGradient>
<linearGradient id="paint6_linear_1619_24221" x1="99.2777" y1="131.932" x2="92.6706" y2="135.753" gradientUnits="userSpaceOnUse">
<stop offset="0.1994" stop-color="#A8D5FE"/>
<stop offset="0.3818" stop-color="#D3EAFE"/>
<stop offset="0.5085" stop-color="#CEE7FE"/>
<stop offset="0.6602" stop-color="#BFDEFE"/>
<stop offset="0.8241" stop-color="#A7D0FE"/>
<stop offset="0.9821" stop-color="#89BEFE"/>
</linearGradient>
<linearGradient id="paint7_linear_1619_24221" x1="67.9744" y1="58.2158" x2="49.1906" y2="70.8112" gradientUnits="userSpaceOnUse">
<stop offset="0.0180256" stop-color="#C1E1FF"/>
<stop offset="0.9771" stop-color="#E0F0FF"/>
</linearGradient>
<linearGradient id="paint8_linear_1619_24221" x1="53.8439" y1="50.2268" x2="58.8651" y2="70.2152" gradientUnits="userSpaceOnUse">
<stop offset="0.3503" stop-color="#BEDDFA"/>
<stop offset="0.9771" stop-color="#E0F0FF"/>
</linearGradient>
<linearGradient id="paint9_linear_1619_24221" x1="59.8067" y1="61.1675" x2="21.089" y2="87.1294" gradientUnits="userSpaceOnUse">
<stop offset="0.0180256" stop-color="#C1E1FF"/>
<stop offset="0.9771" stop-color="#E0F0FF"/>
</linearGradient>
<linearGradient id="paint10_linear_1619_24221" x1="30.671" y1="44.7004" x2="41.021" y2="85.9008" gradientUnits="userSpaceOnUse">
<stop offset="0.3503" stop-color="#BEDDFA"/>
<stop offset="0.9771" stop-color="#E0F0FF"/>
</linearGradient>
<linearGradient id="paint11_linear_1619_24221" x1="35.3814" y1="63.9102" x2="35.3814" y2="75.8405" gradientUnits="userSpaceOnUse">
<stop stop-color="#C2DFFA"/>
<stop offset="1" stop-color="#C2DFFA" stop-opacity="0"/>
</linearGradient>
<linearGradient id="paint12_linear_1619_24221" x1="16.6894" y1="55.0006" x2="32.1131" y2="112.539" gradientUnits="userSpaceOnUse">
<stop stop-color="#B5D8F9"/>
<stop offset="0.732" stop-color="#E1F1FF"/>
</linearGradient>
<linearGradient id="paint13_linear_1619_24221" x1="54.9729" y1="56.5872" x2="37.7092" y2="103.897" gradientUnits="userSpaceOnUse">
<stop offset="0.368027" stop-color="#BADAF8"/>
<stop offset="0.924183" stop-color="#DBEEFF"/>
</linearGradient>
<linearGradient id="paint14_linear_1619_24221" x1="93.6262" y1="72.0037" x2="64.1087" y2="91.7965" gradientUnits="userSpaceOnUse">
<stop offset="0.0180256" stop-color="#C1E1FF"/>
<stop offset="0.9771" stop-color="#E0F0FF"/>
</linearGradient>
<linearGradient id="paint15_linear_1619_24221" x1="71.4201" y1="59.4496" x2="79.3108" y2="90.8598" gradientUnits="userSpaceOnUse">
<stop offset="0.3503" stop-color="#BEDDFA"/>
<stop offset="0.9771" stop-color="#E0F0FF"/>
</linearGradient>
<linearGradient id="paint16_linear_1619_24221" x1="105.048" y1="86.1146" x2="86.2649" y2="98.7101" gradientUnits="userSpaceOnUse">
<stop offset="0.0180256" stop-color="#C1E1FF"/>
<stop offset="0.9771" stop-color="#E0F0FF"/>
</linearGradient>
<linearGradient id="paint17_linear_1619_24221" x1="90.9181" y1="78.1257" x2="95.9393" y2="98.114" gradientUnits="userSpaceOnUse">
<stop offset="0.3503" stop-color="#BEDDFA"/>
<stop offset="0.9771" stop-color="#E0F0FF"/>
</linearGradient>
<linearGradient id="paint18_linear_1619_24221" x1="56.6744" y1="63.6751" x2="67.6982" y2="104.8" gradientUnits="userSpaceOnUse">
<stop stop-color="#B5D8F9"/>
<stop offset="0.732" stop-color="#E1F1FF"/>
</linearGradient>
<linearGradient id="paint19_linear_1619_24221" x1="84.0408" y1="64.809" x2="71.7019" y2="98.6233" gradientUnits="userSpaceOnUse">
<stop offset="0.368027" stop-color="#BADAF8"/>
<stop offset="0.924183" stop-color="#DBEEFF"/>
</linearGradient>
<linearGradient id="paint20_linear_1619_24221" x1="80.6074" y1="110.787" x2="94.7672" y2="110.787" gradientUnits="userSpaceOnUse">
<stop offset="0.1994" stop-color="#A8CFFE"/>
<stop offset="0.4317" stop-color="#D3EAFE"/>
<stop offset="0.8422" stop-color="#9DCAFE"/>
</linearGradient>
<linearGradient id="paint21_linear_1619_24221" x1="89.0433" y1="127.337" x2="106.078" y2="129.618" gradientUnits="userSpaceOnUse">
<stop offset="0.0995" stop-color="#D3EAFE"/>
<stop offset="0.9138" stop-color="#88BAF0"/>
</linearGradient>
<linearGradient id="paint22_linear_1619_24221" x1="91.5394" y1="127.797" x2="82.6581" y2="127.797" gradientUnits="userSpaceOnUse">
<stop offset="0.1994" stop-color="#A8D0FE"/>
<stop offset="0.8422" stop-color="#84B4E8"/>
</linearGradient>
<linearGradient id="paint23_linear_1619_24221" x1="6.45217" y1="99.9608" x2="85.9621" y2="99.9608" gradientUnits="userSpaceOnUse">
<stop offset="0.1737" stop-color="#DDEFFE"/>
<stop offset="0.4317" stop-color="#FEFEFE"/>
<stop offset="0.8654" stop-color="#AAD1FE"/>
</linearGradient>
<linearGradient id="paint24_linear_1619_24221" x1="6.45325" y1="104.57" x2="85.9632" y2="104.57" gradientUnits="userSpaceOnUse">
<stop offset="0.1737" stop-color="#7BBFFF"/>
<stop offset="0.390625" stop-color="#CFE8FF"/>
<stop offset="0.915" stop-color="#61B2FD"/>
</linearGradient>
<linearGradient id="paint25_linear_1619_24221" x1="6.45217" y1="125.639" x2="85.9621" y2="125.639" gradientUnits="userSpaceOnUse">
<stop offset="0.2459" stop-color="#EBF5FE"/>
<stop offset="0.4489" stop-color="#F3F8FE"/>
<stop offset="0.8387" stop-color="#BFDBFE"/>
</linearGradient>
<linearGradient id="paint26_linear_1619_24221" x1="50.0251" y1="110.445" x2="82.6152" y2="128.905" gradientUnits="userSpaceOnUse">
<stop offset="0.5754" stop-color="#4D75D1"/>
<stop offset="0.8213" stop-color="#AAD7FE"/>
<stop offset="0.9742" stop-color="#4D75D1"/>
</linearGradient>
<linearGradient id="paint27_linear_1619_24221" x1="47.9907" y1="115.393" x2="79.5855" y2="141.671" gradientUnits="userSpaceOnUse">
<stop stop-color="#ECF5FE"/>
<stop offset="0.7055" stop-color="#C9E1FE"/>
</linearGradient>
<linearGradient id="paint28_linear_1619_24221" x1="25.7071" y1="117.015" x2="15.7696" y2="124.211" gradientUnits="userSpaceOnUse">
<stop offset="0.5754" stop-color="#4D75D1"/>
<stop offset="0.8213" stop-color="#AAD7FE"/>
<stop offset="0.9742" stop-color="#4D75D1"/>
</linearGradient>
<linearGradient id="paint29_linear_1619_24221" x1="39.4841" y1="111.169" x2="10.7127" y2="145.744" gradientUnits="userSpaceOnUse">
<stop stop-color="#ECF5FE"/>
<stop offset="0.7055" stop-color="#C9E3FE"/>
</linearGradient>
<linearGradient id="paint30_linear_1619_24221" x1="39.7006" y1="134.129" x2="-2.15258" y2="138.757" gradientUnits="userSpaceOnUse">
<stop stop-color="#D3EAFE"/>
<stop offset="0.8306" stop-color="#ADD5FE"/>
</linearGradient>
<linearGradient id="paint31_linear_1619_24221" x1="40.7617" y1="134.344" x2="110.892" y2="141.189" gradientUnits="userSpaceOnUse">
<stop offset="0.0358" stop-color="#D3EAFE"/>
<stop offset="0.2463" stop-color="#CAE5FE"/>
<stop offset="0.5871" stop-color="#B2D8FE"/>
<stop offset="0.6492" stop-color="#ADD5FE"/>
</linearGradient>
<linearGradient id="paint32_linear_1619_24221" x1="22.8712" y1="127.317" x2="23.6448" y2="127.317" gradientUnits="userSpaceOnUse">
<stop offset="0.5452" stop-color="#98C3FE"/>
<stop offset="0.7105" stop-color="#D3EAFE"/>
<stop offset="0.9073" stop-color="#89B6FE"/>
</linearGradient>
<linearGradient id="paint33_linear_1619_24221" x1="9.70851" y1="120.232" x2="22.8742" y2="120.232" gradientUnits="userSpaceOnUse">
<stop offset="0.012" stop-color="#D6EBFE"/>
<stop offset="0.231" stop-color="#CCE6FF"/>
<stop offset="0.416" stop-color="#E9F4FE"/>
<stop offset="0.6512" stop-color="#D5EAFE"/>
<stop offset="1" stop-color="#ABD5FF"/>
</linearGradient>
<linearGradient id="paint34_linear_1619_24221" x1="9.70851" y1="128.915" x2="22.8742" y2="128.915" gradientUnits="userSpaceOnUse">
<stop offset="0.012" stop-color="#D6EBFE"/>
<stop offset="0.231" stop-color="#CCE6FF"/>
<stop offset="0.416" stop-color="#E9F4FE"/>
<stop offset="0.6512" stop-color="#D5EAFE"/>
<stop offset="1" stop-color="#ABD5FF"/>
</linearGradient>
<linearGradient id="paint35_linear_1619_24221" x1="23.6419" y1="120.174" x2="39.6547" y2="120.174" gradientUnits="userSpaceOnUse">
<stop offset="0.012" stop-color="#D6EBFE"/>
<stop offset="0.231" stop-color="#CCE6FF"/>
<stop offset="0.416" stop-color="#E9F4FE"/>
<stop offset="0.6512" stop-color="#D5EAFE"/>
<stop offset="1" stop-color="#ABD5FF"/>
</linearGradient>
<linearGradient id="paint36_linear_1619_24221" x1="23.6419" y1="128.536" x2="39.6384" y2="128.536" gradientUnits="userSpaceOnUse">
<stop offset="0.012" stop-color="#D6EBFE"/>
<stop offset="0.231" stop-color="#CCE6FF"/>
<stop offset="0.416" stop-color="#E9F4FE"/>
<stop offset="0.6512" stop-color="#D5EAFE"/>
<stop offset="1" stop-color="#ABD5FF"/>
</linearGradient>
<linearGradient id="paint37_linear_1619_24221" x1="66.4321" y1="127.386" x2="67.1642" y2="127.386" gradientUnits="userSpaceOnUse">
<stop offset="0.5452" stop-color="#98C3FE"/>
<stop offset="0.7105" stop-color="#D3EAFE"/>
<stop offset="0.9073" stop-color="#89B6FE"/>
</linearGradient>
<linearGradient id="paint38_linear_1619_24221" x1="47.1784" y1="121.039" x2="66.4378" y2="121.039" gradientUnits="userSpaceOnUse">
<stop offset="0.012" stop-color="#D6EBFE"/>
<stop offset="0.231" stop-color="#CCE6FF"/>
<stop offset="0.416" stop-color="#E9F4FE"/>
<stop offset="0.6512" stop-color="#D5EAFE"/>
<stop offset="1" stop-color="#ABD5FF"/>
</linearGradient>
<linearGradient id="paint39_linear_1619_24221" x1="47.1784" y1="131.251" x2="66.4378" y2="131.251" gradientUnits="userSpaceOnUse">
<stop offset="0.012" stop-color="#D6EBFE"/>
<stop offset="0.231" stop-color="#CCE6FF"/>
<stop offset="0.416" stop-color="#E9F4FE"/>
<stop offset="0.6512" stop-color="#D5EAFE"/>
<stop offset="1" stop-color="#ABD5FF"/>
</linearGradient>
<linearGradient id="paint40_linear_1619_24221" x1="67.1653" y1="121.558" x2="81.7469" y2="121.558" gradientUnits="userSpaceOnUse">
<stop offset="0.012" stop-color="#D6EBFE"/>
<stop offset="0.231" stop-color="#CCE6FF"/>
<stop offset="0.416" stop-color="#E9F4FE"/>
<stop offset="0.6512" stop-color="#D5EAFE"/>
<stop offset="1" stop-color="#ABD5FF"/>
</linearGradient>
<linearGradient id="paint41_linear_1619_24221" x1="67.1653" y1="126.384" x2="83.3096" y2="126.384" gradientUnits="userSpaceOnUse">
<stop offset="0.012" stop-color="#D6EBFE"/>
<stop offset="0.231" stop-color="#CCE6FF"/>
<stop offset="0.416" stop-color="#E9F4FE"/>
<stop offset="0.6512" stop-color="#D5EAFE"/>
<stop offset="1" stop-color="#ABD5FF"/>
</linearGradient>
<linearGradient id="paint42_linear_1619_24221" x1="67.1653" y1="131.098" x2="83.3096" y2="131.098" gradientUnits="userSpaceOnUse">
<stop offset="0.012" stop-color="#D6EBFE"/>
<stop offset="0.231" stop-color="#CCE6FF"/>
<stop offset="0.416" stop-color="#E9F4FE"/>
<stop offset="0.6512" stop-color="#D5EAFE"/>
<stop offset="1" stop-color="#ABD5FF"/>
</linearGradient>
<linearGradient id="paint43_linear_1619_24221" x1="123.786" y1="78.3212" x2="121.445" y2="84.7018" gradientUnits="userSpaceOnUse">
<stop stop-color="white"/>
<stop offset="1" stop-color="white" stop-opacity="0"/>
</linearGradient>
<linearGradient id="paint44_linear_1619_24221" x1="278.648" y1="67.8706" x2="278.648" y2="149.872" gradientUnits="userSpaceOnUse">
<stop offset="0.0526068" stop-color="#D9D9D9"/>
<stop offset="1" stop-color="#D9D9D9" stop-opacity="0"/>
</linearGradient>
<linearGradient id="paint45_linear_1619_24221" x1="290" y1="163.001" x2="323.591" y2="163.001" gradientUnits="userSpaceOnUse">
<stop offset="0.1994" stop-color="#A8D5FE"/>
<stop offset="0.3818" stop-color="#D3EAFE"/>
<stop offset="0.5085" stop-color="#CEE7FE"/>
<stop offset="0.6602" stop-color="#BFDEFE"/>
<stop offset="0.8241" stop-color="#A7D0FE"/>
<stop offset="0.9821" stop-color="#89BEFE"/>
</linearGradient>
<linearGradient id="paint46_linear_1619_24221" x1="295.927" y1="168.407" x2="305.566" y2="168.407" gradientUnits="userSpaceOnUse">
<stop stop-color="#ECF5FE"/>
<stop offset="0.7055" stop-color="#C9E1FE"/>
</linearGradient>
<linearGradient id="paint47_linear_1619_24221" x1="292.734" y1="160.575" x2="301.711" y2="166.756" gradientUnits="userSpaceOnUse">
<stop offset="0.5754" stop-color="#718ED1"/>
<stop offset="0.8213" stop-color="#AAD7FE"/>
<stop offset="0.9742" stop-color="#718ED1"/>
</linearGradient>
<linearGradient id="paint48_linear_1619_24221" x1="295.927" y1="168.407" x2="305.125" y2="168.407" gradientUnits="userSpaceOnUse">
<stop stop-color="#ECF5FE"/>
<stop offset="0.7055" stop-color="#C9E1FE"/>
</linearGradient>
<linearGradient id="paint49_linear_1619_24221" x1="261.862" y1="68.167" x2="235.816" y2="85.6321" gradientUnits="userSpaceOnUse">
<stop offset="0.0180256" stop-color="#C1E1FF"/>
<stop offset="0.9771" stop-color="#E0F0FF"/>
</linearGradient>
<linearGradient id="paint50_linear_1619_24221" x1="242.266" y1="57.0893" x2="249.229" y2="84.8056" gradientUnits="userSpaceOnUse">
<stop offset="0.3503" stop-color="#BEDDFA"/>
<stop offset="0.9771" stop-color="#E0F0FF"/>
</linearGradient>
<linearGradient id="paint51_linear_1619_24221" x1="250.533" y1="72.26" x2="196.847" y2="108.26" gradientUnits="userSpaceOnUse">
<stop offset="0.0180256" stop-color="#C1E1FF"/>
<stop offset="0.9771" stop-color="#E0F0FF"/>
</linearGradient>
<linearGradient id="paint52_linear_1619_24221" x1="210.142" y1="49.4263" x2="224.494" y2="106.556" gradientUnits="userSpaceOnUse">
<stop offset="0.3503" stop-color="#BEDDFA"/>
<stop offset="0.9771" stop-color="#E0F0FF"/>
</linearGradient>
<linearGradient id="paint53_linear_1619_24221" x1="216.674" y1="76.062" x2="216.674" y2="92.6049" gradientUnits="userSpaceOnUse">
<stop stop-color="#C2DFFA"/>
<stop offset="1" stop-color="#C2DFFA" stop-opacity="0"/>
</linearGradient>
<linearGradient id="paint54_linear_1619_24221" x1="190.762" y1="63.7086" x2="212.149" y2="143.492" gradientUnits="userSpaceOnUse">
<stop stop-color="#B5D8F9"/>
<stop offset="0.732" stop-color="#E1F1FF"/>
</linearGradient>
<linearGradient id="paint55_linear_1619_24221" x1="243.856" y1="65.9084" x2="219.918" y2="131.511" gradientUnits="userSpaceOnUse">
<stop offset="0.368027" stop-color="#BADAF8"/>
<stop offset="0.924183" stop-color="#DBEEFF"/>
</linearGradient>
<linearGradient id="paint56_linear_1619_24221" x1="297.415" y1="87.2861" x2="256.485" y2="114.731" gradientUnits="userSpaceOnUse">
<stop offset="0.0180256" stop-color="#C1E1FF"/>
<stop offset="0.9771" stop-color="#E0F0FF"/>
</linearGradient>
<linearGradient id="paint57_linear_1619_24221" x1="266.618" y1="69.8783" x2="277.559" y2="113.433" gradientUnits="userSpaceOnUse">
<stop offset="0.3503" stop-color="#BEDDFA"/>
<stop offset="0.9771" stop-color="#E0F0FF"/>
</linearGradient>
<linearGradient id="paint58_linear_1619_24221" x1="313.267" y1="106.851" x2="287.22" y2="124.317" gradientUnits="userSpaceOnUse">
<stop offset="0.0180256" stop-color="#C1E1FF"/>
<stop offset="0.9771" stop-color="#E0F0FF"/>
</linearGradient>
<linearGradient id="paint59_linear_1619_24221" x1="293.672" y1="95.7735" x2="300.635" y2="123.49" gradientUnits="userSpaceOnUse">
<stop offset="0.3503" stop-color="#BEDDFA"/>
<stop offset="0.9771" stop-color="#E0F0FF"/>
</linearGradient>
<linearGradient id="paint60_linear_1619_24221" x1="246.194" y1="75.7373" x2="261.479" y2="132.762" gradientUnits="userSpaceOnUse">
<stop stop-color="#B5D8F9"/>
<stop offset="0.732" stop-color="#E1F1FF"/>
</linearGradient>
<linearGradient id="paint61_linear_1619_24221" x1="284.135" y1="77.3096" x2="267.026" y2="124.197" gradientUnits="userSpaceOnUse">
<stop offset="0.368027" stop-color="#BADAF8"/>
<stop offset="0.924183" stop-color="#DBEEFF"/>
</linearGradient>
<linearGradient id="paint62_linear_1619_24221" x1="279.359" y1="141.064" x2="298.993" y2="141.064" gradientUnits="userSpaceOnUse">
<stop offset="0.1994" stop-color="#A8CFFE"/>
<stop offset="0.4317" stop-color="#D3EAFE"/>
<stop offset="0.8422" stop-color="#9DCAFE"/>
</linearGradient>
<linearGradient id="paint63_linear_1619_24221" x1="291.07" y1="164.012" x2="314.69" y2="167.177" gradientUnits="userSpaceOnUse">
<stop offset="0.0995" stop-color="#D3EAFE"/>
<stop offset="0.9138" stop-color="#88BAF0"/>
</linearGradient>
<linearGradient id="paint64_linear_1619_24221" x1="294.533" y1="164.651" x2="282.218" y2="164.651" gradientUnits="userSpaceOnUse">
<stop offset="0.1994" stop-color="#A8D0FE"/>
<stop offset="0.8422" stop-color="#84B4E8"/>
</linearGradient>
<linearGradient id="paint65_linear_1619_24221" x1="156.296" y1="125.905" x2="156.981" y2="160.843" gradientUnits="userSpaceOnUse">
<stop stop-color="#ABCCF5"/>
<stop offset="1" stop-color="#ABCCF5" stop-opacity="0"/>
</linearGradient>
<linearGradient id="paint66_linear_1619_24221" x1="68.9945" y1="40.6592" x2="66.5031" y2="47.74" gradientUnits="userSpaceOnUse">
<stop stop-color="white"/>
<stop offset="1" stop-color="white" stop-opacity="0"/>
</linearGradient>
<linearGradient id="paint67_linear_1619_24221" x1="293.702" y1="51.2879" x2="289.516" y2="63.1957" gradientUnits="userSpaceOnUse">
<stop stop-color="white"/>
<stop offset="1" stop-color="white" stop-opacity="0"/>
</linearGradient>
<linearGradient id="paint68_linear_1619_24221" x1="223.47" y1="58.9096" x2="221.797" y2="63.4681" gradientUnits="userSpaceOnUse">
<stop stop-color="white"/>
<stop offset="1" stop-color="white" stop-opacity="0"/>
</linearGradient>
<linearGradient id="paint69_linear_1619_24221" x1="191.55" y1="99.8804" x2="179.154" y2="135.136" gradientUnits="userSpaceOnUse">
<stop stop-color="#82A5FD"/>
<stop offset="1" stop-color="#1B57EF"/>
</linearGradient>
<linearGradient id="paint70_linear_1619_24221" x1="183.36" y1="122.764" x2="191.013" y2="107.782" gradientUnits="userSpaceOnUse">
<stop stop-color="#A3CFFB"/>
<stop offset="1" stop-color="#F2F7FC"/>
</linearGradient>
<linearGradient id="paint71_linear_1619_24221" x1="147.824" y1="65.0994" x2="116.939" y2="83.2931" gradientUnits="userSpaceOnUse">
<stop stop-color="#1A80FE"/>
<stop offset="0.88" stop-color="#1359C2"/>
<stop offset="1" stop-color="#0A50BE"/>
</linearGradient>
<linearGradient id="paint72_linear_1619_24221" x1="174.602" y1="126.632" x2="160.465" y2="122.752" gradientUnits="userSpaceOnUse">
<stop stop-color="#2C78D7"/>
<stop offset="0.8793" stop-color="#1B62CD"/>
<stop offset="1" stop-color="#155BC8"/>
</linearGradient>
<linearGradient id="paint73_linear_1619_24221" x1="138.628" y1="116.915" x2="151.927" y2="122.791" gradientUnits="userSpaceOnUse">
<stop stop-color="#2C78D7"/>
<stop offset="0.8793" stop-color="#1B62CD"/>
<stop offset="1" stop-color="#155BC8"/>
</linearGradient>
<linearGradient id="paint74_linear_1619_24221" x1="155.419" y1="85.7633" x2="156.044" y2="108.5" gradientUnits="userSpaceOnUse">
<stop stop-color="#549BFF"/>
<stop offset="1" stop-color="#549BFF" stop-opacity="0"/>
</linearGradient>
<linearGradient id="paint75_linear_1619_24221" x1="155.939" y1="69.5033" x2="156.764" y2="100.615" gradientUnits="userSpaceOnUse">
<stop stop-color="#1B70D9"/>
<stop offset="0.87931" stop-color="#1961CC"/>
<stop offset="1" stop-color="#1865DC"/>
</linearGradient>
<linearGradient id="paint76_linear_1619_24221" x1="128.917" y1="34.6327" x2="128.241" y2="44.759" gradientUnits="userSpaceOnUse">
<stop stop-color="#549BFF"/>
<stop offset="1" stop-color="#549BFF" stop-opacity="0"/>
</linearGradient>
<linearGradient id="paint77_linear_1619_24221" x1="191.465" y1="39.044" x2="190.79" y2="49.1286" gradientUnits="userSpaceOnUse">
<stop stop-color="#549BFF"/>
<stop offset="1" stop-color="#549BFF" stop-opacity="0"/>
</linearGradient>
<linearGradient id="paint78_linear_1619_24221" x1="189.534" y1="30.261" x2="161.343" y2="43.66" gradientUnits="userSpaceOnUse">
<stop stop-color="#2C78D7"/>
<stop offset="0.88" stop-color="#0F5ACC"/>
<stop offset="1" stop-color="#0857D3"/>
</linearGradient>
<linearGradient id="paint79_linear_1619_24221" x1="182.148" y1="31.3514" x2="143.053" y2="57.5295" gradientUnits="userSpaceOnUse">
<stop stop-color="#357FD8"/>
<stop offset="1" stop-color="#357FD8" stop-opacity="0"/>
</linearGradient>
<linearGradient id="paint80_linear_1619_24221" x1="134.638" y1="34.0323" x2="185.017" y2="62.2268" gradientUnits="userSpaceOnUse">
<stop offset="0.1" stop-color="#2C78D7"/>
<stop offset="0.7" stop-color="#322FA9"/>
<stop offset="1" stop-color="#17156D"/>
</linearGradient>
<linearGradient id="paint81_linear_1619_24221" x1="179.452" y1="99.3088" x2="170.689" y2="86.5733" gradientUnits="userSpaceOnUse">
<stop stop-color="#1A80FE"/>
<stop offset="0.88" stop-color="#1359C2"/>
<stop offset="1" stop-color="#0A50BE"/>
</linearGradient>
</defs>
</svg>
