<svg width="452" height="216" viewBox="0 0 452 216" fill="none" xmlns="http://www.w3.org/2000/svg">
<g clip-path="url(#clip0_1622_24967)">
<g clip-path="url(#clip1_1622_24967)">
<g clip-path="url(#clip2_1622_24967)">
<mask id="mask0_1622_24967" style="mask-type:alpha" maskUnits="userSpaceOnUse" x="8" y="-6" width="434" height="244">
<path d="M441.664 -5.51855H8.95703V237.882H441.664V-5.51855Z" fill="#D9D9D9"/>
</mask>
<g mask="url(#mask0_1622_24967)">
<mask id="mask1_1622_24967" style="mask-type:alpha" maskUnits="userSpaceOnUse" x="9" y="37" width="221" height="151">
<path d="M229.344 37.8794H9.5918V187.122H229.344V37.8794Z" fill="url(#paint0_linear_1622_24967)"/>
</mask>
<g mask="url(#mask1_1622_24967)">
<path d="M136.353 152L124.468 153.081C123.474 153.081 122.667 153.887 122.667 154.882V186.969H137.379H156.153V158.658C156.153 157.87 155.641 157.174 154.89 156.938L138.355 152.305C137.709 152.103 137.033 152 136.353 152Z" fill="url(#paint1_linear_1622_24967)"/>
<path d="M136.507 163.676L130.473 162.323C129.497 162.105 128.578 162.884 128.578 163.93V187.465H137.748V165.282C137.748 164.507 137.231 163.837 136.507 163.676Z" fill="url(#paint2_linear_1622_24967)"/>
<path d="M138.177 164.846C138.177 164.071 137.635 163.4 136.878 163.239L130.553 161.887C129.53 161.67 128.567 162.448 128.567 163.493V163.924C128.567 162.878 129.486 162.1 130.462 162.317L136.497 163.67C137.22 163.832 137.736 164.501 137.736 165.276V187.46H138.177V164.846Z" fill="url(#paint3_linear_1622_24967)"/>
<path d="M136.497 163.676L130.462 162.323C129.486 162.105 128.567 162.884 128.567 163.93V171.468V187.464H137.737V166.92V165.282C137.737 164.507 137.22 163.837 136.497 163.676Z" fill="url(#paint4_linear_1622_24967)"/>
<path opacity="0.25" d="M131.649 170.241L137.737 166.916V171.903L128.567 176.99V171.952L131.649 170.241Z" fill="url(#paint5_linear_1622_24967)"/>
<path opacity="0.25" d="M128.567 181.075L137.737 176.023V178.077L128.567 183.395V181.075Z" fill="url(#paint6_linear_1622_24967)"/>
<g opacity="0.5">
<path d="M80.3886 97.8762H76.0938L76.2857 76.1607L80.3886 74.4517V97.8762Z" fill="url(#paint7_linear_1622_24967)"/>
<path d="M88.4068 99.3148H80.1631V74.4517L88.4068 77.2827V99.3148Z" fill="url(#paint8_linear_1622_24967)"/>
</g>
<path d="M53.9943 126.287H45.1416L45.5375 81.527L53.9943 78.0044V126.287Z" fill="url(#paint9_linear_1622_24967)"/>
<path d="M70.509 129.253H53.5166V78.0044L70.509 83.8396V129.253Z" fill="url(#paint10_linear_1622_24967)"/>
<path d="M53.8818 83.2368L70.6264 88.8183" stroke="#B5D7F7" stroke-width="0.737971"/>
<path d="M53.8818 88.3076L70.6264 93.8891" stroke="#B5D7F7" stroke-width="0.737971"/>
<path d="M53.8818 93.3838L70.6264 98.9653" stroke="#B5D7F7" stroke-width="0.737971"/>
<path d="M47.4131 84.6035V98.5572L51.7261 99.3185V82.8276L47.4131 84.6035Z" fill="url(#paint11_linear_1622_24967)"/>
<path d="M39.7826 142.173H32.4375V93.5938L39.7826 91.1982V142.173Z" fill="url(#paint12_linear_1622_24967)"/>
<path d="M39.7793 91.1982L57.2972 96.3619V141.787H39.7793V91.1982Z" fill="url(#paint13_linear_1622_24967)"/>
<path d="M107.712 130.037H100.963L101.265 95.9131L107.712 93.2275V130.037Z" fill="url(#paint14_linear_1622_24967)"/>
<path d="M120.312 132.298H107.357V93.2275L120.312 97.6763V132.298Z" fill="url(#paint15_linear_1622_24967)"/>
<path d="M131.635 136.44H127.34L127.532 114.725L131.635 113.016V136.44Z" fill="url(#paint16_linear_1622_24967)"/>
<path d="M139.654 137.879H131.409V113.016L139.654 115.847V137.879Z" fill="url(#paint17_linear_1622_24967)"/>
<path d="M90.4725 133.72H85.2227V98.9987L90.4725 97.2866V133.72Z" fill="url(#paint18_linear_1622_24967)"/>
<path d="M90.4766 97.2866L102.997 100.977V133.444H90.4766V97.2866Z" fill="url(#paint19_linear_1622_24967)"/>
<path d="M120.083 140.555L113.136 141.109C112.554 141.109 112.084 141.58 112.084 142.161V154.673H120.682H131.656V144.762C131.656 144.302 131.357 143.896 130.918 143.759L121.254 140.733C120.873 140.616 120.479 140.555 120.083 140.555Z" fill="url(#paint20_linear_1622_24967)"/>
<path d="M126.75 152.495L114.865 153.576C113.871 153.576 113.063 154.383 113.063 155.378V187.465H127.774H146.55V159.153C146.55 158.366 146.039 157.669 145.287 157.435L126.75 152.495Z" fill="url(#paint21_linear_1622_24967)"/>
<path d="M126.751 152.495V187.465L112.784 189.767L117.213 153.363L126.751 152.495Z" fill="url(#paint22_linear_1622_24967)"/>
<path d="M115.339 134.159L61.0713 119.217C58.9434 118.631 56.7274 118.334 54.4992 118.334L15.4927 120.523C12.2284 120.523 9.58105 122.852 9.58105 125.725V133.032C10.481 132.282 11.8196 132.219 13.335 132.219L31.9057 143.971C34.1352 143.971 58.0445 142.765 60.3205 143.209L114.106 151.074C116.572 151.754 119.485 154.636 119.485 156.91V139.125C119.485 136.849 117.805 134.839 115.339 134.159Z" fill="url(#paint23_linear_1622_24967)"/>
<path d="M115.426 138.732C115.367 138.722 115.311 138.703 115.254 138.689L61.2464 127.386C59.0003 126.948 56.7887 126.721 54.5891 126.715C54.5293 126.715 54.4708 126.717 54.4109 126.72L13.4128 128.9C13.3604 128.903 13.3095 128.905 13.2571 128.905C12.0427 128.906 10.9467 128.956 10.1022 129.379C9.78021 129.541 9.58105 129.841 9.58105 130.166V139.169C9.58105 139.764 10.2249 140.208 10.8778 140.048C11.5771 139.878 12.3871 139.852 13.2571 139.851C13.3095 139.851 13.3604 139.85 13.4128 139.847L54.4124 137.666C54.4708 137.663 54.5293 137.662 54.5862 137.662C56.7828 137.666 58.8656 137.831 61.2449 138.17L115.132 146.341C115.287 146.364 115.438 146.398 115.585 146.446C117.916 147.188 119.484 149.138 119.484 151.336V143.674C119.487 141.425 119.487 139.433 115.426 138.732Z" fill="url(#paint24_linear_1622_24967)"/>
<path d="M115.339 149.68L61.2449 141.477C58.8357 141.134 56.7289 140.97 54.4992 140.97L13.335 143.159C11.8196 143.159 10.481 143.223 9.58105 143.972V195.331L57.8623 194.235H119.485V154.644C119.485 152.37 119.485 150.367 115.339 149.68Z" fill="url(#paint25_linear_1622_24967)"/>
<path d="M116.567 156.002C116.567 153.095 114.408 152.872 114.408 152.872C114.408 152.872 79.2122 147.617 72.7331 146.982C69.4479 146.66 67.7304 147.511 66.835 148.428C67.8456 147.786 69.4479 147.335 71.986 147.584C78.465 148.22 113.661 153.474 113.661 153.474C113.661 153.474 115.82 153.697 115.82 156.604C115.82 159.259 115.82 184.753 115.82 188.606L116.441 188.512C116.588 188.685 116.879 188.585 116.876 188.364C116.831 183.907 116.567 158.649 116.567 156.002Z" fill="url(#paint26_linear_1622_24967)"/>
<path d="M113.666 153.474C113.666 153.474 78.4714 148.22 71.9907 147.584C69.4527 147.335 67.8505 147.787 66.8398 148.428C65.9698 149.319 65.877 150.273 65.877 150.273V189.58L83.9188 193.454L115.826 187.207C115.826 183.356 115.826 159.261 115.826 156.604C115.825 153.699 113.666 153.474 113.666 153.474Z" fill="url(#paint27_linear_1622_24967)"/>
<path d="M17.6063 146.963C17.6063 146.963 46.29 145.538 51.149 145.538C52.546 145.538 53.5477 145.897 54.2679 146.411C53.5417 145.626 52.3812 144.991 50.526 144.991C45.6656 144.991 16.9833 146.416 16.9833 146.416C16.9833 146.416 13.457 146.248 13.457 148.931C13.457 151.612 13.457 194.547 13.457 194.547L14.0785 194.537C14.0785 190.001 14.0785 151.961 14.0785 149.476C14.0799 146.796 17.6063 146.963 17.6063 146.963Z" fill="url(#paint28_linear_1622_24967)"/>
<path d="M55.4819 149.353C55.4819 149.353 55.4444 147.687 54.269 146.413C53.5488 145.899 52.5456 145.54 51.15 145.54C46.2895 145.54 17.6073 146.964 17.6073 146.964C17.6073 146.964 14.0811 146.798 14.0811 149.479C14.0811 151.964 14.0811 190.002 14.0811 194.54L55.4834 192.812C55.386 192.561 55.4819 149.353 55.4819 149.353Z" fill="url(#paint29_linear_1622_24967)"/>
<path d="M92.4902 150.368V192.987L93.5009 192.932V150.514L92.4902 150.368Z" fill="#00AEEF"/>
<path d="M32.2754 146.34V193.193H33.3445V146.277L32.2754 146.34Z" fill="#00AEEF"/>
<path d="M55.4404 168.622C54.9163 168.634 54.4238 168.648 54.0315 168.648C48.9239 168.648 18.7773 169.526 18.7773 169.526C18.7773 169.526 15.0713 169.357 15.0713 172.039C15.0713 173.188 15.0713 187.753 15.0713 195.739L55.4749 194.026C55.427 193.899 55.4285 178.082 55.4404 168.622Z" fill="url(#paint30_linear_1622_24967)"/>
<path d="M83.908 194.67L115.019 192.975C115.019 187.578 115.019 176.726 115.019 175.624C115.019 172.719 112.86 172.494 112.86 172.494C112.86 172.494 77.6655 169.429 71.1848 168.794C69.8971 168.669 67.7754 168.487 65.8662 168.423V193.661L83.908 194.67Z" fill="url(#paint31_linear_1622_24967)"/>
<path opacity="0.23" d="M104.804 139.042L115.725 141.361C116.023 141.423 116.232 141.657 116.232 141.928V143.685C116.232 144.055 115.846 144.331 115.434 144.255L104.514 142.236C104.207 142.18 103.988 141.943 103.988 141.666V139.608C103.987 139.232 104.387 138.955 104.804 139.042Z" fill="#398EDD"/>
<path opacity="0.23" d="M64.5612 131.781L75.4816 134.1C75.7795 134.163 75.9892 134.396 75.9892 134.666V136.424C75.9892 136.793 75.6028 137.07 75.1911 136.994L64.2707 134.975C63.9638 134.918 63.7451 134.682 63.7451 134.405V132.348C63.7422 131.971 64.1435 131.692 64.5612 131.781Z" fill="#398EDD"/>
<path d="M32.2754 147.44V194.67L33.3445 194.241V146.277L32.2754 147.44Z" fill="url(#paint32_linear_1622_24967)"/>
<path opacity="0.2" d="M32.2801 148.866L14.0811 165.676C14.0811 167.936 14.0811 170.251 14.0811 172.494L32.2801 155.405V148.866Z" fill="url(#paint33_linear_1622_24967)"/>
<path opacity="0.2" d="M32.2801 163.115L14.0811 179.978C14.0811 180.778 14.0811 181.538 14.0811 182.247L32.2801 165.214V163.115Z" fill="url(#paint34_linear_1622_24967)"/>
<path opacity="0.2" d="M54.2631 146.423C54.0685 146.285 53.8543 146.158 53.6162 146.045L33.3418 164.439V175.141C33.3418 175.141 50.1738 160.043 55.4625 155.198C55.47 151.695 55.476 149.362 55.476 149.362C55.476 149.362 55.4385 147.696 54.2631 146.423Z" fill="url(#paint35_linear_1622_24967)"/>
<path opacity="0.2" d="M33.3418 184.639L55.4446 162.109L55.449 161.701C55.4505 161.009 55.452 160.331 55.452 159.67L33.3418 180.259V184.639Z" fill="url(#paint36_linear_1622_24967)"/>
<path d="M92.4902 150.368V190.762L93.5009 190.709V150.506L92.4902 150.368Z" fill="url(#paint37_linear_1622_24967)"/>
<path opacity="0.2" d="M92.4988 150.382L86.039 149.458L65.877 164.902V174.126L92.4988 151.825V150.382Z" fill="url(#paint38_linear_1622_24967)"/>
<path opacity="0.2" d="M92.4988 162.776L65.877 185.714V189.033L68.2353 188.92L92.4988 166.156V162.776Z" fill="url(#paint39_linear_1622_24967)"/>
<path opacity="0.2" d="M93.502 172.404L113.658 153.485L107.736 152.607L93.502 165.124V172.404Z" fill="url(#paint40_linear_1622_24967)"/>
<path opacity="0.2" d="M93.502 180.719L115.817 159.692C115.817 158.873 115.817 158.177 115.817 157.636L93.502 178.481V180.719Z" fill="url(#paint41_linear_1622_24967)"/>
<path opacity="0.2" d="M93.502 187.556L105.487 186.713L115.819 175.18C115.819 171.407 115.819 167.273 115.819 163.841L93.502 185.942V187.556Z" fill="url(#paint42_linear_1622_24967)"/>
<path opacity="0.7" d="M185.253 109.339C185.621 108.984 185.822 108.577 185.837 108.159C185.851 107.742 185.679 107.33 185.336 106.966C184.994 106.602 184.494 106.299 183.889 106.088C183.282 105.877 182.593 105.766 181.892 105.766H181.762C181.484 104.961 180.773 104.231 179.735 103.688C178.698 103.145 177.39 102.818 176.012 102.755C174.634 102.693 173.258 102.9 172.095 103.344C170.931 103.788 170.043 104.446 169.564 105.217C168.038 105.321 166.63 105.756 165.607 106.438C164.585 107.119 164.02 108.001 164.019 108.914C164.021 109.057 164.035 109.199 164.063 109.341L185.253 109.339Z" fill="url(#paint43_linear_1622_24967)"/>
</g>
<mask id="mask2_1622_24967" style="mask-type:alpha" maskUnits="userSpaceOnUse" x="276" y="88" width="220" height="149">
<path d="M495.283 88.2964H276.374V236.966H495.283V88.2964Z" fill="url(#paint44_linear_1622_24967)"/>
</mask>
<g mask="url(#mask2_1622_24967)">
<path d="M420.496 195.547L404.016 197.048C402.637 197.048 401.518 198.166 401.518 199.546V244.038H421.917H447.951V204.782C447.951 203.689 447.241 202.723 446.199 202.398L423.273 195.972C422.374 195.691 421.439 195.547 420.496 195.547Z" fill="url(#paint45_linear_1622_24967)"/>
<path d="M420.705 211.739L412.338 209.864C410.985 209.561 409.71 210.641 409.71 212.091V244.726H422.427V213.966C422.427 212.891 421.709 211.963 420.705 211.739Z" fill="url(#paint46_linear_1622_24967)"/>
<path d="M423.034 213.363C423.034 212.289 422.285 211.36 421.235 211.136L412.463 209.26C411.047 208.959 409.71 210.039 409.71 211.487V212.085C409.71 210.636 410.985 209.555 412.338 209.858L420.705 211.733C421.709 211.957 422.424 212.886 422.424 213.959V244.72H423.034V213.363Z" fill="url(#paint47_linear_1622_24967)"/>
<path d="M420.705 211.739L412.338 209.864C410.985 209.561 409.71 210.641 409.71 212.091V222.543V244.724H422.427V216.237V213.966C422.427 212.891 421.709 211.963 420.705 211.739Z" fill="url(#paint48_linear_1622_24967)"/>
<g opacity="0.5">
<path d="M342.889 120.498H336.933L337.199 90.3863L342.889 88.0166V120.498Z" fill="url(#paint49_linear_1622_24967)"/>
<path d="M354.005 122.492H342.574V88.0166L354.005 91.9421V122.492Z" fill="url(#paint50_linear_1622_24967)"/>
</g>
<path d="M306.283 159.893H294.009L294.557 97.8264L306.283 92.9419V159.893Z" fill="url(#paint51_linear_1622_24967)"/>
<path d="M329.198 164.005H305.636V92.9419L329.198 101.033V164.005Z" fill="url(#paint52_linear_1622_24967)"/>
<path d="M306.098 100.333L329.316 108.072" stroke="#B5D7F7" stroke-width="0.737971"/>
<path d="M306.098 107.368L329.316 115.108" stroke="#B5D7F7" stroke-width="0.737971"/>
<path d="M306.098 114.404L329.316 122.143" stroke="#B5D7F7" stroke-width="0.737971"/>
<path d="M297.173 102.085V121.434L303.154 122.489V99.6226L297.173 102.085Z" fill="url(#paint53_linear_1622_24967)"/>
<path d="M286.602 181.922H276.417V114.56L286.602 111.239V181.922Z" fill="url(#paint54_linear_1622_24967)"/>
<path d="M286.611 111.239L310.902 118.399V181.386H286.611V111.239Z" fill="url(#paint55_linear_1622_24967)"/>
<path d="M380.753 165.091H371.395L371.812 117.773L380.753 114.049V165.091Z" fill="url(#paint56_linear_1622_24967)"/>
<path d="M398.219 168.225H380.256V114.049L398.219 120.217V168.225Z" fill="url(#paint57_linear_1622_24967)"/>
<path d="M413.943 173.972H407.987L408.255 143.861L413.943 141.492V173.972Z" fill="url(#paint58_linear_1622_24967)"/>
<path d="M425.06 175.968H413.629V141.492L425.06 145.416V175.968Z" fill="url(#paint59_linear_1622_24967)"/>
<path d="M356.873 170.2H349.594V122.054L356.873 119.68V170.2Z" fill="url(#paint60_linear_1622_24967)"/>
<path d="M356.872 119.68L374.233 124.797V169.816H356.872V119.68Z" fill="url(#paint61_linear_1622_24967)"/>
<path d="M397.903 179.679L388.271 180.446C387.463 180.446 386.812 181.099 386.812 181.906V199.255H398.734H413.951V185.512C413.951 184.874 413.536 184.31 412.928 184.12L399.527 179.925C398.999 179.763 398.453 179.679 397.903 179.679Z" fill="url(#paint62_linear_1622_24967)"/>
<path d="M407.168 196.23L390.688 197.731C389.31 197.731 388.189 198.849 388.189 200.23V244.721H408.587H434.623V205.465C434.623 204.372 433.914 203.406 432.871 203.081L407.168 196.23Z" fill="url(#paint63_linear_1622_24967)"/>
<path d="M407.169 196.23V244.721L387.802 247.913L393.942 197.435L407.169 196.23Z" fill="url(#paint64_linear_1622_24967)"/>
</g>
<path d="M218.341 337.582C353.168 336.278 462.101 297.374 461.65 250.687C461.198 204.001 351.533 167.211 216.706 168.516C81.8782 169.82 -27.0548 208.724 -26.6032 255.41C-26.1516 302.097 83.5136 338.886 218.341 337.582Z" fill="url(#paint65_linear_1622_24967)"/>
<path opacity="0.7" d="M112.163 57.919C112.075 57.2343 111.788 56.5912 111.338 56.0699C110.889 55.5487 110.296 55.1725 109.635 54.9884C108.974 54.8043 108.274 54.8206 107.622 55.0351C106.97 55.2497 106.396 55.6529 105.971 56.1945C105.753 55.4536 105.347 54.7829 104.792 54.2491C104.238 53.7152 103.554 53.3365 102.809 53.151C102.064 52.9654 101.284 52.9792 100.546 53.191C99.8076 53.4028 99.1375 53.8053 98.6017 54.3585C98.0698 53.0812 97.1151 52.0286 95.8998 51.3796C94.6843 50.7305 93.2833 50.5249 91.9343 50.7976C90.5855 51.0703 89.3719 51.8047 88.4999 52.876C87.6277 53.9471 87.1509 55.2892 87.1504 56.6742C87.1509 57.0963 87.1948 57.5171 87.2812 57.9301L112.163 57.919Z" fill="url(#paint66_linear_1622_24967)"/>
<path opacity="0.5" d="M425.139 74.5055C424.991 73.3556 424.508 72.2746 423.751 71.3965C422.997 70.5185 422 69.8859 420.884 69.5794C419.773 69.2668 418.593 69.294 417.499 69.6582C416.401 70.0177 415.433 70.6938 414.718 71.6018C414.354 70.3588 413.672 69.2328 412.741 68.3324C411.809 67.4366 410.657 66.8 409.403 66.4854C408.149 66.1741 406.836 66.1992 405.594 66.5566C404.351 66.9113 403.222 67.5869 402.323 68.5152C401.431 66.3711 399.824 64.6016 397.775 63.5074C395.734 62.4113 393.375 62.062 391.102 62.52C388.831 62.9849 386.791 64.219 385.326 66.0137C383.855 67.82 383.053 70.0762 383.055 72.4044C383.055 73.1145 383.128 73.8225 383.274 74.5178L425.139 74.5055Z" fill="url(#paint67_linear_1622_24967)"/>
<path opacity="0.7" d="M319.19 80.616C319.453 80.3622 319.597 80.0711 319.608 79.7732C319.619 79.4751 319.495 79.1809 319.249 78.9208C319.005 78.6606 318.648 78.4439 318.216 78.2932C317.783 78.1424 317.291 78.0631 316.789 78.0633H316.697C316.499 77.4881 315.99 76.967 315.249 76.5789C314.507 76.1908 313.573 75.9568 312.588 75.9125C311.604 75.8682 310.621 76.0158 309.79 76.3331C308.959 76.6503 308.324 77.1199 307.982 77.6709C306.892 77.7456 305.885 78.056 305.155 78.5432C304.424 79.0302 304.021 79.6599 304.021 80.3124C304.022 80.4143 304.033 80.5161 304.052 80.6173L319.19 80.616Z" fill="url(#paint68_linear_1622_24967)"/>
</g>
<path d="M217.189 160.37C213.911 153.021 227.502 146.289 230.563 145.79C233.024 145.392 235.226 158.755 235.754 166.942C236.282 175.13 236.531 183.227 229.775 182.669C226.098 182.409 222.112 171.34 217.189 160.37Z" fill="url(#paint69_linear_1622_24967)"/>
<path d="M190.409 158.264C189.552 150.286 204.561 148.052 207.62 148.521C210.081 148.9 208.077 162.274 206.045 170.242C204.012 178.21 201.77 185.978 195.562 183.375C192.143 181.95 191.695 170.122 190.409 158.264Z" fill="url(#paint70_linear_1622_24967)"/>
<path d="M230.573 102.034L235.547 136.767L244.665 159.753L186.867 160.561L195.197 102.034H230.573Z" fill="white"/>
<path d="M215.614 160.16L214.309 123.162L214.766 127.221L217.248 160.141L215.614 160.16Z" fill="url(#paint71_linear_1622_24967)"/>
<path d="M219.439 116.946L220.554 118.035L214.228 122.379L205.911 118.715L207.793 116.569L208.394 115.883L207.572 115.492L201.383 112.551L204.193 102.761L223.371 104.499L225.076 112.435L219.558 115.868L218.812 116.332L219.439 116.946Z" fill="white" stroke="#96C0FD" stroke-width="1.37805"/>
<path d="M222.041 105.515C222.041 105.515 215.204 123.027 214.308 123.187C213.411 123.346 206.335 103.74 206.335 103.74L222.041 105.515Z" fill="url(#paint72_linear_1622_24967)"/>
<path d="M238.74 109.053C242.057 111.636 244.627 115.054 246.19 118.959C247.752 122.863 248.249 127.112 247.629 131.272C245.447 148.963 220.484 142.102 212.343 131.821C204.201 121.539 220.972 107.348 240.032 126.947" fill="url(#paint73_linear_1622_24967)"/>
<path d="M242.033 101.038C242.033 101.038 253.034 114.937 252.905 127.383C248.864 128.369 244.637 128.283 240.637 127.134L231.45 120.153L228.082 104.03L242.033 101.038Z" fill="white"/>
<path d="M190.792 106.561C187.475 109.145 184.904 112.566 183.341 116.472C181.78 120.377 181.284 124.629 181.904 128.79C184.085 146.471 209.049 139.609 217.19 129.338C225.332 119.067 209.313 106.561 190.792 123.763" fill="url(#paint74_linear_1622_24967)"/>
<path d="M187.229 101.038C187.229 101.038 176.014 113.815 176.144 125.523C180.19 126.462 184.404 126.384 188.411 125.294L197.6 118.732L200.683 104.03L187.229 101.038Z" fill="white"/>
<path d="M168.06 89.9511C175.488 89.9213 181.456 80.0794 181.39 67.9686C181.324 55.8577 175.249 46.0641 167.822 46.0938C160.394 46.1236 154.426 55.9655 154.492 68.0763C154.558 80.1872 160.632 89.9808 168.06 89.9511Z" fill="white"/>
<path d="M168.135 45.8231C175.604 45.7597 181.652 55.8541 181.644 68.3759C181.644 69.4728 181.598 70.5495 181.509 71.6062L155.046 62.8052C156.582 53.0823 161.862 45.8736 168.135 45.8231Z" fill="url(#paint75_linear_1622_24967)"/>
<path d="M169.767 90.1562C173.743 90.1416 176.915 80.312 176.853 68.2011C176.792 56.0903 173.519 46.2842 169.545 46.2988C165.57 46.3133 162.397 56.1429 162.458 68.2538C162.52 80.3648 165.793 90.1707 169.767 90.1562Z" fill="#084B59"/>
<path d="M168.457 90.167C172.432 90.1523 175.604 80.3227 175.542 68.2119C175.482 56.101 172.209 46.295 168.233 46.3096C164.259 46.3241 161.087 56.1537 161.147 68.2645C161.209 80.3755 164.482 90.1814 168.457 90.167Z" fill="#071C21"/>
<path d="M259.885 92.7447C267.923 93.2909 275.093 83.9387 275.902 71.8558C276.712 59.7728 270.853 49.5349 262.814 48.9886C254.778 48.4422 247.606 57.7945 246.797 69.8773C245.988 81.9603 251.848 92.1983 259.885 92.7447Z" fill="white"/>
<path d="M263.167 48.6513C255.228 48.1335 248.126 57.5076 247.3 69.5901C247.227 70.6477 247.205 71.6891 247.234 72.7141L275.962 65.8316C274.973 56.3581 269.833 49.0854 263.167 48.6513Z" fill="url(#paint76_linear_1622_24967)"/>
<path d="M258.021 92.8207C262.322 93.1108 266.459 83.5505 267.262 71.4671C268.064 59.3838 265.228 49.3532 260.927 49.0631C256.626 48.7729 252.488 58.3332 251.686 70.4165C250.882 82.4999 253.718 92.5306 258.021 92.8207Z" fill="#084B59"/>
<path d="M259.446 92.912C263.746 93.2021 267.885 83.6419 268.687 71.5584C269.49 59.4751 266.653 49.4445 262.352 49.1544C258.051 48.8642 253.913 58.4245 253.111 70.5078C252.307 82.5912 255.145 92.6219 259.446 92.912Z" fill="#071C21"/>
<path d="M197.36 24.1534C168.373 27.7137 165.118 51.1506 164.619 74.9127C164.121 98.6748 185.788 106.35 217.088 105.559C248.389 104.768 261.316 98.3936 263.778 83.4725C266.237 68.5512 266.163 44.053 253.404 33.5431C242.534 24.5822 218.325 21.5796 197.36 24.1534Z" fill="url(#paint77_linear_1622_24967)"/>
<path d="M225.413 102.008L202.955 102.329C185.282 102.581 170.564 88.409 170.249 70.8322L170.123 63.7897C169.806 46.1818 184.036 31.569 201.74 31.319L224.197 30.9979C241.87 30.7459 256.589 44.9193 256.905 62.4949L257.03 69.5376C257.347 87.1416 243.12 101.754 225.413 102.008Z" fill="url(#paint78_linear_1622_24967)"/>
<path d="M178.602 83.7661C175.728 75.423 176.827 54.2312 182.482 47.3023C188.136 40.3732 202.034 47.038 214.108 46.5926C226.184 46.1473 232.501 43.7444 237.996 43.8843C243.488 44.0242 251.206 47.2303 251.083 66.1806C250.959 85.1308 248.006 94.0887 223.091 94.9666C198.673 95.8265 181.892 93.3272 178.602 83.7661Z" fill="#EDECED"/>
<path d="M178.252 85.532C175.404 77.064 176.569 55.5286 182.25 48.4709C187.93 41.4131 201.815 48.1446 213.899 47.6514C225.984 47.1582 232.31 44.7007 237.807 44.8249C243.306 44.949 251.016 48.1785 250.833 67.4379C250.648 86.6976 247.667 95.8037 222.735 96.7737C198.305 97.7247 181.522 95.2377 178.252 85.532Z" fill="url(#paint79_linear_1622_24967)"/>
<path d="M180.971 82.5747C178.334 75.5592 179.309 57.7566 184.465 51.9438C189.619 46.1312 202.327 51.7571 213.349 51.3983C224.372 51.0394 230.141 49.0349 235.16 49.1599C240.179 49.2849 247.229 51.9882 247.142 67.9135C247.054 83.8388 244.371 91.3598 221.621 92.0551C199.323 92.7393 183.995 90.6137 180.971 82.5747Z" fill="white"/>
<path d="M249.482 36.9298C252.514 39.045 253.63 41.8544 254.492 40.6834C255.353 39.5122 253.592 36.8474 250.56 34.733C247.527 32.6185 244.374 31.8479 243.514 33.0224C242.656 34.1968 246.451 34.8125 249.482 36.9298Z" fill="white"/>
<path d="M255.629 44.4745C256.324 44.4967 256.904 43.9582 256.925 43.2718C256.947 42.5854 256.4 42.011 255.705 41.9889C255.011 41.9668 254.43 42.5053 254.41 43.1917C254.389 43.8781 254.935 44.4525 255.629 44.4745Z" fill="white"/>
<path d="M174.137 89.9178C171.814 87.2461 171.446 84.3693 170.361 85.2635C169.277 86.1576 170.283 89.0478 172.603 91.7179C174.924 94.388 177.69 95.8299 178.776 94.9361C179.862 94.0423 176.462 92.5884 174.137 89.9178Z" fill="white"/>
<path d="M170.897 82.7255C171.086 82.0653 170.696 81.3754 170.027 81.1849C169.359 80.9943 168.665 81.3752 168.476 82.0354C168.288 82.6956 168.677 83.3855 169.345 83.5759C170.014 83.7665 170.708 83.3857 170.897 82.7255Z" fill="white"/>
<path d="M234.822 72.5302C234.839 71.1024 236.574 69.971 238.695 70.0031C240.817 70.0354 242.523 71.2188 242.506 72.6466C242.49 74.0744 240.756 75.2057 238.634 75.1736C236.512 75.1414 234.806 73.958 234.822 72.5302Z" fill="#F5A1AA"/>
<path d="M184.689 68.676C184.707 67.2482 186.44 66.1169 188.561 66.1491C190.683 66.1812 192.389 67.3647 192.373 68.7925C192.356 70.2203 190.622 71.3517 188.5 71.3194C186.379 71.2873 184.672 70.1038 184.689 68.676Z" fill="#F5A1AA"/>
<path d="M195.322 64.4631C195.432 61.243 197.493 58.7196 199.923 58.827C202.354 58.9347 204.235 61.6322 204.125 64.8524C204.015 68.0726 201.953 70.596 199.522 70.4885C197.092 70.381 195.21 67.6833 195.322 64.4631Z" fill="#132348"/>
<path d="M223.783 65.782C223.893 62.5617 225.953 60.0384 228.384 60.1459C230.815 60.2534 232.696 62.951 232.586 66.1713C232.476 69.3915 230.415 71.9148 227.985 71.8074C225.554 71.6999 223.673 69.0022 223.783 65.782Z" fill="#132348"/>
<path d="M228.078 68.9958C228.099 68.2986 228.555 67.7503 229.096 67.7711C229.636 67.7919 230.06 68.3738 230.039 69.0711C230.018 69.7683 229.562 70.3166 229.02 70.2958C228.479 70.2751 228.057 69.693 228.078 68.9958Z" fill="white"/>
<path d="M200.41 66.2879C200.431 65.5906 200.887 65.0423 201.427 65.0631C201.968 65.0839 202.392 65.666 202.371 66.3631C202.349 67.0604 201.894 67.6087 201.353 67.5879C200.811 67.5671 200.389 66.985 200.41 66.2879Z" fill="white"/>
<path d="M220.29 76.7991C220.381 76.8033 220.472 76.8283 220.563 76.8738C220.886 77.047 221.027 77.4651 220.877 77.8005C219.572 80.6715 215.917 82.7651 212.513 82.6018C212.48 82.6001 212.442 82.5983 212.409 82.5968C209.694 82.4321 207.634 80.9008 206.593 78.2941C206.451 77.9378 206.603 77.5406 206.934 77.4126C207.266 77.2777 207.649 77.4605 207.784 77.8097C208.838 80.4651 210.889 81.1323 212.428 81.2267C212.454 81.228 212.486 81.2296 212.512 81.2309C215.41 81.3698 218.614 79.5633 219.697 77.1681C219.809 76.9199 220.043 76.7872 220.29 76.7991Z" fill="#132348"/>
</g>
</g>
</g>
<defs>
<linearGradient id="paint0_linear_1622_24967" x1="119.468" y1="37.8794" x2="119.468" y2="187.122" gradientUnits="userSpaceOnUse">
<stop offset="0.440192" stop-color="#D9D9D9"/>
<stop offset="1" stop-color="#D9D9D9" stop-opacity="0"/>
</linearGradient>
<linearGradient id="paint1_linear_1622_24967" x1="122.668" y1="169.484" x2="156.154" y2="169.484" gradientUnits="userSpaceOnUse">
<stop offset="0.1994" stop-color="#A8D5FE"/>
<stop offset="0.3818" stop-color="#D3EAFE"/>
<stop offset="0.5085" stop-color="#CEE7FE"/>
<stop offset="0.6602" stop-color="#BFDEFE"/>
<stop offset="0.8241" stop-color="#A7D0FE"/>
<stop offset="0.9821" stop-color="#89BEFE"/>
</linearGradient>
<linearGradient id="paint2_linear_1622_24967" x1="128.578" y1="174.875" x2="138.188" y2="174.875" gradientUnits="userSpaceOnUse">
<stop stop-color="#ECF5FE"/>
<stop offset="0.7055" stop-color="#C9E1FE"/>
</linearGradient>
<linearGradient id="paint3_linear_1622_24967" x1="125.385" y1="167.066" x2="134.334" y2="173.227" gradientUnits="userSpaceOnUse">
<stop offset="0.5754" stop-color="#718ED1"/>
<stop offset="0.8213" stop-color="#AAD7FE"/>
<stop offset="0.9742" stop-color="#718ED1"/>
</linearGradient>
<linearGradient id="paint4_linear_1622_24967" x1="128.568" y1="174.875" x2="137.737" y2="174.875" gradientUnits="userSpaceOnUse">
<stop stop-color="#ECF5FE"/>
<stop offset="0.7055" stop-color="#C9E1FE"/>
</linearGradient>
<linearGradient id="paint5_linear_1622_24967" x1="138.509" y1="169.069" x2="128.423" y2="174.498" gradientUnits="userSpaceOnUse">
<stop offset="0.1994" stop-color="#A8D5FE"/>
<stop offset="0.3818" stop-color="#D3EAFE"/>
<stop offset="0.5085" stop-color="#CEE7FE"/>
<stop offset="0.6602" stop-color="#BFDEFE"/>
<stop offset="0.8241" stop-color="#A7D0FE"/>
<stop offset="0.9821" stop-color="#89BEFE"/>
</linearGradient>
<linearGradient id="paint6_linear_1622_24967" x1="137.891" y1="176.843" x2="128.759" y2="182.125" gradientUnits="userSpaceOnUse">
<stop offset="0.1994" stop-color="#A8D5FE"/>
<stop offset="0.3818" stop-color="#D3EAFE"/>
<stop offset="0.5085" stop-color="#CEE7FE"/>
<stop offset="0.6602" stop-color="#BFDEFE"/>
<stop offset="0.8241" stop-color="#A7D0FE"/>
<stop offset="0.9821" stop-color="#89BEFE"/>
</linearGradient>
<linearGradient id="paint7_linear_1622_24967" x1="94.6218" y1="74.9511" x2="68.6575" y2="92.3612" gradientUnits="userSpaceOnUse">
<stop offset="0.0180256" stop-color="#C1E1FF"/>
<stop offset="0.9771" stop-color="#E0F0FF"/>
</linearGradient>
<linearGradient id="paint8_linear_1622_24967" x1="75.0891" y1="63.9082" x2="82.0298" y2="91.5374" gradientUnits="userSpaceOnUse">
<stop offset="0.3503" stop-color="#BEDDFA"/>
<stop offset="0.9771" stop-color="#E0F0FF"/>
</linearGradient>
<linearGradient id="paint9_linear_1622_24967" x1="83.3322" y1="79.0335" x2="29.8141" y2="114.92" gradientUnits="userSpaceOnUse">
<stop offset="0.0180256" stop-color="#C1E1FF"/>
<stop offset="0.9771" stop-color="#E0F0FF"/>
</linearGradient>
<linearGradient id="paint10_linear_1622_24967" x1="43.058" y1="56.2717" x2="57.3644" y2="113.222" gradientUnits="userSpaceOnUse">
<stop offset="0.3503" stop-color="#BEDDFA"/>
<stop offset="0.9771" stop-color="#E0F0FF"/>
</linearGradient>
<linearGradient id="paint11_linear_1622_24967" x1="49.5696" y1="82.8276" x2="49.5696" y2="99.3185" gradientUnits="userSpaceOnUse">
<stop stop-color="#C2DFFA"/>
<stop offset="1" stop-color="#C2DFFA" stop-opacity="0"/>
</linearGradient>
<linearGradient id="paint12_linear_1622_24967" x1="23.7321" y1="70.5097" x2="45.0518" y2="150.043" gradientUnits="userSpaceOnUse">
<stop stop-color="#B5D8F9"/>
<stop offset="0.732" stop-color="#E1F1FF"/>
</linearGradient>
<linearGradient id="paint13_linear_1622_24967" x1="76.6486" y1="72.7028" x2="52.7856" y2="138.098" gradientUnits="userSpaceOnUse">
<stop offset="0.368027" stop-color="#BADAF8"/>
<stop offset="0.924183" stop-color="#DBEEFF"/>
</linearGradient>
<linearGradient id="paint14_linear_1622_24967" x1="130.078" y1="94.0122" x2="89.2776" y2="121.371" gradientUnits="userSpaceOnUse">
<stop offset="0.0180256" stop-color="#C1E1FF"/>
<stop offset="0.9771" stop-color="#E0F0FF"/>
</linearGradient>
<linearGradient id="paint15_linear_1622_24967" x1="99.384" y1="76.6593" x2="110.291" y2="120.076" gradientUnits="userSpaceOnUse">
<stop offset="0.3503" stop-color="#BEDDFA"/>
<stop offset="0.9771" stop-color="#E0F0FF"/>
</linearGradient>
<linearGradient id="paint16_linear_1622_24967" x1="145.867" y1="113.515" x2="119.904" y2="130.925" gradientUnits="userSpaceOnUse">
<stop offset="0.0180256" stop-color="#C1E1FF"/>
<stop offset="0.9771" stop-color="#E0F0FF"/>
</linearGradient>
<linearGradient id="paint17_linear_1622_24967" x1="126.335" y1="102.472" x2="133.276" y2="130.101" gradientUnits="userSpaceOnUse">
<stop offset="0.3503" stop-color="#BEDDFA"/>
<stop offset="0.9771" stop-color="#E0F0FF"/>
</linearGradient>
<linearGradient id="paint18_linear_1622_24967" x1="79.0006" y1="82.4997" x2="94.2384" y2="139.345" gradientUnits="userSpaceOnUse">
<stop stop-color="#B5D8F9"/>
<stop offset="0.732" stop-color="#E1F1FF"/>
</linearGradient>
<linearGradient id="paint19_linear_1622_24967" x1="116.828" y1="84.0671" x2="99.7728" y2="130.808" gradientUnits="userSpaceOnUse">
<stop offset="0.368027" stop-color="#BADAF8"/>
<stop offset="0.924183" stop-color="#DBEEFF"/>
</linearGradient>
<linearGradient id="paint20_linear_1622_24967" x1="112.083" y1="147.615" x2="131.655" y2="147.615" gradientUnits="userSpaceOnUse">
<stop offset="0.1994" stop-color="#A8CFFE"/>
<stop offset="0.4317" stop-color="#D3EAFE"/>
<stop offset="0.8422" stop-color="#9DCAFE"/>
</linearGradient>
<linearGradient id="paint21_linear_1622_24967" x1="123.743" y1="170.495" x2="147.289" y2="173.648" gradientUnits="userSpaceOnUse">
<stop offset="0.0995" stop-color="#D3EAFE"/>
<stop offset="0.9138" stop-color="#88BAF0"/>
</linearGradient>
<linearGradient id="paint22_linear_1622_24967" x1="127.194" y1="171.131" x2="114.918" y2="171.131" gradientUnits="userSpaceOnUse">
<stop offset="0.1994" stop-color="#A8D0FE"/>
<stop offset="0.8422" stop-color="#84B4E8"/>
</linearGradient>
<linearGradient id="paint23_linear_1622_24967" x1="9.58108" y1="132.659" x2="119.485" y2="132.659" gradientUnits="userSpaceOnUse">
<stop offset="0.1737" stop-color="#DDEFFE"/>
<stop offset="0.4317" stop-color="#FEFEFE"/>
<stop offset="0.8654" stop-color="#AAD1FE"/>
</linearGradient>
<linearGradient id="paint24_linear_1622_24967" x1="9.58257" y1="139.025" x2="119.486" y2="139.025" gradientUnits="userSpaceOnUse">
<stop offset="0.1737" stop-color="#7BBFFF"/>
<stop offset="0.390625" stop-color="#CFE8FF"/>
<stop offset="0.915" stop-color="#61B2FD"/>
</linearGradient>
<linearGradient id="paint25_linear_1622_24967" x1="9.58108" y1="168.15" x2="119.485" y2="168.15" gradientUnits="userSpaceOnUse">
<stop offset="0.2459" stop-color="#EBF5FE"/>
<stop offset="0.4489" stop-color="#F3F8FE"/>
<stop offset="0.8387" stop-color="#BFDBFE"/>
</linearGradient>
<linearGradient id="paint26_linear_1622_24967" x1="69.811" y1="147.149" x2="114.859" y2="172.665" gradientUnits="userSpaceOnUse">
<stop offset="0.5754" stop-color="#4D75D1"/>
<stop offset="0.8213" stop-color="#AAD7FE"/>
<stop offset="0.9742" stop-color="#4D75D1"/>
</linearGradient>
<linearGradient id="paint27_linear_1622_24967" x1="66.9994" y1="153.991" x2="110.672" y2="190.314" gradientUnits="userSpaceOnUse">
<stop stop-color="#ECF5FE"/>
<stop offset="0.7055" stop-color="#C9E1FE"/>
</linearGradient>
<linearGradient id="paint28_linear_1622_24967" x1="36.197" y1="156.227" x2="22.4608" y2="166.174" gradientUnits="userSpaceOnUse">
<stop offset="0.5754" stop-color="#4D75D1"/>
<stop offset="0.8213" stop-color="#AAD7FE"/>
<stop offset="0.9742" stop-color="#4D75D1"/>
</linearGradient>
<linearGradient id="paint29_linear_1622_24967" x1="55.2395" y1="148.15" x2="15.4698" y2="195.94" gradientUnits="userSpaceOnUse">
<stop stop-color="#ECF5FE"/>
<stop offset="0.7055" stop-color="#C9E3FE"/>
</linearGradient>
<linearGradient id="paint30_linear_1622_24967" x1="55.5381" y1="179.887" x2="-2.31397" y2="186.285" gradientUnits="userSpaceOnUse">
<stop stop-color="#D3EAFE"/>
<stop offset="0.8306" stop-color="#ADD5FE"/>
</linearGradient>
<linearGradient id="paint31_linear_1622_24967" x1="57.0056" y1="180.184" x2="153.944" y2="189.645" gradientUnits="userSpaceOnUse">
<stop offset="0.0358" stop-color="#D3EAFE"/>
<stop offset="0.2463" stop-color="#CAE5FE"/>
<stop offset="0.5871" stop-color="#B2D8FE"/>
<stop offset="0.6492" stop-color="#ADD5FE"/>
</linearGradient>
<linearGradient id="paint32_linear_1622_24967" x1="32.2755" y1="170.473" x2="33.3449" y2="170.473" gradientUnits="userSpaceOnUse">
<stop offset="0.5452" stop-color="#98C3FE"/>
<stop offset="0.7105" stop-color="#D3EAFE"/>
<stop offset="0.9073" stop-color="#89B6FE"/>
</linearGradient>
<linearGradient id="paint33_linear_1622_24967" x1="14.0817" y1="160.68" x2="32.2803" y2="160.68" gradientUnits="userSpaceOnUse">
<stop offset="0.012" stop-color="#D6EBFE"/>
<stop offset="0.231" stop-color="#CCE6FF"/>
<stop offset="0.416" stop-color="#E9F4FE"/>
<stop offset="0.6512" stop-color="#D5EAFE"/>
<stop offset="1" stop-color="#ABD5FF"/>
</linearGradient>
<linearGradient id="paint34_linear_1622_24967" x1="14.0817" y1="172.682" x2="32.2803" y2="172.682" gradientUnits="userSpaceOnUse">
<stop offset="0.012" stop-color="#D6EBFE"/>
<stop offset="0.231" stop-color="#CCE6FF"/>
<stop offset="0.416" stop-color="#E9F4FE"/>
<stop offset="0.6512" stop-color="#D5EAFE"/>
<stop offset="1" stop-color="#ABD5FF"/>
</linearGradient>
<linearGradient id="paint35_linear_1622_24967" x1="33.3422" y1="160.593" x2="55.4762" y2="160.593" gradientUnits="userSpaceOnUse">
<stop offset="0.012" stop-color="#D6EBFE"/>
<stop offset="0.231" stop-color="#CCE6FF"/>
<stop offset="0.416" stop-color="#E9F4FE"/>
<stop offset="0.6512" stop-color="#D5EAFE"/>
<stop offset="1" stop-color="#ABD5FF"/>
</linearGradient>
<linearGradient id="paint36_linear_1622_24967" x1="33.3422" y1="172.155" x2="55.4536" y2="172.155" gradientUnits="userSpaceOnUse">
<stop offset="0.012" stop-color="#D6EBFE"/>
<stop offset="0.231" stop-color="#CCE6FF"/>
<stop offset="0.416" stop-color="#E9F4FE"/>
<stop offset="0.6512" stop-color="#D5EAFE"/>
<stop offset="1" stop-color="#ABD5FF"/>
</linearGradient>
<linearGradient id="paint37_linear_1622_24967" x1="92.4895" y1="170.565" x2="93.5014" y2="170.565" gradientUnits="userSpaceOnUse">
<stop offset="0.5452" stop-color="#98C3FE"/>
<stop offset="0.7105" stop-color="#D3EAFE"/>
<stop offset="0.9073" stop-color="#89B6FE"/>
</linearGradient>
<linearGradient id="paint38_linear_1622_24967" x1="65.8765" y1="161.792" x2="92.4981" y2="161.792" gradientUnits="userSpaceOnUse">
<stop offset="0.012" stop-color="#D6EBFE"/>
<stop offset="0.231" stop-color="#CCE6FF"/>
<stop offset="0.416" stop-color="#E9F4FE"/>
<stop offset="0.6512" stop-color="#D5EAFE"/>
<stop offset="1" stop-color="#ABD5FF"/>
</linearGradient>
<linearGradient id="paint39_linear_1622_24967" x1="65.8765" y1="175.905" x2="92.4981" y2="175.905" gradientUnits="userSpaceOnUse">
<stop offset="0.012" stop-color="#D6EBFE"/>
<stop offset="0.231" stop-color="#CCE6FF"/>
<stop offset="0.416" stop-color="#E9F4FE"/>
<stop offset="0.6512" stop-color="#D5EAFE"/>
<stop offset="1" stop-color="#ABD5FF"/>
</linearGradient>
<linearGradient id="paint40_linear_1622_24967" x1="93.5024" y1="162.506" x2="113.658" y2="162.506" gradientUnits="userSpaceOnUse">
<stop offset="0.012" stop-color="#D6EBFE"/>
<stop offset="0.231" stop-color="#CCE6FF"/>
<stop offset="0.416" stop-color="#E9F4FE"/>
<stop offset="0.6512" stop-color="#D5EAFE"/>
<stop offset="1" stop-color="#ABD5FF"/>
</linearGradient>
<linearGradient id="paint41_linear_1622_24967" x1="93.5024" y1="169.177" x2="115.818" y2="169.177" gradientUnits="userSpaceOnUse">
<stop offset="0.012" stop-color="#D6EBFE"/>
<stop offset="0.231" stop-color="#CCE6FF"/>
<stop offset="0.416" stop-color="#E9F4FE"/>
<stop offset="0.6512" stop-color="#D5EAFE"/>
<stop offset="1" stop-color="#ABD5FF"/>
</linearGradient>
<linearGradient id="paint42_linear_1622_24967" x1="93.5024" y1="175.699" x2="115.818" y2="175.699" gradientUnits="userSpaceOnUse">
<stop offset="0.012" stop-color="#D6EBFE"/>
<stop offset="0.231" stop-color="#CCE6FF"/>
<stop offset="0.416" stop-color="#E9F4FE"/>
<stop offset="0.6512" stop-color="#D5EAFE"/>
<stop offset="1" stop-color="#ABD5FF"/>
</linearGradient>
<linearGradient id="paint43_linear_1622_24967" x1="171.766" y1="102.745" x2="168.53" y2="111.564" gradientUnits="userSpaceOnUse">
<stop stop-color="white"/>
<stop offset="1" stop-color="white" stop-opacity="0"/>
</linearGradient>
<linearGradient id="paint44_linear_1622_24967" x1="385.827" y1="88.2964" x2="385.827" y2="201.644" gradientUnits="userSpaceOnUse">
<stop offset="0.0526068" stop-color="#D9D9D9"/>
<stop offset="1" stop-color="#D9D9D9" stop-opacity="0"/>
</linearGradient>
<linearGradient id="paint45_linear_1622_24967" x1="401.519" y1="219.793" x2="447.951" y2="219.793" gradientUnits="userSpaceOnUse">
<stop offset="0.1994" stop-color="#A8D5FE"/>
<stop offset="0.3818" stop-color="#D3EAFE"/>
<stop offset="0.5085" stop-color="#CEE7FE"/>
<stop offset="0.6602" stop-color="#BFDEFE"/>
<stop offset="0.8241" stop-color="#A7D0FE"/>
<stop offset="0.9821" stop-color="#89BEFE"/>
</linearGradient>
<linearGradient id="paint46_linear_1622_24967" x1="409.711" y1="227.269" x2="423.036" y2="227.269" gradientUnits="userSpaceOnUse">
<stop stop-color="#ECF5FE"/>
<stop offset="0.7055" stop-color="#C9E1FE"/>
</linearGradient>
<linearGradient id="paint47_linear_1622_24967" x1="405.297" y1="216.441" x2="417.707" y2="224.985" gradientUnits="userSpaceOnUse">
<stop offset="0.5754" stop-color="#718ED1"/>
<stop offset="0.8213" stop-color="#AAD7FE"/>
<stop offset="0.9742" stop-color="#718ED1"/>
</linearGradient>
<linearGradient id="paint48_linear_1622_24967" x1="409.711" y1="227.268" x2="422.425" y2="227.268" gradientUnits="userSpaceOnUse">
<stop stop-color="#ECF5FE"/>
<stop offset="0.7055" stop-color="#C9E1FE"/>
</linearGradient>
<linearGradient id="paint49_linear_1622_24967" x1="362.624" y1="88.7089" x2="326.622" y2="112.85" gradientUnits="userSpaceOnUse">
<stop offset="0.0180256" stop-color="#C1E1FF"/>
<stop offset="0.9771" stop-color="#E0F0FF"/>
</linearGradient>
<linearGradient id="paint50_linear_1622_24967" x1="335.538" y1="73.3966" x2="345.162" y2="111.708" gradientUnits="userSpaceOnUse">
<stop offset="0.3503" stop-color="#BEDDFA"/>
<stop offset="0.9771" stop-color="#E0F0FF"/>
</linearGradient>
<linearGradient id="paint51_linear_1622_24967" x1="346.964" y1="94.369" x2="272.755" y2="144.131" gradientUnits="userSpaceOnUse">
<stop offset="0.0180256" stop-color="#C1E1FF"/>
<stop offset="0.9771" stop-color="#E0F0FF"/>
</linearGradient>
<linearGradient id="paint52_linear_1622_24967" x1="291.133" y1="62.8069" x2="310.972" y2="141.776" gradientUnits="userSpaceOnUse">
<stop offset="0.3503" stop-color="#BEDDFA"/>
<stop offset="0.9771" stop-color="#E0F0FF"/>
</linearGradient>
<linearGradient id="paint53_linear_1622_24967" x1="300.163" y1="99.6226" x2="300.163" y2="122.489" gradientUnits="userSpaceOnUse">
<stop stop-color="#C2DFFA"/>
<stop offset="1" stop-color="#C2DFFA" stop-opacity="0"/>
</linearGradient>
<linearGradient id="paint54_linear_1622_24967" x1="264.345" y1="82.5514" x2="293.909" y2="192.834" gradientUnits="userSpaceOnUse">
<stop stop-color="#B5D8F9"/>
<stop offset="0.732" stop-color="#E1F1FF"/>
</linearGradient>
<linearGradient id="paint55_linear_1622_24967" x1="337.736" y1="85.5923" x2="304.647" y2="176.271" gradientUnits="userSpaceOnUse">
<stop offset="0.368027" stop-color="#BADAF8"/>
<stop offset="0.924183" stop-color="#DBEEFF"/>
</linearGradient>
<linearGradient id="paint56_linear_1622_24967" x1="411.767" y1="115.137" x2="355.191" y2="153.073" gradientUnits="userSpaceOnUse">
<stop offset="0.0180256" stop-color="#C1E1FF"/>
<stop offset="0.9771" stop-color="#E0F0FF"/>
</linearGradient>
<linearGradient id="paint57_linear_1622_24967" x1="369.198" y1="91.0747" x2="384.322" y2="151.279" gradientUnits="userSpaceOnUse">
<stop offset="0.3503" stop-color="#BEDDFA"/>
<stop offset="0.9771" stop-color="#E0F0FF"/>
</linearGradient>
<linearGradient id="paint58_linear_1622_24967" x1="433.68" y1="142.183" x2="397.677" y2="166.325" gradientUnits="userSpaceOnUse">
<stop offset="0.0180256" stop-color="#C1E1FF"/>
<stop offset="0.9771" stop-color="#E0F0FF"/>
</linearGradient>
<linearGradient id="paint59_linear_1622_24967" x1="406.594" y1="126.871" x2="416.218" y2="165.183" gradientUnits="userSpaceOnUse">
<stop offset="0.3503" stop-color="#BEDDFA"/>
<stop offset="0.9771" stop-color="#E0F0FF"/>
</linearGradient>
<linearGradient id="paint60_linear_1622_24967" x1="340.966" y1="99.1758" x2="362.094" y2="177.998" gradientUnits="userSpaceOnUse">
<stop stop-color="#B5D8F9"/>
<stop offset="0.732" stop-color="#E1F1FF"/>
</linearGradient>
<linearGradient id="paint61_linear_1622_24967" x1="393.412" y1="101.349" x2="369.762" y2="166.16" gradientUnits="userSpaceOnUse">
<stop offset="0.368027" stop-color="#BADAF8"/>
<stop offset="0.924183" stop-color="#DBEEFF"/>
</linearGradient>
<linearGradient id="paint62_linear_1622_24967" x1="386.81" y1="189.468" x2="413.949" y2="189.468" gradientUnits="userSpaceOnUse">
<stop offset="0.1994" stop-color="#A8CFFE"/>
<stop offset="0.4317" stop-color="#D3EAFE"/>
<stop offset="0.8422" stop-color="#9DCAFE"/>
</linearGradient>
<linearGradient id="paint63_linear_1622_24967" x1="402.998" y1="221.19" x2="435.648" y2="225.564" gradientUnits="userSpaceOnUse">
<stop offset="0.0995" stop-color="#D3EAFE"/>
<stop offset="0.9138" stop-color="#88BAF0"/>
</linearGradient>
<linearGradient id="paint64_linear_1622_24967" x1="407.783" y1="222.073" x2="390.76" y2="222.073" gradientUnits="userSpaceOnUse">
<stop offset="0.1994" stop-color="#A8D0FE"/>
<stop offset="0.8422" stop-color="#84B4E8"/>
</linearGradient>
<linearGradient id="paint65_linear_1622_24967" x1="216.706" y1="168.515" x2="217.652" y2="216.809" gradientUnits="userSpaceOnUse">
<stop stop-color="#ABCCF5"/>
<stop offset="1" stop-color="#ABCCF5" stop-opacity="0"/>
</linearGradient>
<linearGradient id="paint66_linear_1622_24967" x1="96.0316" y1="50.6802" x2="92.5879" y2="60.4677" gradientUnits="userSpaceOnUse">
<stop stop-color="white"/>
<stop offset="1" stop-color="white" stop-opacity="0"/>
</linearGradient>
<linearGradient id="paint67_linear_1622_24967" x1="406.637" y1="65.3694" x2="400.851" y2="81.8291" gradientUnits="userSpaceOnUse">
<stop stop-color="white"/>
<stop offset="1" stop-color="white" stop-opacity="0"/>
</linearGradient>
<linearGradient id="paint68_linear_1622_24967" x1="309.556" y1="75.9048" x2="307.244" y2="82.2057" gradientUnits="userSpaceOnUse">
<stop stop-color="white"/>
<stop offset="1" stop-color="white" stop-opacity="0"/>
</linearGradient>
<linearGradient id="paint69_linear_1622_24967" x1="215.883" y1="164.873" x2="234.912" y2="164.552" gradientUnits="userSpaceOnUse">
<stop stop-color="#1A80FE"/>
<stop offset="0.88" stop-color="#1359C2"/>
<stop offset="1" stop-color="#0A50BE"/>
</linearGradient>
<linearGradient id="paint70_linear_1622_24967" x1="189.613" y1="166.784" x2="207.727" y2="166.48" gradientUnits="userSpaceOnUse">
<stop stop-color="#1A80FE"/>
<stop offset="0.88" stop-color="#1359C2"/>
<stop offset="1" stop-color="#0A50BE"/>
</linearGradient>
<linearGradient id="paint71_linear_1622_24967" x1="215.778" y1="123.162" x2="217.128" y2="160.372" gradientUnits="userSpaceOnUse">
<stop stop-color="#96C0FD"/>
<stop offset="1" stop-color="#96C0FD" stop-opacity="0"/>
</linearGradient>
<linearGradient id="paint72_linear_1622_24967" x1="205.685" y1="113.798" x2="221.155" y2="113.394" gradientUnits="userSpaceOnUse">
<stop stop-color="#1A80FE"/>
<stop offset="0.88" stop-color="#1359C2"/>
<stop offset="1" stop-color="#0A50BE"/>
</linearGradient>
<linearGradient id="paint73_linear_1622_24967" x1="253.352" y1="123.736" x2="217.058" y2="140.417" gradientUnits="userSpaceOnUse">
<stop stop-color="#1A80FE"/>
<stop offset="0.88" stop-color="#1359C2"/>
<stop offset="1" stop-color="#0A50BE"/>
</linearGradient>
<linearGradient id="paint74_linear_1622_24967" x1="224.663" y1="121.244" x2="188.368" y2="137.925" gradientUnits="userSpaceOnUse">
<stop stop-color="#1A80FE"/>
<stop offset="0.88" stop-color="#1359C2"/>
<stop offset="1" stop-color="#0A50BE"/>
</linearGradient>
<linearGradient id="paint75_linear_1622_24967" x1="172.812" y1="49.8085" x2="169.207" y2="63.422" gradientUnits="userSpaceOnUse">
<stop stop-color="#549BFF"/>
<stop offset="1" stop-color="#549BFF" stop-opacity="0"/>
</linearGradient>
<linearGradient id="paint76_linear_1622_24967" x1="265.558" y1="52.8217" x2="269.065" y2="66.4904" gradientUnits="userSpaceOnUse">
<stop stop-color="#549BFF"/>
<stop offset="1" stop-color="#549BFF" stop-opacity="0"/>
</linearGradient>
<linearGradient id="paint77_linear_1622_24967" x1="263.863" y1="52.4227" x2="219.539" y2="64.5207" gradientUnits="userSpaceOnUse">
<stop stop-color="#2C78D7"/>
<stop offset="0.88" stop-color="#0F5ACC"/>
<stop offset="1" stop-color="#0857D3"/>
</linearGradient>
<linearGradient id="paint78_linear_1622_24967" x1="252.414" y1="50.7313" x2="188.436" y2="78.55" gradientUnits="userSpaceOnUse">
<stop stop-color="#357FD8"/>
<stop offset="1" stop-color="#357FD8" stop-opacity="0"/>
</linearGradient>
<linearGradient id="paint79_linear_1622_24967" x1="183.618" y1="39.0879" x2="250.116" y2="93.7281" gradientUnits="userSpaceOnUse">
<stop offset="0.1" stop-color="#2C78D7"/>
<stop offset="0.7" stop-color="#322FA9"/>
<stop offset="1" stop-color="#17156D"/>
</linearGradient>
<clipPath id="clip0_1622_24967">
<rect width="452" height="216" fill="white"/>
</clipPath>
<clipPath id="clip1_1622_24967">
<rect width="452" height="238.39" fill="white"/>
</clipPath>
<clipPath id="clip2_1622_24967">
<rect width="452" height="238.402" fill="white" transform="translate(0 -0.00634766)"/>
</clipPath>
</defs>
</svg>
