<svg width="44" height="44" viewBox="0 0 44 44" fill="none" xmlns="http://www.w3.org/2000/svg">
<path d="M2.0625 20.2979H7.09609V34.5596H2.0625V20.2979Z" fill="#008ED4"/>
<path d="M40.3764 25.8604C40.0719 25.2749 39.5494 24.8326 38.9217 24.6285C38.294 24.4246 37.6113 24.4754 37.0207 24.7699L27.566 29.5853C26.3663 31.4561 24.4116 32.6642 22.4401 31.7162L15.821 28.6038C15.6366 28.4989 15.4987 28.328 15.4353 28.1256C15.3718 27.9232 15.3873 27.7043 15.4788 27.5129C15.5702 27.3215 15.7308 27.1719 15.9281 27.094C16.1256 27.0162 16.345 27.0161 16.5425 27.0936C23.7488 30.4495 23.3125 30.3487 23.8746 30.3654C25.8629 30.4578 27.1213 27.3706 24.9485 26.4057C13.1028 20.8436 14.7807 21.0198 8.77393 21.7665V32.8822C9.68693 32.8114 10.6033 32.9669 11.4417 33.3353C23.6566 38.8807 20.217 38.9981 39.2858 29.2498C39.58 29.0989 39.8417 28.8916 40.0558 28.6395C40.2699 28.3875 40.4321 28.0959 40.5335 27.781C40.6347 27.4663 40.673 27.1347 40.6461 26.8052C40.6191 26.4756 40.5275 26.1545 40.3764 25.8604Z" fill="#0071AB"/>
<path fill-rule="evenodd" clip-rule="evenodd" d="M27.0705 25.9648C26.6828 25.509 26.2019 25.1415 25.6603 24.8868C23.6547 23.9445 22.0612 23.1861 20.7731 22.5732C16.1559 20.3759 15.4658 20.0475 13.8062 19.8113V6.875H21.3566V11.9086C21.357 12.0516 21.394 12.1921 21.4639 12.3168C21.5341 12.4415 21.6347 12.5462 21.7567 12.621C21.8785 12.6958 22.0175 12.7383 22.1604 12.7442C22.3032 12.7502 22.4453 12.7196 22.573 12.6552L25.5513 11.1703C26.2055 11.4948 26.729 11.7611 27.1525 11.9765C28.7872 12.808 28.9318 12.8815 29.3516 12.6217C29.7733 12.3606 29.7731 12.3239 29.7557 9.5539C29.7513 8.85229 29.7458 7.97534 29.7458 6.875H37.2962V22.9069C37.2115 22.9223 37.1444 22.9331 37.0779 22.947C36.5652 23.0542 36.093 23.3556 27.9086 27.5294C27.744 26.9541 27.4583 26.4206 27.0705 25.9648ZM33.9406 20.2979H30.5847C30.3623 20.2979 30.1489 20.3863 29.9916 20.5436C29.8343 20.7009 29.7458 20.9143 29.7458 21.1368C29.7458 21.3594 29.8343 21.5727 29.9916 21.7301C30.1489 21.8874 30.3623 21.9758 30.5847 21.9758H33.9406C34.163 21.9758 34.3764 21.8874 34.5337 21.7301C34.691 21.5727 34.7794 21.3594 34.7794 21.1368C34.7794 20.9143 34.691 20.7009 34.5337 20.5436C34.3764 20.3863 34.163 20.2979 33.9406 20.2979ZM26.6738 9.85732C25.7425 9.39179 25.7425 9.39179 25.5504 9.39179C25.363 9.39179 25.363 9.39179 24.4943 9.82559C24.158 9.99351 23.6916 10.2264 23.0338 10.5495V6.875H28.0672V10.5495C27.4521 10.2463 27.0044 10.0225 26.6738 9.85732Z" fill="#0071AB"/>
</svg>
