<svg width="44" height="44" viewBox="0 0 44 44" fill="none" xmlns="http://www.w3.org/2000/svg">
<path d="M29.7959 19.2135H28.2536C27.9124 19.2135 27.6368 18.9378 27.6368 18.5967V16.0938L20.6787 21.0642L27.6368 26.0346V23.5318C27.6368 23.1907 27.9124 22.915 28.2536 22.915H28.5621C33.1544 22.915 36.8904 26.6509 36.8904 31.2432C36.8904 33.5374 35.9583 35.6177 34.4524 37.1253C37.3771 35.4881 39.358 32.3592 39.358 28.7755C39.358 23.5028 35.0686 19.2135 29.7959 19.2135Z" fill="#008ED4"/>
<path fill-rule="evenodd" clip-rule="evenodd" d="M18.3512 10.8652C17.9774 11.2388 17.7675 11.7456 17.7675 12.274V14.2779C17.7675 14.9593 18.3199 15.5117 19.0014 15.5117C19.6827 15.5117 20.2352 14.9593 20.2352 14.2779V12.2188C20.2352 11.7227 20.4171 11.2439 20.7465 10.873L24.298 6.875H22.3413L18.3512 10.8652ZM33.1902 25.8695C32.0199 24.8603 30.5177 24.2261 28.8718 24.1552V27.233C28.8718 27.4643 28.7429 27.6759 28.5374 27.782C28.3308 27.8862 28.0841 27.8696 27.8966 27.7351L19.2598 21.5661C19.0977 21.45 19.0014 21.2631 19.0014 21.0639C19.0014 20.8645 19.0977 20.6777 19.2598 20.5623L27.8966 14.3932C28.0841 14.2582 28.3308 14.2402 28.5374 14.3463C28.7429 14.4518 28.8718 14.6634 28.8718 14.8948V17.9794H29.7972C30.9836 17.9794 32.1217 18.1786 33.1902 18.5339V11.8102H22.844C22.0846 11.8102 21.469 12.4259 21.469 13.1852V16.1286C21.469 16.4698 21.1931 16.7454 20.852 16.7454H17.1507C16.8095 16.7454 16.5337 16.4698 16.5337 16.1286V13.1852C16.5337 12.4259 15.9181 11.8102 15.1587 11.8102H4.8125V31.2689C4.8125 32.7877 6.04372 34.0189 7.5625 34.0189H30.4402C31.959 34.0189 33.1902 32.7877 33.1902 31.2689V25.8695ZM14.6829 30.9343C14.6829 31.2751 14.4068 31.5513 14.0661 31.5513H7.89704C7.55633 31.5513 7.28013 31.2751 7.28013 30.9343C7.28013 30.5936 7.55633 30.3174 7.89704 30.3174H14.0661C14.4068 30.3174 14.6829 30.5936 14.6829 30.9343ZM14.6829 28.4668C14.6829 28.8075 14.4068 29.0836 14.0661 29.0836H7.89704C7.55633 29.0836 7.28013 28.8075 7.28013 28.4668C7.28013 28.126 7.55633 27.8498 7.89704 27.8498H14.0661C14.4068 27.8498 14.6829 28.126 14.6829 28.4668ZM7.37309 8.88865C8.66242 7.59932 10.4111 6.875 12.2345 6.875H20.5972L16.8957 10.5764H5.68531L7.37309 8.88865ZM22.3413 10.5764H33.5518L37.2532 6.875H26.0428L22.3413 10.5764ZM38.1248 7.7473V20.1385L34.4234 18.2878V11.4487L38.1248 7.7473Z" fill="#0071AB"/>
</svg>
