<svg width="44" height="44" viewBox="0 0 44 44" fill="none" xmlns="http://www.w3.org/2000/svg">
<mask id="mask0_1301_27231" style="mask-type:luminance" maskUnits="userSpaceOnUse" x="0" y="0" width="44" height="44">
<path d="M44 0H0V44H44V0Z" fill="white"/>
</mask>
<g mask="url(#mask0_1301_27231)">
<path fill-rule="evenodd" clip-rule="evenodd" d="M29.7748 30.5232C30.2965 27.9451 32.7319 25.8963 35.3495 25.8963C37.8701 25.8963 39.6868 27.7965 39.637 30.2397C42.3629 30.3111 43.1217 26.7215 43.1217 26.7215C43.3511 25.7177 43.6941 23.7608 43.9812 21.8401C44.0752 21.2472 44.0029 20.6397 43.7723 20.0853C43.0596 18.422 42.1986 16.8262 41.1993 15.3175C40.254 13.9073 38.6684 13.072 36.8585 13.0419C35.7792 13.0247 34.7196 13.0144 33.9195 13.0144L33.9126 13.0075C33.8095 11.2819 32.5513 9.96016 30.7854 9.80203C29.6363 9.69976 25.0851 9.625 22.9006 9.625C22.0326 9.625 20.7874 9.63703 19.5276 9.65766V9.6525H19.5173H4.36993C4.17714 9.65239 3.98622 9.69027 3.80808 9.764C3.62995 9.83773 3.46809 9.94584 3.33178 10.0822C3.19545 10.2185 3.08733 10.3803 3.01362 10.5585C2.93989 10.7366 2.90199 10.9275 2.90212 11.1203V11.1272C2.90212 11.5146 3.05603 11.8862 3.33 12.1602C3.60399 12.4342 3.97558 12.5881 4.36305 12.5881H7.41641C7.78407 12.6152 8.12789 12.7803 8.37892 13.0503C8.62995 13.3203 8.76961 13.6752 8.76992 14.0438V14.0517C8.77049 14.2446 8.733 14.4359 8.65959 14.6143C8.58619 14.7928 8.47832 14.9549 8.34214 15.0917C8.20596 15.2284 8.04416 15.337 7.866 15.4111C7.68783 15.4853 7.4968 15.5235 7.30382 15.5238H5.73804C5.34898 15.5238 4.97586 15.6783 4.70075 15.9534C4.42564 16.2286 4.27109 16.6016 4.27109 16.9907C4.27098 17.1834 4.30884 17.3742 4.38251 17.5523C4.45618 17.7305 4.56422 17.8922 4.70045 18.0286C4.83669 18.1649 4.99844 18.2729 5.17648 18.3468C5.35451 18.4206 5.54533 18.4586 5.73804 18.4586H7.30382C7.69311 18.4586 8.06647 18.6131 8.34173 18.8884C8.617 19.1637 8.77164 19.5371 8.77164 19.9264C8.77164 20.3156 8.617 20.6889 8.34173 20.9642C8.06647 21.2395 7.69311 21.3942 7.30382 21.3942H1.44632C1.05719 21.3942 0.683976 21.5487 0.408731 21.8237C0.133488 22.0989 -0.0212565 22.4719 -0.0214844 22.861C-0.0214844 23.2504 0.13316 23.6237 0.408427 23.899C0.683697 24.1743 1.05704 24.3288 1.44632 24.3288H7.30382C7.69311 24.3288 8.06647 24.4835 8.34173 24.7588C8.617 25.0341 8.77164 25.4074 8.77164 25.7967C8.77118 26.1858 8.61634 26.5587 8.34112 26.8335C8.0659 27.1084 7.69282 27.2628 7.30382 27.2628H5.49226C5.1032 27.2628 4.73008 27.4174 4.45497 27.6925C4.17986 27.9676 4.02531 28.3407 4.02531 28.7298C4.02531 29.1189 4.17984 29.4921 4.45492 29.7674C4.73 30.0427 5.10312 30.1973 5.49226 30.1976L11.2724 30.1932L11.7528 28.9961C12.7368 27.1811 14.6945 25.8955 16.7673 25.8955C19.3859 25.8955 21.2455 27.9461 21.0409 30.5258H29.7738L29.7748 30.5232ZM33.7846 15.0494C34.552 15.0494 35.5454 15.0597 36.5424 15.0761C37.7506 15.0957 38.8076 15.6509 39.4419 16.5979C40.1193 17.6193 40.7282 18.6843 41.2646 19.7863C41.5482 20.3638 41.0266 21.1157 40.3433 21.1157H33.0172L33.7846 15.0494ZM1.93199 15.5493C2.7424 15.5493 3.39937 16.2063 3.39937 17.0167C3.39937 17.8272 2.7424 18.4841 1.93199 18.4841C1.12157 18.4841 0.4646 17.8272 0.4646 17.0167C0.4646 16.2063 1.12157 15.5493 1.93199 15.5493Z" fill="#0071AB"/>
<path d="M18.1349 33.0398C19.5392 31.7308 19.7555 29.6803 18.6178 28.46C17.4803 27.2397 15.4197 27.3117 14.0154 28.6207C12.6111 29.9299 12.3949 31.9803 13.5324 33.2006C14.6699 34.4209 16.7306 34.349 18.1349 33.0398Z" fill="#008ED4"/>
<path d="M36.7158 33.0399C38.1203 31.7309 38.3364 29.6803 37.1989 28.46C36.0613 27.2397 34.0008 27.3116 32.5965 28.6208C31.1922 29.9299 30.9759 31.9803 32.1134 33.2006C33.251 34.4209 35.3116 34.349 36.7158 33.0399Z" fill="#008ED4"/>
</g>
</svg>
