<svg width="34" height="31" viewBox="0 0 34 31" fill="none" xmlns="http://www.w3.org/2000/svg">
<path d="M8.75001 25.1667C9.21414 25.1667 9.65926 25.3511 9.98745 25.6793C10.3156 26.0075 10.5 26.4526 10.5 26.9167C10.5 27.3808 10.3156 27.826 9.98745 28.1541C9.65926 28.4823 9.21414 28.6667 8.75001 28.6667C8.28588 28.6667 7.84076 28.4823 7.51257 28.1541C7.18438 27.826 7.00001 27.3808 7.00001 26.9167C7.00001 26.4526 7.18438 26.0075 7.51257 25.6793C7.84076 25.3511 8.28588 25.1667 8.75001 25.1667ZM20.4167 25.1667C20.8808 25.1667 21.3259 25.3511 21.6541 25.6793C21.9823 26.0075 22.1667 26.4526 22.1667 26.9167C22.1667 27.3808 21.9823 27.826 21.6541 28.1541C21.3259 28.4823 20.8808 28.6667 20.4167 28.6667C19.9525 28.6667 19.5074 28.4823 19.1792 28.1541C18.8511 27.826 18.6667 27.3808 18.6667 26.9167C18.6667 26.4526 18.8511 26.0075 19.1792 25.6793C19.5074 25.3511 19.9525 25.1667 20.4167 25.1667ZM3.50001 5.33337C5.51368 5.33337 7.02684 6.83021 7.16918 8.83337H23.1023C23.4442 8.83332 23.7818 8.90837 24.0914 9.05322C24.4011 9.19807 24.6751 9.40917 24.8941 9.6716C25.1131 9.93403 25.2718 10.2414 25.3589 10.5719C25.4461 10.9024 25.4595 11.2481 25.3983 11.5844L23.4885 22.0844C23.3907 22.622 23.1073 23.1082 22.6877 23.4583C22.2681 23.8084 21.739 24.0001 21.1925 24H8.08618C7.49601 24.0001 6.92775 23.7764 6.49588 23.3742C6.064 22.972 5.80058 22.4211 5.75868 21.8324L4.82534 8.75054C4.77168 8.02837 4.15801 7.66671 3.50001 7.66671C3.19059 7.66671 2.89384 7.54379 2.67505 7.325C2.45626 7.10621 2.33334 6.80946 2.33334 6.50004C2.33334 6.19062 2.45626 5.89388 2.67505 5.67508C2.89384 5.45629 3.19059 5.33337 3.50001 5.33337Z" fill="white"/>
<rect x="18" width="16" height="16" rx="8" fill="#FA8C16"/>
<path d="M25.8523 12.1193C25.2898 12.1193 24.7884 12.0227 24.348 11.8295C23.9105 11.6364 23.5625 11.3679 23.304 11.0241C23.0483 10.6776 22.9091 10.2756 22.8864 9.81818H23.9602C23.983 10.0994 24.0795 10.3423 24.25 10.5469C24.4205 10.7486 24.6435 10.9048 24.919 11.0156C25.1946 11.1264 25.5 11.1818 25.8352 11.1818C26.2102 11.1818 26.5426 11.1165 26.8324 10.9858C27.1222 10.8551 27.3494 10.6733 27.5142 10.4403C27.679 10.2074 27.7614 9.9375 27.7614 9.63068C27.7614 9.30966 27.6818 9.02699 27.5227 8.78267C27.3636 8.53551 27.1307 8.34233 26.8239 8.20312C26.517 8.06392 26.142 7.99432 25.6989 7.99432H25V7.05682H25.6989C26.0455 7.05682 26.3494 6.99432 26.6108 6.86932C26.875 6.74432 27.081 6.56818 27.2287 6.34091C27.3793 6.11364 27.4545 5.84659 27.4545 5.53977C27.4545 5.24432 27.3892 4.98722 27.2585 4.76847C27.1278 4.54972 26.9432 4.37926 26.7045 4.2571C26.4688 4.13494 26.1903 4.07386 25.8693 4.07386C25.5682 4.07386 25.2841 4.12926 25.017 4.24006C24.7528 4.34801 24.5369 4.50568 24.3693 4.71307C24.2017 4.91761 24.1108 5.16477 24.0966 5.45455H23.0739C23.0909 4.99716 23.2287 4.59659 23.4872 4.25284C23.7457 3.90625 24.0838 3.63636 24.5014 3.44318C24.9219 3.25 25.3835 3.15341 25.8864 3.15341C26.4261 3.15341 26.8892 3.26278 27.2756 3.48153C27.6619 3.69744 27.9588 3.98295 28.1662 4.33807C28.3736 4.69318 28.4773 5.0767 28.4773 5.48864C28.4773 5.98011 28.348 6.39915 28.0895 6.74574C27.8338 7.09233 27.4858 7.33239 27.0455 7.46591V7.53409C27.5966 7.625 28.027 7.85937 28.3366 8.23722C28.6463 8.61222 28.8011 9.0767 28.8011 9.63068C28.8011 10.1051 28.6719 10.5312 28.4134 10.9091C28.1577 11.2841 27.8082 11.5795 27.3651 11.7955C26.9219 12.0114 26.4176 12.1193 25.8523 12.1193Z" fill="white"/>
</svg>
