<svg width="24" height="26" viewBox="0 0 24 26" fill="none" xmlns="http://www.w3.org/2000/svg">
<path d="M6.75001 20.1667C7.21414 20.1667 7.65926 20.3511 7.98745 20.6793C8.31564 21.0075 8.50001 21.4526 8.50001 21.9167C8.50001 22.3808 8.31564 22.826 7.98745 23.1541C7.65926 23.4823 7.21414 23.6667 6.75001 23.6667C6.28588 23.6667 5.84076 23.4823 5.51257 23.1541C5.18438 22.826 5.00001 22.3808 5.00001 21.9167C5.00001 21.4526 5.18438 21.0075 5.51257 20.6793C5.84076 20.3511 6.28588 20.1667 6.75001 20.1667ZM18.4167 20.1667C18.8808 20.1667 19.3259 20.3511 19.6541 20.6793C19.9823 21.0075 20.1667 21.4526 20.1667 21.9167C20.1667 22.3808 19.9823 22.826 19.6541 23.1541C19.3259 23.4823 18.8808 23.6667 18.4167 23.6667C17.9525 23.6667 17.5074 23.4823 17.1792 23.1541C16.8511 22.826 16.6667 22.3808 16.6667 21.9167C16.6667 21.4526 16.8511 21.0075 17.1792 20.6793C17.5074 20.3511 17.9525 20.1667 18.4167 20.1667ZM1.50001 0.333374C3.51368 0.333374 5.02684 1.83021 5.16918 3.83337H21.1023C21.4442 3.83332 21.7818 3.90837 22.0914 4.05322C22.4011 4.19807 22.6751 4.40917 22.8941 4.6716C23.1131 4.93403 23.2718 5.24138 23.3589 5.57191C23.4461 5.90244 23.4595 6.24807 23.3983 6.58437L21.4885 17.0844C21.3907 17.622 21.1073 18.1082 20.6877 18.4583C20.2681 18.8084 19.739 19.0001 19.1925 19H6.08618C5.49601 19.0001 4.92775 18.7764 4.49588 18.3742C4.064 17.972 3.80058 17.4211 3.75868 16.8324L2.82534 3.75054C2.77168 3.02837 2.15801 2.66671 1.50001 2.66671C1.19059 2.66671 0.893845 2.54379 0.675052 2.325C0.45626 2.10621 0.333344 1.80946 0.333344 1.50004C0.333344 1.19062 0.45626 0.893875 0.675052 0.675083C0.893845 0.45629 1.19059 0.333374 1.50001 0.333374Z" fill="white"/>
</svg>
