<svg width="28" height="28" viewBox="0 0 28 28" fill="none" xmlns="http://www.w3.org/2000/svg">
<path fill-rule="evenodd" clip-rule="evenodd" d="M25.6667 13.9999C25.6667 20.4434 20.4435 25.6666 14 25.6666C7.55654 25.6666 2.33337 20.4434 2.33337 13.9999C2.33337 7.55642 7.55654 2.33325 14 2.33325C20.4435 2.33325 25.6667 7.55642 25.6667 13.9999ZM17.5 10.4999C17.5 11.4282 17.1313 12.3184 16.4749 12.9748C15.8185 13.6312 14.9283 13.9999 14 13.9999C13.0718 13.9999 12.1815 13.6312 11.5252 12.9748C10.8688 12.3184 10.5 11.4282 10.5 10.4999C10.5 9.57166 10.8688 8.68142 11.5252 8.02505C12.1815 7.36867 13.0718 6.99992 14 6.99992C14.9283 6.99992 15.8185 7.36867 16.4749 8.02505C17.1313 8.68142 17.5 9.57166 17.5 10.4999ZM14 23.9166C16.0024 23.9198 17.9583 23.3139 19.6082 22.1794C20.3129 21.6953 20.6139 20.7736 20.2032 20.0234C19.355 18.4683 17.605 17.4999 14 17.4999C10.395 17.4999 8.64504 18.4683 7.79571 20.0234C7.38621 20.7736 7.68721 21.6953 8.39187 22.1794C10.0418 23.3139 11.9977 23.9198 14 23.9166Z" fill="white"/>
</svg>
