<svg width="228" height="60" viewBox="0 0 228 60" fill="none" xmlns="http://www.w3.org/2000/svg">
<mask id="mask0_75_436" style="mask-type:luminance" maskUnits="userSpaceOnUse" x="17" y="0" width="35" height="39">
<path d="M17.3555 0H28C33.8546 0 38.6447 4.75745 38.6447 10.5721V17.2372C37.9855 28.7056 42.1724 35.7537 51.2053 38.3815C42.4729 37.8085 34.1796 34.1149 27.9155 27.8933C21.6513 21.6719 17.9323 13.4349 17.3555 4.7619V0Z" fill="white"/>
</mask>
<g mask="url(#mask0_75_436)">
<path d="M51.2053 0H17.3555V38.3816H51.2053V0Z" fill="url(#paint0_linear_75_436)"/>
</g>
<mask id="mask1_75_436" style="mask-type:luminance" maskUnits="userSpaceOnUse" x="18" y="0" width="27" height="37">
<path d="M18.3296 0.967285V4.72965C18.9013 13.2071 22.5511 21.197 28.6042 27.2089C33.1062 31.6801 38.7095 34.8312 44.797 36.3861C32.384 29.1458 25.7152 15.0832 28 0.967285H18.3296Z" fill="white"/>
</mask>
<g mask="url(#mask1_75_436)">
<path d="M44.7971 0.967285H18.3296V36.3861H44.7971V0.967285Z" fill="url(#paint1_linear_75_436)"/>
</g>
<mask id="mask2_75_436" style="mask-type:luminance" maskUnits="userSpaceOnUse" x="38" y="17" width="18" height="22">
<path d="M38.6446 17.2371C37.9854 28.7054 42.1724 35.7535 51.2053 38.3813H56V27.8092C56 21.9944 51.21 17.2371 45.3554 17.2371H38.6446Z" fill="white"/>
</mask>
<g mask="url(#mask2_75_436)">
<path d="M55.9999 17.2368H37.9854V38.3811H55.9999V17.2368Z" fill="url(#paint2_linear_75_436)"/>
</g>
<mask id="mask3_75_436" style="mask-type:luminance" maskUnits="userSpaceOnUse" x="38" y="17" width="14" height="22">
<path d="M38.6446 17.2371C37.9854 28.7054 42.1724 35.7535 51.2053 38.3813C43.5228 34.3504 39.6947 25.5572 42 17.2371H38.6446Z" fill="white"/>
</mask>
<g mask="url(#mask3_75_436)">
<path d="M51.2052 17.2368H37.9854V38.3811H51.2052V17.2368Z" fill="url(#paint3_linear_75_436)"/>
</g>
<mask id="mask4_75_436" style="mask-type:luminance" maskUnits="userSpaceOnUse" x="4" y="21" width="35" height="39">
<path d="M38.6446 59.9999H28C22.1455 59.9999 17.3554 55.2425 17.3554 49.4278V42.7627C18.0145 31.2943 13.8276 24.2463 4.79468 21.6184C13.5271 22.1914 21.8204 25.885 28.0846 32.1066C34.3487 38.3281 38.0677 46.565 38.6446 55.238V59.9999Z" fill="white"/>
</mask>
<g mask="url(#mask4_75_436)">
<path d="M38.6427 21.625H4.79272V60.0066H38.6427V21.625Z" fill="url(#paint4_linear_75_436)"/>
</g>
<mask id="mask5_75_436" style="mask-type:luminance" maskUnits="userSpaceOnUse" x="11" y="23" width="27" height="37">
<path d="M37.6704 59.0329V55.2704C37.0989 46.793 33.4489 38.8031 27.3957 32.7912C22.8939 28.32 17.2906 25.1689 11.2029 23.614C23.6159 30.8543 30.2849 44.9168 28 59.0328H37.6704V59.0329Z" fill="white"/>
</mask>
<g mask="url(#mask5_75_436)">
<path d="M37.6704 23.614H11.2029V59.0328H37.6704V23.614Z" fill="url(#paint5_linear_75_436)"/>
</g>
<mask id="mask6_75_436" style="mask-type:luminance" maskUnits="userSpaceOnUse" x="0" y="21" width="18" height="22">
<path d="M17.3555 42.7627C18.0146 31.2943 13.8276 24.2463 4.79471 21.6184H0V32.1906C0 38.0053 4.79005 42.7627 10.6446 42.7627H17.3555Z" fill="white"/>
</mask>
<g mask="url(#mask6_75_436)">
<path d="M18.0146 21.625H0V42.7693H18.0146V21.625Z" fill="url(#paint6_linear_75_436)"/>
</g>
<mask id="mask7_75_436" style="mask-type:luminance" maskUnits="userSpaceOnUse" x="4" y="21" width="14" height="22">
<path d="M17.3554 42.7627C18.0145 31.2943 13.8276 24.2463 4.79468 21.6184C12.4771 25.6493 16.3053 34.4426 14.0001 42.7627H17.3554Z" fill="white"/>
</mask>
<g mask="url(#mask7_75_436)">
<path d="M18.0126 21.625H4.79272V42.7693H18.0126V21.625Z" fill="url(#paint7_linear_75_436)"/>
</g>
<mask id="mask8_75_436" style="mask-type:luminance" maskUnits="userSpaceOnUse" x="3" y="7" width="12" height="12">
<path d="M8.61946 7.18921C11.6558 7.18921 14.1171 9.63385 14.1171 12.6494C14.1171 15.6651 11.6557 18.1096 8.61946 18.1096C5.58313 18.1096 3.12183 15.665 3.12183 12.6494C3.12183 9.63376 5.58313 7.18921 8.61946 7.18921Z" fill="white"/>
</mask>
<g mask="url(#mask8_75_436)">
<path d="M14.1171 7.18921H3.12183V18.1097H14.1171V7.18921Z" fill="url(#paint8_linear_75_436)"/>
</g>
<mask id="mask9_75_436" style="mask-type:luminance" maskUnits="userSpaceOnUse" x="3" y="7" width="11" height="11">
<path d="M8.61958 7.73535C11.3523 7.73535 13.5675 9.93546 13.5675 12.6496C13.5675 15.3637 11.3523 17.5639 8.61958 17.5639C5.88682 17.5639 3.67163 15.3637 3.67163 12.6496C3.67163 9.93555 5.8869 7.73535 8.61958 7.73535Z" fill="white"/>
</mask>
<g mask="url(#mask9_75_436)">
<path d="M13.5675 7.73535H3.67163V17.5639H13.5675V7.73535Z" fill="url(#paint9_linear_75_436)"/>
</g>
<path d="M82.2734 7.625V19H79.9297L75.3594 11.375V19H73.0156V7.625H75.3594L79.9375 15.2578V7.625H82.2734ZM91.8984 12.2578V14.0859H85.9609V12.2578H91.8984ZM86.6562 7.625V19H84.3125V7.625H86.6562ZM93.5703 7.625V19H91.2344V7.625H93.5703ZM100.375 9.57031L97.2812 19H94.7891L99.0156 7.625H100.602L100.375 9.57031ZM102.945 19L99.8438 9.57031L99.5938 7.625H101.195L105.445 19H102.945ZM102.805 14.7656V16.6016H96.7969V14.7656H102.805ZM99.6953 4.57812L101.234 6.98438H99.3906L97.25 4.57812H99.6953ZM115.148 7.625V19H112.812V7.625H115.148ZM118.648 7.625V9.46094H109.367V7.625H118.648ZM127.57 12.2578V14.0859H121.633V12.2578H127.57ZM122.328 7.625V19H119.984V7.625H122.328ZM129.242 7.625V19H126.906V7.625H129.242ZM137.562 7.625H139.898V15.1406C139.898 16.0156 139.711 16.7526 139.336 17.3516C138.966 17.9505 138.453 18.401 137.797 18.7031C137.146 19.0052 136.396 19.1562 135.547 19.1562C134.698 19.1562 133.943 19.0052 133.281 18.7031C132.625 18.401 132.109 17.9505 131.734 17.3516C131.365 16.7526 131.18 16.0156 131.18 15.1406V7.625H133.523V15.1406C133.523 15.651 133.604 16.0677 133.766 16.3906C133.927 16.7135 134.159 16.9505 134.461 17.1016C134.768 17.2526 135.13 17.3281 135.547 17.3281C135.974 17.3281 136.336 17.2526 136.633 17.1016C136.935 16.9505 137.164 16.7135 137.32 16.3906C137.482 16.0677 137.562 15.651 137.562 15.1406V7.625ZM151.172 13.0469V13.5859C151.172 14.4505 151.055 15.2266 150.82 15.9141C150.586 16.6016 150.255 17.1875 149.828 17.6719C149.401 18.151 148.891 18.5182 148.297 18.7734C147.708 19.0286 147.055 19.1562 146.336 19.1562C145.622 19.1562 144.969 19.0286 144.375 18.7734C143.786 18.5182 143.276 18.151 142.844 17.6719C142.411 17.1875 142.076 16.6016 141.836 15.9141C141.602 15.2266 141.484 14.4505 141.484 13.5859V13.0469C141.484 12.1771 141.602 11.401 141.836 10.7188C142.07 10.0312 142.401 9.44531 142.828 8.96094C143.26 8.47656 143.771 8.10677 144.359 7.85156C144.953 7.59635 145.607 7.46875 146.32 7.46875C147.039 7.46875 147.693 7.59635 148.281 7.85156C148.875 8.10677 149.385 8.47656 149.812 8.96094C150.245 9.44531 150.578 10.0312 150.812 10.7188C151.052 11.401 151.172 12.1771 151.172 13.0469ZM148.805 13.5859V13.0312C148.805 12.4271 148.75 11.8958 148.641 11.4375C148.531 10.9792 148.37 10.5938 148.156 10.2812C147.943 9.96875 147.682 9.73438 147.375 9.57812C147.068 9.41667 146.716 9.33594 146.32 9.33594C145.924 9.33594 145.573 9.41667 145.266 9.57812C144.964 9.73438 144.706 9.96875 144.492 10.2812C144.284 10.5938 144.125 10.9792 144.016 11.4375C143.906 11.8958 143.852 12.4271 143.852 13.0312V13.5859C143.852 14.1849 143.906 14.7161 144.016 15.1797C144.125 15.638 144.286 16.026 144.5 16.3438C144.714 16.6562 144.974 16.8932 145.281 17.0547C145.589 17.2161 145.94 17.2969 146.336 17.2969C146.732 17.2969 147.083 17.2161 147.391 17.0547C147.698 16.8932 147.956 16.6562 148.164 16.3438C148.372 16.026 148.531 15.638 148.641 15.1797C148.75 14.7161 148.805 14.1849 148.805 13.5859ZM143.469 6.99219L145.68 5.17969H146.93L149.148 6.99219H147.492L146.305 5.98438L145.117 6.99219H143.469ZM148.578 5.92188L149.859 3.82031H151.633L149.859 5.92188H148.578ZM159.453 15.2266H161.789C161.742 15.9922 161.531 16.6719 161.156 17.2656C160.786 17.8594 160.268 18.3229 159.602 18.6562C158.94 18.9896 158.143 19.1562 157.211 19.1562C156.482 19.1562 155.828 19.0312 155.25 18.7812C154.672 18.526 154.177 18.1615 153.766 17.6875C153.359 17.2135 153.049 16.6406 152.836 15.9688C152.622 15.2969 152.516 14.5443 152.516 13.7109V12.9219C152.516 12.0885 152.625 11.3359 152.844 10.6641C153.068 9.98698 153.385 9.41146 153.797 8.9375C154.214 8.46354 154.711 8.09896 155.289 7.84375C155.867 7.58854 156.513 7.46094 157.227 7.46094C158.174 7.46094 158.974 7.63281 159.625 7.97656C160.281 8.32031 160.789 8.79427 161.148 9.39844C161.513 10.0026 161.732 10.6901 161.805 11.4609H159.461C159.435 11.0026 159.344 10.6146 159.188 10.2969C159.031 9.97396 158.794 9.73177 158.477 9.57031C158.164 9.40365 157.747 9.32031 157.227 9.32031C156.836 9.32031 156.495 9.39323 156.203 9.53906C155.911 9.6849 155.667 9.90625 155.469 10.2031C155.271 10.5 155.122 10.875 155.023 11.3281C154.93 11.776 154.883 12.3021 154.883 12.9062V13.7109C154.883 14.2995 154.927 14.8177 155.016 15.2656C155.104 15.7083 155.24 16.0833 155.422 16.3906C155.609 16.6927 155.849 16.9219 156.141 17.0781C156.438 17.2292 156.794 17.3047 157.211 17.3047C157.701 17.3047 158.104 17.2266 158.422 17.0703C158.74 16.9141 158.982 16.6823 159.148 16.375C159.32 16.0677 159.422 15.6849 159.453 15.2266Z" fill="white"/>
<path d="M81.6973 48.9756L86.1357 32.6719H91.8926L84.7002 54H80.9795L81.6973 48.9756ZM77.6689 32.6719L82.1074 48.9756L82.8545 54H79.0898L71.9414 32.6719H77.6689ZM98.9238 32.6719V54H93.7969V32.6719H98.9238ZM117.22 50.0449V54H105.853V50.0449H117.22ZM107.684 32.6719V54H102.542V32.6719H107.684ZM115.755 41.1387V44.9619H105.853V41.1387H115.755ZM117.264 32.6719V36.6416H105.853V32.6719H117.264ZM111.771 26.959L116.575 31.0752V31.2656H112.693L110.35 29.2734L108.035 31.2656H104.227V31.0166L108.943 26.959H111.771ZM107.698 57.2227C107.698 56.5977 107.952 56.0752 108.46 55.6553C108.968 55.2451 109.627 55.04 110.438 55.04C111.248 55.04 111.907 55.2451 112.415 55.6553C112.923 56.0752 113.177 56.5977 113.177 57.2227C113.177 57.8477 112.923 58.3652 112.415 58.7754C111.907 59.1953 111.248 59.4053 110.438 59.4053C109.627 59.4053 108.968 59.1953 108.46 58.7754C107.952 58.3652 107.698 57.8477 107.698 57.2227ZM129.949 32.6719V54H124.808V32.6719H129.949ZM136.365 32.6719V36.6416H118.538V32.6719H136.365ZM159.51 41.1387V45.0938H148.567V41.1387H159.51ZM150.281 32.6719V54H145.14V32.6719H150.281ZM162.967 32.6719V54H157.84V32.6719H162.967ZM185.701 31.4854H188.704C188.704 32.96 188.523 34.2197 188.162 35.2646C187.811 36.3096 187.181 37.1104 186.272 37.667C185.364 38.2139 184.085 38.4873 182.435 38.4873V36.085C183.499 36.085 184.256 35.8994 184.705 35.5283C185.164 35.1572 185.442 34.6299 185.54 33.9463C185.647 33.2529 185.701 32.4326 185.701 31.4854ZM177.806 32.6719H182.947V46.6025C182.947 48.2627 182.601 49.6689 181.907 50.8213C181.214 51.9639 180.242 52.8281 178.992 53.4141C177.742 54 176.272 54.293 174.583 54.293C172.913 54.293 171.443 54 170.174 53.4141C168.914 52.8281 167.928 51.9639 167.215 50.8213C166.512 49.6689 166.16 48.2627 166.16 46.6025V32.6719H171.316V46.6025C171.316 47.4814 171.443 48.1992 171.697 48.7559C171.951 49.3027 172.322 49.7031 172.811 49.957C173.299 50.2109 173.89 50.3379 174.583 50.3379C175.286 50.3379 175.877 50.2109 176.355 49.957C176.834 49.7031 177.195 49.3027 177.439 48.7559C177.684 48.1992 177.806 47.4814 177.806 46.6025V32.6719ZM205.667 32.6719V54H200.54L192.996 40.7285V54H187.854V32.6719H192.996L200.54 45.9434V32.6719H205.667ZM226.365 42.6035V51.3633C226.004 51.7637 225.447 52.1934 224.695 52.6523C223.953 53.1016 223.016 53.4873 221.883 53.8096C220.75 54.1318 219.417 54.293 217.884 54.293C216.468 54.293 215.184 54.0684 214.031 53.6191C212.879 53.1602 211.888 52.4912 211.058 51.6123C210.237 50.7236 209.603 49.6396 209.153 48.3604C208.714 47.0713 208.494 45.5967 208.494 43.9365V42.75C208.494 41.0898 208.719 39.6152 209.168 38.3262C209.617 37.0371 210.247 35.9531 211.058 35.0742C211.878 34.1855 212.84 33.5117 213.943 33.0527C215.057 32.5938 216.277 32.3643 217.605 32.3643C219.568 32.3643 221.165 32.6768 222.396 33.3018C223.626 33.917 224.559 34.7715 225.193 35.8652C225.828 36.9492 226.214 38.2041 226.351 39.6299H221.414C221.316 38.9268 221.131 38.3311 220.857 37.8428C220.594 37.3447 220.213 36.9688 219.715 36.7148C219.217 36.4512 218.572 36.3193 217.781 36.3193C217.166 36.3193 216.604 36.4512 216.097 36.7148C215.599 36.9785 215.174 37.3789 214.822 37.916C214.471 38.4434 214.197 39.1074 214.002 39.9082C213.816 40.709 213.724 41.6465 213.724 42.7207V43.9365C213.724 45.001 213.812 45.9336 213.987 46.7344C214.173 47.5352 214.446 48.2041 214.808 48.7412C215.179 49.2686 215.647 49.6689 216.214 49.9424C216.79 50.2061 217.469 50.3379 218.25 50.3379C218.797 50.3379 219.266 50.2939 219.656 50.2061C220.047 50.1084 220.369 49.9912 220.623 49.8545C220.887 49.708 221.087 49.5713 221.224 49.4443V46.1338H217.649V42.6035H226.365Z" fill="url(#paint10_linear_75_436)"/>
<defs>
<linearGradient id="paint0_linear_75_436" x1="51.6543" y1="43.4476" x2="7.80912" y2="-18.6096" gradientUnits="userSpaceOnUse">
<stop stop-color="#045304"/>
<stop offset="0.2428" stop-color="#1B6B06"/>
<stop offset="0.7517" stop-color="#55A70D"/>
<stop offset="1" stop-color="#73C710"/>
</linearGradient>
<linearGradient id="paint1_linear_75_436" x1="50.0946" y1="44.5494" x2="6.24927" y2="-17.5079" gradientUnits="userSpaceOnUse">
<stop stop-color="#045304"/>
<stop offset="0.2483" stop-color="#227307"/>
<stop offset="0.7572" stop-color="#5CAF0E"/>
<stop offset="1" stop-color="#73C710"/>
</linearGradient>
<linearGradient id="paint2_linear_75_436" x1="22.5807" y1="21.2536" x2="78.8796" y2="36.5796" gradientUnits="userSpaceOnUse">
<stop stop-color="#0131B8"/>
<stop offset="0.2837" stop-color="#0651C8"/>
<stop offset="0.9035" stop-color="#13A2F0"/>
<stop offset="1" stop-color="#15AFF7"/>
</linearGradient>
<linearGradient id="paint3_linear_75_436" x1="22.4174" y1="21.8535" x2="78.7163" y2="37.1795" gradientUnits="userSpaceOnUse">
<stop stop-color="#0131B8"/>
<stop offset="0.1738" stop-color="#0235BA"/>
<stop offset="0.3531" stop-color="#0442C0"/>
<stop offset="0.5349" stop-color="#0756CB"/>
<stop offset="0.7184" stop-color="#0B73D9"/>
<stop offset="0.9015" stop-color="#1198EB"/>
<stop offset="1" stop-color="#15AFF7"/>
</linearGradient>
<linearGradient id="paint4_linear_75_436" x1="4.34518" y1="16.5609" x2="48.1905" y2="78.6181" gradientUnits="userSpaceOnUse">
<stop stop-color="#0131B8"/>
<stop offset="0.2262" stop-color="#0549C4"/>
<stop offset="0.7006" stop-color="#0E86E2"/>
<stop offset="1" stop-color="#15AFF7"/>
</linearGradient>
<linearGradient id="paint5_linear_75_436" x1="5.90674" y1="15.4527" x2="49.7521" y2="77.51" gradientUnits="userSpaceOnUse">
<stop stop-color="#0131B8"/>
<stop offset="0.2685" stop-color="#0756CB"/>
<stop offset="0.7651" stop-color="#1196EA"/>
<stop offset="1" stop-color="#15AFF7"/>
</linearGradient>
<linearGradient id="paint6_linear_75_436" x1="33.42" y1="38.7524" x2="-22.8825" y2="23.4263" gradientUnits="userSpaceOnUse">
<stop stop-color="#045304"/>
<stop offset="0.3079" stop-color="#237307"/>
<stop offset="0.9813" stop-color="#71C510"/>
<stop offset="1" stop-color="#73C710"/>
</linearGradient>
<linearGradient id="paint7_linear_75_436" x1="33.5813" y1="38.1525" x2="-22.7212" y2="22.8265" gradientUnits="userSpaceOnUse">
<stop stop-color="#045304"/>
<stop offset="0.1804" stop-color="#085704"/>
<stop offset="0.3677" stop-color="#146406"/>
<stop offset="0.5581" stop-color="#287808"/>
<stop offset="0.7506" stop-color="#44950B"/>
<stop offset="0.9431" stop-color="#67BB0F"/>
<stop offset="1" stop-color="#73C710"/>
</linearGradient>
<linearGradient id="paint8_linear_75_436" x1="21.1101" y1="23.4103" x2="-2.9378" y2="2.40763" gradientUnits="userSpaceOnUse">
<stop stop-color="#045304"/>
<stop offset="0.413" stop-color="#2F8009"/>
<stop offset="1" stop-color="#73C710"/>
</linearGradient>
<linearGradient id="paint9_linear_75_436" x1="21.1982" y1="23.3144" x2="-1.21252" y2="4.05217" gradientUnits="userSpaceOnUse">
<stop stop-color="#045304"/>
<stop offset="0.5871" stop-color="#489A0B"/>
<stop offset="1" stop-color="#73C710"/>
</linearGradient>
<linearGradient id="paint10_linear_75_436" x1="150" y1="43" x2="150" y2="54" gradientUnits="userSpaceOnUse">
<stop stop-color="#B6E9FF"/>
<stop offset="1" stop-color="white"/>
</linearGradient>
</defs>
</svg>
